<svg id="Layer_1" data-name="Layer 1" xmlns="http://www.w3.org/2000/svg" viewBox="0 0 243.24 90"><defs><style>.cls-1{fill:#1d1d1b;}</style></defs><polygon class="cls-1" points="37.99 86.81 36.66 79.65 34.23 86.96 33.85 86.96 31.34 79.65 30.05 86.81 28.61 86.81 30.69 75.66 31.38 75.66 34.04 83.79 36.49 75.66 37.17 75.66 39.43 86.81 37.99 86.81"/><path class="cls-1" d="M219.78,464.14a3.19,3.19,0,0,1-2.65,1.09,2.3,2.3,0,0,1-1.66-.7,2.33,2.33,0,0,1-.71-1.73,2.57,2.57,0,0,1,1.09-2.1,4.31,4.31,0,0,1,2.76-.86,3.33,3.33,0,0,1,1,.2c0-1.31-.59-2-1.77-2a2.79,2.79,0,0,0-2.08.73l-.61-1.22a3.55,3.55,0,0,1,1.14-.57,4.36,4.36,0,0,1,1.38-.24,2.91,2.91,0,0,1,3.38,3.37v2.92a1.52,1.52,0,0,0,.64,1.44v.72a2.68,2.68,0,0,1-1.32-.25,1.47,1.47,0,0,1-.63-.83m-.13-3.07a5.39,5.39,0,0,0-1-.15,2.78,2.78,0,0,0-1.79.56,1.68,1.68,0,0,0-.69,1.33c0,.85.5,1.28,1.5,1.28a2.47,2.47,0,0,0,1.94-1Z" transform="translate(-174.64 -378.27)"/><polygon class="cls-1" points="53.99 86.81 51.44 82.73 50.17 84.03 50.17 86.81 48.73 86.81 48.73 75.32 50.17 75.32 50.17 82.45 53.29 78.66 54.98 78.66 52.37 81.75 55.56 86.81 53.99 86.81"/><path class="cls-1" d="M231.93,465.07v-6.93h-1.12v-1.22h2.56v8.15Zm.79-11.23a.9.9,0,1,1-.89.89.89.89,0,0,1,.89-.89" transform="translate(-174.64 -378.27)"/><path class="cls-1" d="M240.69,465.07v-4.74a3.17,3.17,0,0,0-.39-1.82A1.54,1.54,0,0,0,239,458a2.12,2.12,0,0,0-1,.3,2.21,2.21,0,0,0-.83.73v6.05h-1.45v-8.15h1l.46,1.05a2.52,2.52,0,0,1,2.34-1.2c1.78,0,2.67,1.09,2.67,3.26v5Z" transform="translate(-174.64 -378.27)"/><path class="cls-1" d="M243.89,467.3l.79-1.15A4.26,4.26,0,0,0,247,467a3,3,0,0,0,1.54-.34,1,1,0,0,0,.57-.84c0-.66-.48-1-1.43-1a5.66,5.66,0,0,0-.88.12,5.13,5.13,0,0,1-1,.13c-1.16,0-1.74-.44-1.74-1.31a.93.93,0,0,1,.41-.73,2.42,2.42,0,0,1,1-.47,3.09,3.09,0,0,1-.83-4.94,3.09,3.09,0,0,1,2.2-.85,3.21,3.21,0,0,1,1.88.49l.72-.86.95.89-.87.65a3,3,0,0,1,.55,1.89,3,3,0,0,1-.76,2.07,3,3,0,0,1-2,1l-1.19.12a2.73,2.73,0,0,0-.58.16c-.24.1-.35.22-.35.37s.24.32.74.32a8.21,8.21,0,0,0,1-.12,6.59,6.59,0,0,1,1-.12,2.74,2.74,0,0,1,1.87.58,2,2,0,0,1,.68,1.59,2.12,2.12,0,0,1-1,1.82,4.41,4.41,0,0,1-2.55.69,5.36,5.36,0,0,1-1.67-.28,4.88,4.88,0,0,1-1.41-.69m3.07-9.36a1.56,1.56,0,0,0-1.23.53,1.84,1.84,0,0,0-.48,1.29,2.17,2.17,0,0,0,.46,1.41,1.53,1.53,0,0,0,1.25.56,1.46,1.46,0,0,0,1.2-.54,2.22,2.22,0,0,0,.43-1.43,1.87,1.87,0,0,0-.46-1.29,1.48,1.48,0,0,0-1.17-.53" transform="translate(-174.64 -378.27)"/><path class="cls-1" d="M257.23,458.07h-1v-1.15h1v-1.7l1.44-.56v2.26h2.24v1.15h-2.24v4a2.4,2.4,0,0,0,.35,1.47,1.36,1.36,0,0,0,1.11.43,2.63,2.63,0,0,0,1.15-.28l.22,1.27a8.15,8.15,0,0,1-2,.23,2.13,2.13,0,0,1-1.63-.72,2.6,2.6,0,0,1-.66-1.82Z" transform="translate(-174.64 -378.27)"/><path class="cls-1" d="M263.59,465.07v-6.93h-1.12v-1.22H265v8.15Zm.79-11.23a.9.9,0,0,1,.9.89.87.87,0,0,1-.27.64.86.86,0,0,1-.63.26.88.88,0,0,1-.63-.26.86.86,0,0,1-.26-.64.82.82,0,0,1,.26-.63.86.86,0,0,1,.63-.26" transform="translate(-174.64 -378.27)"/><path class="cls-1" d="M276.77,465.07v-5.16c0-1.28-.56-1.92-1.67-1.92a1.69,1.69,0,0,0-1,.32,1.82,1.82,0,0,0-.63.74v6h-1.44v-5.79a1.12,1.12,0,0,0-.45-.94,1.88,1.88,0,0,0-1.2-.35,1.7,1.7,0,0,0-.93.33,2.07,2.07,0,0,0-.69.74v6h-1.45v-8.15h.95l.48.95a2.53,2.53,0,0,1,2.09-1.1,2.69,2.69,0,0,1,2.45,1.09,1.86,1.86,0,0,1,.9-.78,3.17,3.17,0,0,1,1.36-.31,2.53,2.53,0,0,1,2,.75,3,3,0,0,1,.69,2.11v5.44Z" transform="translate(-174.64 -378.27)"/><path class="cls-1" d="M287.13,461.14h-5.87a3,3,0,0,0,.78,2.2,2.49,2.49,0,0,0,1.78.67,3,3,0,0,0,2.07-.72l.61,1a2.82,2.82,0,0,1-1,.58,5.68,5.68,0,0,1-1.94.32,3.61,3.61,0,0,1-2.61-1.05,4.05,4.05,0,0,1-1.19-3.09,4.34,4.34,0,0,1,1.22-3.23,3.55,3.55,0,0,1,2.6-1.09,3.72,3.72,0,0,1,2.73,1,3.37,3.37,0,0,1,1,2.51,3.07,3.07,0,0,1-.12.88M283.62,458a2.26,2.26,0,0,0-2.32,2.1h4.51a2,2,0,0,0-.55-1.46,2.12,2.12,0,0,0-1.64-.64" transform="translate(-174.64 -378.27)"/><path class="cls-1" d="M297.87,454.88a2.58,2.58,0,0,0-.82-.16,1.36,1.36,0,0,0-1.09.51,1.86,1.86,0,0,0-.43,1.27,3,3,0,0,0,0,.42h1.67v1.22h-1.67v6.93h-1.44v-6.93h-1.19v-1.22h1.19a3.65,3.65,0,0,1,.77-2.45,2.56,2.56,0,0,1,2-.89,4.67,4.67,0,0,1,1.36.23Z" transform="translate(-174.64 -378.27)"/><path class="cls-1" d="M298.69,461a4.46,4.46,0,0,1,1-3.05,3.76,3.76,0,0,1,5.39,0,5.39,5.39,0,0,1,0,6.2,3.77,3.77,0,0,1-5.41,0,4.64,4.64,0,0,1-1-3.1m1.53,0c0,2,.72,3.07,2.16,3.07a1.84,1.84,0,0,0,1.59-.82,3.9,3.9,0,0,0,.58-2.25c0-2-.72-3-2.17-3a1.87,1.87,0,0,0-1.58.81,3.73,3.73,0,0,0-.58,2.22" transform="translate(-174.64 -378.27)"/><path class="cls-1" d="M312,458.32a1.66,1.66,0,0,0-.95-.33,1.68,1.68,0,0,0-1.35.71,2.62,2.62,0,0,0-.57,1.7v4.68H307.7v-8.15h1.45v1.29a2.55,2.55,0,0,1,2.35-1.45,6.82,6.82,0,0,1,1.12.14Z" transform="translate(-174.64 -378.27)"/><path class="cls-1" d="M330.51,461a4.51,4.51,0,0,1,1-3.05,3.77,3.77,0,0,1,5.4,0,5.42,5.42,0,0,1,0,6.2,3.36,3.36,0,0,1-2.69,1.14,3.4,3.4,0,0,1-2.72-1.15,4.64,4.64,0,0,1-1-3.1m1.52,0c0,2,.73,3.07,2.17,3.07a1.86,1.86,0,0,0,1.59-.82,3.9,3.9,0,0,0,.57-2.25q0-3-2.16-3a1.85,1.85,0,0,0-1.58.81A3.73,3.73,0,0,0,332,461" transform="translate(-174.64 -378.27)"/><path class="cls-1" d="M339.52,462.77v-9.19H341v8.95a1.4,1.4,0,0,0,.37,1,1.34,1.34,0,0,0,1,.37v1.3c-1.87,0-2.81-.82-2.81-2.46" transform="translate(-174.64 -378.27)"/><path class="cls-1" d="M349.17,465.07v-.61a2.93,2.93,0,0,1-2.19.76,3.13,3.13,0,0,1-2.48-1.1,4.26,4.26,0,0,1-.95-2.92,4.68,4.68,0,0,1,1.09-3.13,3.3,3.3,0,0,1,2.61-1.3,2.81,2.81,0,0,1,1.92.59v-3.78h1.44v11.49Zm0-6.26a1.72,1.72,0,0,0-1.5-.82,2.3,2.3,0,0,0-1.88.87,3.34,3.34,0,0,0-.72,2.21c0,2,.89,2.94,2.68,2.94a2,2,0,0,0,.82-.22,1.17,1.17,0,0,0,.6-.46Z" transform="translate(-174.64 -378.27)"/><path class="cls-1" d="M359.55,461.14h-5.88a2.92,2.92,0,0,0,.79,2.2,2.47,2.47,0,0,0,1.78.67,3.05,3.05,0,0,0,2.07-.72l.61,1a3,3,0,0,1-1,.58,5.62,5.62,0,0,1-1.93.32,3.58,3.58,0,0,1-2.61-1.05,4.06,4.06,0,0,1-1.2-3.09,4.34,4.34,0,0,1,1.23-3.23,3.53,3.53,0,0,1,2.59-1.09,3.72,3.72,0,0,1,2.73,1,3.37,3.37,0,0,1,1,2.51,3.48,3.48,0,0,1-.11.88M356,458a2.28,2.28,0,0,0-2.33,2.1h4.51a2.08,2.08,0,0,0-.54-1.46A2.13,2.13,0,0,0,356,458" transform="translate(-174.64 -378.27)"/><path class="cls-1" d="M365.61,458.32a1.63,1.63,0,0,0-.95-.33,1.67,1.67,0,0,0-1.34.71,2.63,2.63,0,0,0-.58,1.7v4.68H361.3v-8.15h1.44v1.29a2.56,2.56,0,0,1,2.36-1.45,6.61,6.61,0,0,1,1.11.14Z" transform="translate(-174.64 -378.27)"/><path class="cls-1" d="M372.46,464.62v3.65H371V456.92h1.45v.67a2.73,2.73,0,0,1,2-.82,3.46,3.46,0,0,1,2.71,1.08,4.64,4.64,0,0,1,1,3.17,4.57,4.57,0,0,1-1,3,3.46,3.46,0,0,1-2.81,1.18,3.81,3.81,0,0,1-1.11-.19,1.41,1.41,0,0,1-.76-.42m0-5.94v4.75a1.21,1.21,0,0,0,.58.39,2.09,2.09,0,0,0,.86.19c1.79,0,2.69-1,2.69-3.05a3.32,3.32,0,0,0-.64-2.26,2.63,2.63,0,0,0-2-.71,1.79,1.79,0,0,0-.75.21,2.26,2.26,0,0,0-.7.48" transform="translate(-174.64 -378.27)"/><path class="cls-1" d="M386.56,461.14h-5.87a3,3,0,0,0,.78,2.2,2.47,2.47,0,0,0,1.78.67,3,3,0,0,0,2.07-.72l.61,1a2.88,2.88,0,0,1-1,.58,5.62,5.62,0,0,1-1.93.32,3.58,3.58,0,0,1-2.61-1.05,4.05,4.05,0,0,1-1.19-3.09,4.34,4.34,0,0,1,1.22-3.23,3.53,3.53,0,0,1,2.59-1.09,3.75,3.75,0,0,1,2.74,1,3.4,3.4,0,0,1,.95,2.51,3.08,3.08,0,0,1-.11.88M383.05,458a2.29,2.29,0,0,0-1.62.62,2.23,2.23,0,0,0-.7,1.48h4.51a2.08,2.08,0,0,0-.55-1.46,2.13,2.13,0,0,0-1.64-.64" transform="translate(-174.64 -378.27)"/><path class="cls-1" d="M387.66,461a4.46,4.46,0,0,1,1-3.05,3.76,3.76,0,0,1,5.39,0,4.52,4.52,0,0,1,1,3.09,4.59,4.59,0,0,1-1,3.11,3.77,3.77,0,0,1-5.41,0,4.64,4.64,0,0,1-1-3.1m1.53,0c0,2,.72,3.07,2.16,3.07a1.84,1.84,0,0,0,1.59-.82,3.9,3.9,0,0,0,.58-2.25c0-2-.72-3-2.17-3a1.85,1.85,0,0,0-1.57.81,3.66,3.66,0,0,0-.59,2.22" transform="translate(-174.64 -378.27)"/><path class="cls-1" d="M398,464.62v3.65h-1.45V456.92H398v.67a2.7,2.7,0,0,1,2-.82,3.42,3.42,0,0,1,2.7,1.08,5.44,5.44,0,0,1,0,6.2,3.47,3.47,0,0,1-2.82,1.18,3.92,3.92,0,0,1-1.11-.19,1.41,1.41,0,0,1-.75-.42m0-5.94v4.75a1.21,1.21,0,0,0,.58.39,2.08,2.08,0,0,0,.85.19c1.8,0,2.7-1,2.7-3.05a3.32,3.32,0,0,0-.64-2.26,2.65,2.65,0,0,0-2.05-.71,1.79,1.79,0,0,0-.74.21,2.26,2.26,0,0,0-.7.48" transform="translate(-174.64 -378.27)"/><path class="cls-1" d="M405.36,462.77v-9.19h1.45v8.95a1.4,1.4,0,0,0,.37,1,1.34,1.34,0,0,0,1,.37v1.3c-1.88,0-2.81-.82-2.81-2.46" transform="translate(-174.64 -378.27)"/><path class="cls-1" d="M416.7,461.14h-5.87a3,3,0,0,0,.78,2.2,2.49,2.49,0,0,0,1.78.67,3,3,0,0,0,2.07-.72l.61,1a2.79,2.79,0,0,1-1,.58,5.58,5.58,0,0,1-1.93.32,3.61,3.61,0,0,1-2.61-1.05,4.05,4.05,0,0,1-1.19-3.09,4.34,4.34,0,0,1,1.22-3.23,3.55,3.55,0,0,1,2.6-1.09,3.72,3.72,0,0,1,2.73,1,3.37,3.37,0,0,1,1,2.51,3.07,3.07,0,0,1-.12.88M413.2,458a2.28,2.28,0,0,0-2.33,2.1h4.51a2,2,0,0,0-.55-1.46,2.11,2.11,0,0,0-1.63-.64" transform="translate(-174.64 -378.27)"/><path class="cls-1" d="M322.78,394c-3.35-.58-5.41-4.55-4.6-8.87s4.19-7.34,7.54-6.75,5.42,4.55,4.61,8.86-4.19,7.34-7.55,6.76" transform="translate(-174.64 -378.27)"/><path class="cls-1" d="M373.41,431.92a11.15,11.15,0,0,1-5,1.43h0a8.39,8.39,0,0,1-4-.89,7.4,7.4,0,0,1-2.68-2.44,10.94,10.94,0,0,1-1.55-3.72,20.51,20.51,0,0,1-.5-4.55h17.67v-2h0a16,16,0,0,0-.61-4.54,10.55,10.55,0,0,0-1.9-3.68,9.12,9.12,0,0,0-3.46-2.59,12.57,12.57,0,0,0-5.07-.95h0a11.25,11.25,0,0,0-5.22,1.21,12.13,12.13,0,0,0-3.9,3.18,14.54,14.54,0,0,0-2.45,4.6,16.55,16.55,0,0,0-.84,5.2v0a19.48,19.48,0,0,0,.78,5.57,13.37,13.37,0,0,0,2.37,4.65,11.24,11.24,0,0,0,4.07,3.17,13.24,13.24,0,0,0,5.73,1.17h.07a11.49,11.49,0,0,0,6.52-1.95Zm-7.21-21.45h.05a4.41,4.41,0,0,1,2.66.74,5.31,5.31,0,0,1,1.64,2,9.87,9.87,0,0,1,.81,2.85,23.76,23.76,0,0,1,.25,3H359.7a10.73,10.73,0,0,1,2-6.28,5.6,5.6,0,0,1,4.51-2.3" transform="translate(-174.64 -378.27)"/><path class="cls-1" d="M290.48,432a11.23,11.23,0,0,1-5,1.43h0a8.27,8.27,0,0,1-4-.89,7.29,7.29,0,0,1-2.68-2.43,11.21,11.21,0,0,1-1.56-3.73,21.08,21.08,0,0,1-.49-4.55h17.67v-2a15.72,15.72,0,0,0-.62-4.54,10.32,10.32,0,0,0-1.89-3.67,9.06,9.06,0,0,0-3.45-2.59,12.62,12.62,0,0,0-5.08-1h0a11.12,11.12,0,0,0-5.22,1.21,11.87,11.87,0,0,0-3.9,3.18,14.77,14.77,0,0,0-2.46,4.6,16.78,16.78,0,0,0-.83,5.2,0,0,0,0,0,0,0,19.58,19.58,0,0,0,.78,5.57,13.46,13.46,0,0,0,2.37,4.65,11.35,11.35,0,0,0,4.07,3.17,13.12,13.12,0,0,0,5.73,1.16H284a11.5,11.5,0,0,0,6.52-1.94Zm-7.22-21.45h.05a4.44,4.44,0,0,1,2.66.75,5.31,5.31,0,0,1,1.64,2,9.78,9.78,0,0,1,.81,2.85,23.47,23.47,0,0,1,.25,3H276.76a10.71,10.71,0,0,1,2-6.28,5.58,5.58,0,0,1,4.51-2.3" transform="translate(-174.64 -378.27)"/><path class="cls-1" d="M241.1,422.39a15.56,15.56,0,0,0-3.35-10.34,10.57,10.57,0,0,0-8.39-4h0a9.61,9.61,0,0,0-4,.92,11.36,11.36,0,0,0-3.56,2.56V396.3l-.43-.46-.07-.08-9.21.62v1.92a8.06,8.06,0,0,1,2.27.6,1.36,1.36,0,0,1,.32.16,2.29,2.29,0,0,1,.48.35,3.09,3.09,0,0,1,.79,1.1,4.54,4.54,0,0,1,.4,1.76h0v24.32c0,1.77,0,3.59,0,5.48s-.06,2.47-.13,3.81v.18H219l1.07-1.61a18.39,18.39,0,0,0,3.86,1.74,14.31,14.31,0,0,0,4.38.69h.08a11.8,11.8,0,0,0,8.87-4.18,14.63,14.63,0,0,0,3.85-10.3Zm-8.07,8.9a5.9,5.9,0,0,1-5.15,3.11h0a5.79,5.79,0,0,1-2.43-.45,6.59,6.59,0,0,1-1.78-1.21,7,7,0,0,1-1.25-1.6,6.55,6.55,0,0,1-.61-1.48V414.14a9.08,9.08,0,0,1,2.44-1.92,6.78,6.78,0,0,1,3.18-.73h0a6.14,6.14,0,0,1,3.46.95,7.48,7.48,0,0,1,2.34,2.5,11.74,11.74,0,0,1,1.33,3.58,20.44,20.44,0,0,1,.42,4.06v0c0,3.7-.68,6.59-2,8.69" transform="translate(-174.64 -378.27)"/><path class="cls-1" d="M268.29,422.38c0-4.23-1.12-7.69-3.35-10.34a10.53,10.53,0,0,0-8.39-4h0a9.63,9.63,0,0,0-4,.91,11.63,11.63,0,0,0-3.56,2.57V396.29l-.44-.47-.07-.07-9.21.61v1.92a8.32,8.32,0,0,1,2.27.6,2,2,0,0,1,.33.16,2,2,0,0,1,.47.36,2.93,2.93,0,0,1,.79,1.09,4.21,4.21,0,0,1,.4,1.77h0v24.32c0,1.76,0,3.59-.06,5.48s0,2.46-.12,3.81l0,.18h2.83l1.08-1.61a18.67,18.67,0,0,0,3.86,1.74,14.22,14.22,0,0,0,4.38.69h.07a11.86,11.86,0,0,0,8.88-4.18,14.68,14.68,0,0,0,3.85-10.31Zm-8.08,8.89a5.89,5.89,0,0,1-5.15,3.12h0a5.79,5.79,0,0,1-2.43-.46,6.85,6.85,0,0,1-1.79-1.2,6.75,6.75,0,0,1-1.24-1.61,6.94,6.94,0,0,1-.62-1.48V414.13a8.74,8.74,0,0,1,2.45-1.92,6.75,6.75,0,0,1,3.18-.73h0a6.11,6.11,0,0,1,3.46.95,7.26,7.26,0,0,1,2.34,2.49,11.46,11.46,0,0,1,1.33,3.59,20.37,20.37,0,0,1,.43,4.05v0c0,3.7-.68,6.6-2,8.69" transform="translate(-174.64 -378.27)"/><path class="cls-1" d="M389.24,433.88a3.09,3.09,0,0,1-.84-.18,6.22,6.22,0,0,1-1.14-.4,2,2,0,0,1-1-.85,2.91,2.91,0,0,1-.32-1.45h0V396.33l-.43-.47-.07-.07-9.18.61v2.07a6.94,6.94,0,0,1,2.57.83l.24.15a3.32,3.32,0,0,1,1,1.26,3.9,3.9,0,0,1,.4,1.75h0v28.84a2.81,2.81,0,0,1-.35,1.48,1.84,1.84,0,0,1-1,.78,6.15,6.15,0,0,1-1.11.19c-.48.05-.48.09-.89.12l-.19,0v2.2h12.55v-2.2Z" transform="translate(-174.64 -378.27)"/><path class="cls-1" d="M416.79,433.45a3,3,0,0,1-1.4-.54,2.91,2.91,0,0,1-1-1.05,3,3,0,0,1-.34-1.51h0v-34l-.46-.47-.07-.07-9.27.61v2.16c1,.11,2.65.53,3.18,1.2a3,3,0,0,1,.75,1.14,5.32,5.32,0,0,1,.37,2h0v6.72a13.8,13.8,0,0,0-2.84-1.07,14.47,14.47,0,0,0-3.71-.48h0a11.81,11.81,0,0,0-5,1.11,12.1,12.1,0,0,0-4.1,3,14.55,14.55,0,0,0-2.8,4.65,15.24,15.24,0,0,0-1,5.6s0,0,0,0a17.62,17.62,0,0,0,.95,5.89,14.22,14.22,0,0,0,2.56,4.58,11.12,11.12,0,0,0,3.76,2.93,10.12,10.12,0,0,0,4.48,1.05h.21a10,10,0,0,0,4.14-1,11.36,11.36,0,0,0,3.38-2.47v2.22l.41.38.07.07,8.81,0v-2.49Zm-8.24-2.84a11,11,0,0,1-2.3,2,6,6,0,0,1-3.45.92h0a6.21,6.21,0,0,1-3.38-.89,7.26,7.26,0,0,1-2.35-2.39,10.82,10.82,0,0,1-1.44-3.41,18.3,18.3,0,0,1-.42-4.09h0a22.11,22.11,0,0,1,.58-5.18,12.56,12.56,0,0,1,1.56-3.82,7.88,7.88,0,0,1,2.35-2.36,5.35,5.35,0,0,1,2.82-.81h.05a6.08,6.08,0,0,1,2.37.43,6.66,6.66,0,0,1,1.79,1.1,6.42,6.42,0,0,1,1.17,1.45,7,7,0,0,1,.67,1.45Z" transform="translate(-174.64 -378.27)"/><path class="cls-1" d="M197.37,390.54h-2.18l-.05.13Q192,398.82,188,409.26t-7.35,18.81a15.07,15.07,0,0,1-.71,1.54,7.89,7.89,0,0,1-1.2,1.87,3.29,3.29,0,0,1-.84.82,4,4,0,0,1-1.25.7,4.31,4.31,0,0,1-1.05.29,4.11,4.11,0,0,1-.73.13h-.2v2.63h6.25l5.69-15.39h15.68l3.61,9.83a3.06,3.06,0,0,1,.18.68v0c0,.16.07.3.09.41a1.37,1.37,0,0,1,0,.61s0,.08,0,.12a1.43,1.43,0,0,1-1.13.89h0l-2,.28v2.54h11.41v-.77Zm-9.67,26.93,6.74-16.89L201,417.47Z" transform="translate(-174.64 -378.27)"/><path class="cls-1" d="M311,427.36c1-2.56,2.17-5.3,3.39-8.2l4-9.59,0-1.23h-8.11v2.35l.29,0a6.87,6.87,0,0,1,2.23.72c.8.39,1.07.77,1.05,1a4,4,0,0,1-.33,1.44l-.54,1.44c-1.09,2.82-2.06,5.26-2.94,7.33q-1.14,2.71-2.21,5.26-1.12-2.9-3-7.35-2.08-5-3.11-7.71l-1.86-4.55h-6.15l3.63,8.88,2.77,6.72c1,2.48,2.11,5.2,3.3,8.16l1.3,3.25a30.71,30.71,0,0,1-2.65,5.25,12.26,12.26,0,0,1-2.84,3.54c-.15-.25-.34-.55-.56-.88a7.7,7.7,0,0,0-.91-1.16,4.35,4.35,0,0,0-1.19-.9,3.5,3.5,0,0,0-1.61-.36h0a2.73,2.73,0,0,0-2.1,1,3.55,3.55,0,0,0-.82,2.4h0a3.28,3.28,0,0,0,1.32,2.57,5.37,5.37,0,0,0,3.53,1.08h0a6,6,0,0,0,2.21-.42,7.81,7.81,0,0,0,2.36-1.6,18,18,0,0,0,2.67-3.42,51.7,51.7,0,0,0,3.07-6q1.3-2.91,3.81-9.09" transform="translate(-174.64 -378.27)"/><path class="cls-1" d="M350.73,401.7s-5.79-8.78-16.16-8.51-17.55,11-13.75,26.06c7.25,28.72-2,40.27-2.76,43.52s2,3.47,3.29,1.67,14.8-15.19,9.65-45.84c-4.42-26.3,14-18,18.59-14,1.2,1,3.26,0,1.14-2.89" transform="translate(-174.64 -378.27)"/><path class="cls-1" d="M333.26,407.14a4.71,4.71,0,0,1,4.17-4c6.6-.78,15,4.45,13.45,16.59-1.73,13.76,5.65,16.71,6.1,18.76.27,1.23-1.47,1-3.19.9s-14.19-1.54-11.91-16.87c1.56-10.59-1.78-17.84-6.95-14.44-.85.56-1.89.19-1.67-.94" transform="translate(-174.64 -378.27)"/><path class="cls-1" d="M352.43,387c.68,3.59-1.42,7-4.68,7.61s-6.44-1.81-7.12-5.4,1.42-7,4.68-7.61,6.45,1.8,7.12,5.4" transform="translate(-174.64 -378.27)"/></svg>