<svg id="Layer_1" data-name="Layer 1" xmlns="http://www.w3.org/2000/svg" xmlns:xlink="http://www.w3.org/1999/xlink" viewBox="0 0 81.95 16.68"><defs><style>.cls-1{fill:none;}.cls-2{clip-path:url(#clip-path);}.cls-3{fill:#1d1d1b;}</style><clipPath id="clip-path" transform="translate(-261.08 -431.48)"><rect class="cls-1" x="261.08" y="431.48" width="81.95" height="16.68"/></clipPath></defs><g class="cls-2"><path class="cls-3" d="M266,431.48c1.63,0,2.44.73,2.44,2.2,0,.81-.24,1.3-.73,1.46.49.16.73.65.73,1.46,0,1.47-.81,2.2-2.44,2.2h-4.88v-7.32Zm0,2.93c.65,0,1-.25,1-.73s-.41-.74-1.22-.74h-3.18v1.47Zm0,1.46h-3.42v1.47h3.18c.81,0,1.22-.25,1.22-.74s-.33-.73-1-.73" transform="translate(-261.08 -431.48)"/></g><path class="cls-3" d="M272.37,438.8h7.32v-1.46h-7.32Zm0-2.93h7.32v-1.46h-7.32Zm0-2.93h7.32v-1.46h-7.32Z" transform="translate(-261.08 -431.48)"/><g class="cls-2"><path class="cls-3" d="M286.1,435.87c-1.63,0-2.44-.73-2.44-2.19s.81-2.2,2.44-2.2H291v1.46h-4.64c-.81,0-1.22.25-1.22.74s.41.73,1.22.73h2.2c1.63,0,2.44.73,2.44,2.19s-.81,2.2-2.44,2.2h-4.88v-1.46h4.64c.81,0,1.22-.25,1.22-.74s-.41-.73-1.22-.73Z" transform="translate(-261.08 -431.48)"/></g><polygon class="cls-3" points="41.88 0 40.46 4.77 39.03 0 37.5 0 36.07 4.77 34.64 0 33.11 0 35.31 7.32 36.84 7.32 38.27 2.55 39.69 7.32 41.22 7.32 43.41 0 41.88 0"/><rect class="cls-3" x="46.62" width="1.47" height="7.32"/><g class="cls-2"><path class="cls-3" d="M320.45,437.34v1.46h-4.88a2.15,2.15,0,0,1-2.44-2.44v-2.44a2.15,2.15,0,0,1,2.44-2.44h4.88v1.46h-4.68a1,1,0,0,0-1.17,1.17v2.05a1,1,0,0,0,1.18,1.18Z" transform="translate(-261.08 -431.48)"/></g><polygon class="cls-3" points="68.48 0 64.81 3.31 64.81 0 63.34 0 63.34 7.32 64.81 7.32 64.81 4.02 68.48 7.32 70.66 7.32 66.6 3.66 70.66 0 68.48 0"/><g class="cls-2"><path class="cls-3" d="M338.15,435.87c-1.63,0-2.44-.73-2.44-2.19s.81-2.2,2.44-2.2H343v1.46h-4.64c-.81,0-1.22.25-1.22.74s.41.73,1.22.73h2.2c1.63,0,2.44.73,2.44,2.19s-.81,2.2-2.44,2.2h-4.88v-1.46h4.64c.81,0,1.22-.25,1.22-.74s-.41-.73-1.22-.73Z" transform="translate(-261.08 -431.48)"/><path class="cls-3" d="M272.83,445.23c-1.63,0-2.44-.74-2.44-2.2s.81-2.2,2.44-2.2h4.88v1.47h-4.64c-.81,0-1.22.24-1.22.73s.41.73,1.22.73h2.2c1.63,0,2.44.73,2.44,2.2s-.81,2.2-2.44,2.2h-4.88v-1.47H275c.82,0,1.23-.24,1.23-.73s-.41-.73-1.23-.73Z" transform="translate(-261.08 -431.48)"/><path class="cls-3" d="M283.14,448.16h-1.46v-7.33h4.88c1.63,0,2.44.74,2.44,2.2s-.81,2.2-2.44,2.2h-3.42Zm3.17-4.4c.82,0,1.23-.24,1.23-.73s-.41-.73-1.23-.73h-3.17v1.46Z" transform="translate(-261.08 -431.48)"/><path class="cls-3" d="M297.85,448.16h-2.44a2.17,2.17,0,0,1-2.45-2.44v-2.45a2.17,2.17,0,0,1,2.45-2.44h2.44a2.16,2.16,0,0,1,2.44,2.44v2.45a2.16,2.16,0,0,1-2.44,2.44m-.25-1.47a1.07,1.07,0,0,0,1.22-1.22v-2a1.07,1.07,0,0,0-1.22-1.22h-2.19c-.66,0-1,.4-1,1.22v2a1.08,1.08,0,0,0,1.22,1.22Z" transform="translate(-261.08 -431.48)"/><path class="cls-3" d="M306.43,445.23h-2.18v-1.47h4.64c.82,0,1.22-.24,1.22-.73s-.4-.73-1.22-.73h-4.64v-1.47h4.89c1.62,0,2.44.74,2.44,2.2s-.82,2.2-2.44,2.2h-.46l3.44,2.93h-2.25Z" transform="translate(-261.08 -431.48)"/></g><polygon class="cls-3" points="54.46 9.36 54.47 10.82 57.39 10.82 57.39 16.68 58.86 16.68 58.86 10.82 61.79 10.82 61.79 9.36 54.46 9.36"/><g class="cls-2"><path class="cls-3" d="M329.27,445.23c-1.62,0-2.44-.74-2.44-2.2s.82-2.2,2.44-2.2h4.89v1.47h-4.64c-.82,0-1.22.24-1.22.73s.4.73,1.22.73h2.19c1.63,0,2.45.73,2.45,2.2s-.82,2.2-2.45,2.2h-4.88v-1.47h4.64c.81,0,1.22-.24,1.22-.73s-.41-.73-1.22-.73Z" transform="translate(-261.08 -431.48)"/></g></svg>