<?xml version="1.0" encoding="utf-8"?>
<!-- Generator: Adobe Illustrator 25.0.1, SVG Export Plug-In . SVG Version: 6.00 Build 0)  -->
<svg version="1.1" id="Layer_1" xmlns="http://www.w3.org/2000/svg" xmlns:xlink="http://www.w3.org/1999/xlink" x="0px" y="0px"
	 viewBox="0 0 269.3 269.3" style="enable-background:new 0 0 269.3 269.3;" xml:space="preserve">
<style type="text/css">
	.st0{clip-path:url(#SVGID_2_);fill:none;stroke:#CF30BA;stroke-width:5.5653;stroke-miterlimit:10;}
	.st1{fill:none;stroke:#CF30BA;stroke-width:5.5653;stroke-miterlimit:10;}
</style>
<g>
	<g>
		<defs>
			<rect id="SVGID_1_" x="48.1" y="25.6" width="173.1" height="218.2"/>
		</defs>
		<clipPath id="SVGID_2_">
			<use xlink:href="#SVGID_1_"  style="overflow:visible;"/>
		</clipPath>
		<path class="st0" d="M63.7,117h-2c-5.9,0-10.8,4.9-10.8,11v102c0,6,4.9,11,10.8,11h145.9c5.9,0,10.8-4.9,10.8-11V128
			c0-6-4.9-11-10.8-11h-4.3"/>
		<path class="st0" d="M174.3,185.6l38.6,50.3 M95,185.6l-38.6,50.3"/>
		<path class="st0" d="M103.3,30.7V69H80.2 M205.5,128V40.5c0-6.7-5.5-12.2-12.3-12.2H97L62.6,57.8v72"/>
		<polyline class="st0" points="53.7,121.3 134.6,186.6 213,121.6 		"/>
	</g>
	<path class="st1" d="M103.4,103.6h62.6 M103.4,133.2h62.6"/>
</g>
</svg>
