<?xml version="1.0" encoding="utf-8"?>
<!-- Generator: Adobe Illustrator 25.0.1, SVG Export Plug-In . SVG Version: 6.00 Build 0)  -->
<svg version="1.1" id="Layer_1" xmlns="http://www.w3.org/2000/svg" xmlns:xlink="http://www.w3.org/1999/xlink" x="0px" y="0px"
	 viewBox="0 0 269.3 269.3" style="enable-background:new 0 0 269.3 269.3;" xml:space="preserve">
<style type="text/css">
	.st0{clip-path:url(#SVGID_2_);fill:#CF30BA;}
	.st1{fill:#CF30BA;}
	.st2{clip-path:url(#SVGID_4_);fill:#CF30BA;}
	.st3{clip-path:url(#SVGID_6_);fill:#CF30BA;}
</style>
<g>
	<g>
		<defs>
			<rect id="SVGID_1_" x="40.2" y="40.2" width="188.8" height="188.8"/>
		</defs>
		<clipPath id="SVGID_2_">
			<use xlink:href="#SVGID_1_"  style="overflow:visible;"/>
		</clipPath>
		<path class="st0" d="M71.2,46.4c-1.7,0-3.1,1.4-3.1,3.1v18.6c0,1.7,1.4,3.1,3.1,3.1s3.1-1.4,3.1-3.1V49.5
			C74.3,47.8,72.9,46.4,71.2,46.4 M71.2,77.4c-5.1,0-9.3-4.2-9.3-9.3V49.5c0-5.1,4.2-9.3,9.3-9.3c5.1,0,9.3,4.2,9.3,9.3v18.6
			C80.5,73.2,76.3,77.4,71.2,77.4"/>
		<path class="st0" d="M105.2,46.4c-1.7,0-3.1,1.4-3.1,3.1v18.6c0,1.7,1.4,3.1,3.1,3.1c1.7,0,3.1-1.4,3.1-3.1V49.5
			C108.3,47.8,106.9,46.4,105.2,46.4 M105.2,77.4c-5.1,0-9.3-4.2-9.3-9.3V49.5c0-5.1,4.2-9.3,9.3-9.3c5.1,0,9.3,4.2,9.3,9.3v18.6
			C114.5,73.2,110.4,77.4,105.2,77.4"/>
		<path class="st0" d="M142.4,46.4c-1.7,0-3.1,1.4-3.1,3.1v18.6c0,1.7,1.4,3.1,3.1,3.1c1.7,0,3.1-1.4,3.1-3.1V49.5
			C145.5,47.8,144.1,46.4,142.4,46.4 M142.4,77.4c-5.1,0-9.3-4.2-9.3-9.3V49.5c0-5.1,4.2-9.3,9.3-9.3s9.3,4.2,9.3,9.3v18.6
			C151.7,73.2,147.5,77.4,142.4,77.4"/>
		<path class="st0" d="M176.4,46.4c-1.7,0-3.1,1.4-3.1,3.1v18.6c0,1.7,1.4,3.1,3.1,3.1c1.7,0,3.1-1.4,3.1-3.1V49.5
			C179.5,47.8,178.2,46.4,176.4,46.4 M176.4,77.4c-5.1,0-9.3-4.2-9.3-9.3V49.5c0-5.1,4.2-9.3,9.3-9.3c5.1,0,9.3,4.2,9.3,9.3v18.6
			C185.7,73.2,181.6,77.4,176.4,77.4"/>
	</g>
	<rect x="77.4" y="55.7" class="st1" width="21.7" height="6.2"/>
	<rect x="148.6" y="55.7" class="st1" width="21.7" height="6.2"/>
	<g>
		<defs>
			<rect id="SVGID_3_" x="40.2" y="40.2" width="188.8" height="188.8"/>
		</defs>
		<clipPath id="SVGID_4_">
			<use xlink:href="#SVGID_3_"  style="overflow:visible;"/>
		</clipPath>
		<path class="st2" d="M161.6,210.5H55.7c-8.5,0-15.5-6.9-15.5-15.5V71.2c0-8.5,6.9-15.5,15.5-15.5H65v6.2h-9.3
			c-5.1,0-9.3,4.2-9.3,9.3V195c0,5.1,4.2,9.3,9.3,9.3h105.9V210.5z"/>
		<path class="st2" d="M207.4,160.2h-6.2v-89c0-5.1-4.2-9.3-9.3-9.3h-9.3v-6.2h9.3c8.5,0,15.5,6.9,15.5,15.5V160.2z"/>
	</g>
	<rect x="111.4" y="55.7" class="st1" width="24.8" height="6.2"/>
	<rect x="43.3" y="86.7" class="st1" width="161" height="6.2"/>
	<g>
		<defs>
			<rect id="SVGID_5_" x="40.2" y="40.2" width="188.8" height="188.8"/>
		</defs>
		<clipPath id="SVGID_6_">
			<use xlink:href="#SVGID_5_"  style="overflow:visible;"/>
		</clipPath>
		<path class="st3" d="M191.9,161c-17.1,0-31,13.9-31,31c0,17.1,13.9,31,31,31s31-13.9,31-31C222.9,174.9,209,161,191.9,161
			 M191.9,229.1c-20.5,0-37.1-16.7-37.1-37.1c0-20.5,16.7-37.2,37.1-37.2c20.5,0,37.1,16.7,37.1,37.2
			C229.1,212.4,212.4,229.1,191.9,229.1"/>
		<path class="st3" d="M198.1,191.9c0,3.4-2.8,6.2-6.2,6.2c-3.4,0-6.2-2.8-6.2-6.2c0-3.4,2.8-6.2,6.2-6.2
			C195.3,185.7,198.1,188.5,198.1,191.9"/>
		<path class="st3" d="M178.4,206.7l-3.9-4.8l14.3-11.5v-23.3h6.2v24.8c0,0.9-0.4,1.8-1.2,2.4L178.4,206.7z"/>
		<path class="st3" d="M65,120.7h12.4v-12.4H65V120.7z M80.5,126.9H61.9c-1.7,0-3.1-1.4-3.1-3.1v-18.6c0-1.7,1.4-3.1,3.1-3.1h18.6
			c1.7,0,3.1,1.4,3.1,3.1v18.6C83.6,125.5,82.2,126.9,80.5,126.9"/>
		<path class="st3" d="M99,120.7h12.4v-12.4H99V120.7z M114.5,126.9H96c-1.7,0-3.1-1.4-3.1-3.1v-18.6c0-1.7,1.4-3.1,3.1-3.1h18.6
			c1.7,0,3.1,1.4,3.1,3.1v18.6C117.6,125.5,116.2,126.9,114.5,126.9"/>
		<path class="st3" d="M133.1,120.7h12.4v-12.4h-12.4V120.7z M148.6,126.9H130c-1.7,0-3.1-1.4-3.1-3.1v-18.6c0-1.7,1.4-3.1,3.1-3.1
			h18.6c1.7,0,3.1,1.4,3.1,3.1v18.6C151.7,125.5,150.3,126.9,148.6,126.9"/>
		<path class="st3" d="M167.2,120.7h12.4v-12.4h-12.4V120.7z M182.6,126.9h-18.6c-1.7,0-3.1-1.4-3.1-3.1v-18.6
			c0-1.7,1.4-3.1,3.1-3.1h18.6c1.7,0,3.1,1.4,3.1,3.1v18.6C185.7,125.5,184.3,126.9,182.6,126.9"/>
		<path class="st3" d="M65,154.8h12.4v-12.4H65V154.8z M80.5,161H61.9c-1.7,0-3.1-1.4-3.1-3.1v-18.6c0-1.7,1.4-3.1,3.1-3.1h18.6
			c1.7,0,3.1,1.4,3.1,3.1v18.6C83.6,159.6,82.2,161,80.5,161"/>
		<path class="st3" d="M99,154.8h12.4v-12.4H99V154.8z M114.5,161H96c-1.7,0-3.1-1.4-3.1-3.1v-18.6c0-1.7,1.4-3.1,3.1-3.1h18.6
			c1.7,0,3.1,1.4,3.1,3.1v18.6C117.6,159.6,116.2,161,114.5,161"/>
		<path class="st3" d="M133.1,154.8h12.4v-12.4h-12.4V154.8z M148.6,161H130c-1.7,0-3.1-1.4-3.1-3.1v-18.6c0-1.7,1.4-3.1,3.1-3.1
			h18.6c1.7,0,3.1,1.4,3.1,3.1v18.6C151.7,159.6,150.3,161,148.6,161"/>
		<path class="st3" d="M167.2,154.8h12.4v-12.4h-12.4V154.8z M182.6,161h-18.6c-1.7,0-3.1-1.4-3.1-3.1v-18.6c0-1.7,1.4-3.1,3.1-3.1
			h18.6c1.7,0,3.1,1.4,3.1,3.1v18.6C185.7,159.6,184.3,161,182.6,161"/>
		<path class="st3" d="M65,188.8h12.4v-12.4H65V188.8z M80.5,195H61.9c-1.7,0-3.1-1.4-3.1-3.1v-18.6c0-1.7,1.4-3.1,3.1-3.1h18.6
			c1.7,0,3.1,1.4,3.1,3.1v18.6C83.6,193.6,82.2,195,80.5,195"/>
		<path class="st3" d="M99,188.8h12.4v-12.4H99V188.8z M114.5,195H96c-1.7,0-3.1-1.4-3.1-3.1v-18.6c0-1.7,1.4-3.1,3.1-3.1h18.6
			c1.7,0,3.1,1.4,3.1,3.1v18.6C117.6,193.6,116.2,195,114.5,195"/>
		<path class="st3" d="M133.1,188.8h12.4v-12.4h-12.4V188.8z M148.6,195H130c-1.7,0-3.1-1.4-3.1-3.1v-18.6c0-1.7,1.4-3.1,3.1-3.1
			h18.6c1.7,0,3.1,1.4,3.1,3.1v18.6C151.7,193.6,150.3,195,148.6,195"/>
	</g>
</g>
</svg>
