<?xml version="1.0" encoding="utf-8"?>
<!-- Generator: Adobe Illustrator 25.0.1, SVG Export Plug-In . SVG Version: 6.00 Build 0)  -->
<svg version="1.1" id="Layer_1" xmlns="http://www.w3.org/2000/svg" xmlns:xlink="http://www.w3.org/1999/xlink" x="0px" y="0px"
	 viewBox="0 0 269.3 269.3" style="enable-background:new 0 0 269.3 269.3;" xml:space="preserve">
<style type="text/css">
	.st0{clip-path:url(#SVGID_2_);fill:#CF30BA;}
	.st1{clip-path:url(#SVGID_2_);fill:none;stroke:#CF30BA;stroke-width:0.2639;stroke-miterlimit:10;}
</style>
<g>
	<g>
		<defs>
			<rect id="SVGID_1_" x="40.1" y="35.3" width="189" height="198.7"/>
		</defs>
		<clipPath id="SVGID_2_">
			<use xlink:href="#SVGID_1_"  style="overflow:visible;"/>
		</clipPath>
		<path class="st0" d="M59.4,78.1L85.6,100l-26.2,35.3V78.1z M114.7,60.8L88.4,96.3L62,74.4L114.7,60.8z M118.1,121.1L91.9,99.2
			l26.2-35.3V121.1z M62.8,138.4l26.3-35.5l26.3,21.9L62.8,138.4z M54.9,142.7c0,0,0,0.1,0,0.1c0,0.1,0.1,0.3,0.2,0.4c0,0,0,0,0,0.1
			c0,0.1,0.1,0.1,0.1,0.2c0,0,0,0,0.1,0.1c0.1,0.1,0.1,0.2,0.2,0.2c0.1,0.1,0.1,0.1,0.2,0.2c0,0,0,0,0.1,0.1
			c0.1,0.1,0.2,0.2,0.3,0.2c0,0,0,0,0,0c0.1,0.1,0.3,0.1,0.4,0.2c0,0,0.1,0,0.1,0c0.2,0,0.3,0.1,0.5,0.1c0.2,0,0.4,0,0.6-0.1
			l63.2-16.3c0.2,0,0.4-0.1,0.5-0.2c0,0,0.1,0,0.1,0c0.2-0.1,0.3-0.2,0.4-0.3c0,0,0,0,0.1-0.1c0.1-0.1,0.2-0.3,0.3-0.4c0,0,0,0,0,0
			c0.1-0.2,0.2-0.3,0.2-0.5c0,0,0,0,0-0.1c0,0,0,0,0-0.1c0,0,0-0.1,0-0.1c0-0.1,0-0.2,0-0.2c0,0,0,0,0-0.1V57c0-0.7-0.3-1.4-0.9-1.8
			c-0.6-0.4-1.3-0.6-2-0.4L56.6,71c-1,0.3-1.7,1.2-1.7,2.2v69c0,0,0,0,0,0.1C54.9,142.4,54.9,142.5,54.9,142.7 M224.5,206.2
			l-5.6-1.4V68.9c0-0.9-0.6-1.8-1.5-2.1l-43.7-16.7l50.8,13.1V206.2z M214.3,213.3l-5-1.8V76.4c0-0.8-0.5-1.6-1.2-2l-40.7-21.8
			l46.8,17.8V213.3z M204.8,220.3l-6.3-3.3V83.9c0-0.7-0.3-1.4-0.9-1.8l-37.7-28.3l44.8,24V220.3z M193.9,227.1l-56.9-42V42.3
			L193.9,85V227.1z M132.3,183.7l-87.5,22.5v-143l87.5-22.5V183.7z M227.3,59.2l-91.7-23.6l0,0c0,0,0,0,0,0c-0.1,0-0.2-0.1-0.3-0.1
			c0,0,0,0,0,0c-0.1,0-0.1,0-0.2,0c0,0,0,0-0.1,0c-0.1,0-0.2,0-0.2,0c0,0,0,0-0.1,0c0,0,0,0,0,0c0,0,0,0-0.1,0c-0.2,0-0.4,0-0.6,0.1
			L42,59.2c-1,0.3-1.7,1.2-1.7,2.2v147.7c0,0.7,0.3,1.4,0.9,1.8c0.4,0.3,0.9,0.5,1.4,0.5c0.2,0,0.4,0,0.6-0.1l90.3-23.2
			c0.1,0.1,0.2,0.1,0.3,0.2l61.2,45.2c0.4,0.3,0.9,0.4,1.4,0.4c0.4,0,0.7-0.1,1-0.2c0.8-0.4,1.3-1.2,1.3-2v-9.4l7.5,3.9
			c0.3,0.2,0.7,0.3,1.1,0.3c0.4,0,0.8-0.1,1.2-0.3c0.7-0.4,1.1-1.2,1.1-2v-7.7l6.4,2.4c0.3,0.1,0.5,0.1,0.8,0.1
			c0.5,0,0.9-0.1,1.3-0.4c0.6-0.4,1-1.1,1-1.9v-7.1l7.3,1.8c0.2,0,0.4,0.1,0.6,0.1c0.5,0,1-0.2,1.4-0.5c0.6-0.4,0.9-1.1,0.9-1.8
			V61.4C229,60.3,228.3,59.4,227.3,59.2 M119.8,167.2l-63.2,16.3c-1.2,0.3-2,1.6-1.6,2.8c0.3,1,1.2,1.7,2.2,1.7c0.2,0,0.4,0,0.6-0.1
			l63.2-16.3c1.2-0.3,2-1.6,1.6-2.8C122.3,167.6,121,166.9,119.8,167.2 M119.8,154.8l-63.2,16.3c-1.2,0.3-2,1.6-1.6,2.8
			c0.3,1,1.2,1.7,2.2,1.7c0.2,0,0.4,0,0.6-0.1l63.2-16.3c1.2-0.3,2-1.6,1.6-2.8C122.3,155.3,121,154.5,119.8,154.8"/>
		<path class="st1" d="M59.4,78.1L85.6,100l-26.2,35.3V78.1z M114.7,60.8L88.4,96.3L62,74.4L114.7,60.8z M118.1,121.1L91.9,99.2
			l26.2-35.3V121.1z M62.8,138.4l26.3-35.5l26.3,21.9L62.8,138.4z M54.9,142.7c0,0,0,0.1,0,0.1c0,0.1,0.1,0.3,0.2,0.4c0,0,0,0,0,0.1
			c0,0.1,0.1,0.1,0.1,0.2c0,0,0,0,0.1,0.1c0.1,0.1,0.1,0.2,0.2,0.2c0.1,0.1,0.1,0.1,0.2,0.2c0,0,0,0,0.1,0.1
			c0.1,0.1,0.2,0.2,0.3,0.2c0,0,0,0,0,0c0.1,0.1,0.3,0.1,0.4,0.2c0,0,0.1,0,0.1,0c0.2,0,0.3,0.1,0.5,0.1c0.2,0,0.4,0,0.6-0.1
			l63.2-16.3c0.2,0,0.4-0.1,0.5-0.2c0,0,0.1,0,0.1,0c0.2-0.1,0.3-0.2,0.4-0.3c0,0,0,0,0.1-0.1c0.1-0.1,0.2-0.3,0.3-0.4c0,0,0,0,0,0
			c0.1-0.2,0.2-0.3,0.2-0.5c0,0,0,0,0-0.1c0,0,0,0,0-0.1c0,0,0-0.1,0-0.1c0-0.1,0-0.2,0-0.2c0,0,0,0,0-0.1V57c0-0.7-0.3-1.4-0.9-1.8
			c-0.6-0.4-1.3-0.6-2-0.4L56.6,71c-1,0.3-1.7,1.2-1.7,2.2v69c0,0,0,0,0,0.1C54.9,142.4,54.9,142.5,54.9,142.7z M224.5,206.2
			l-5.6-1.4V68.9c0-0.9-0.6-1.8-1.5-2.1l-43.7-16.7l50.8,13.1V206.2z M214.3,213.3l-5-1.8V76.4c0-0.8-0.5-1.6-1.2-2l-40.7-21.8
			l46.8,17.8V213.3z M204.8,220.3l-6.3-3.3V83.9c0-0.7-0.3-1.4-0.9-1.8l-37.7-28.3l44.8,24V220.3z M193.9,227.1l-56.9-42V42.3
			L193.9,85V227.1z M132.3,183.7l-87.5,22.5v-143l87.5-22.5V183.7z M227.3,59.2l-91.7-23.6l0,0c0,0,0,0,0,0c-0.1,0-0.2-0.1-0.3-0.1
			c0,0,0,0,0,0c-0.1,0-0.1,0-0.2,0c0,0,0,0-0.1,0c-0.1,0-0.2,0-0.2,0c0,0,0,0-0.1,0c0,0,0,0,0,0c0,0,0,0-0.1,0c-0.2,0-0.4,0-0.6,0.1
			L42,59.2c-1,0.3-1.7,1.2-1.7,2.2v147.7c0,0.7,0.3,1.4,0.9,1.8c0.4,0.3,0.9,0.5,1.4,0.5c0.2,0,0.4,0,0.6-0.1l90.3-23.2
			c0.1,0.1,0.2,0.1,0.3,0.2l61.2,45.2c0.4,0.3,0.9,0.4,1.4,0.4c0.4,0,0.7-0.1,1-0.2c0.8-0.4,1.3-1.2,1.3-2v-9.4l7.5,3.9
			c0.3,0.2,0.7,0.3,1.1,0.3c0.4,0,0.8-0.1,1.2-0.3c0.7-0.4,1.1-1.2,1.1-2v-7.7l6.4,2.4c0.3,0.1,0.5,0.1,0.8,0.1
			c0.5,0,0.9-0.1,1.3-0.4c0.6-0.4,1-1.1,1-1.9v-7.1l7.3,1.8c0.2,0,0.4,0.1,0.6,0.1c0.5,0,1-0.2,1.4-0.5c0.6-0.4,0.9-1.1,0.9-1.8
			V61.4C229,60.3,228.3,59.4,227.3,59.2z M119.8,167.2l-63.2,16.3c-1.2,0.3-2,1.6-1.6,2.8c0.3,1,1.2,1.7,2.2,1.7
			c0.2,0,0.4,0,0.6-0.1l63.2-16.3c1.2-0.3,2-1.6,1.6-2.8C122.3,167.6,121,166.9,119.8,167.2z M119.8,154.8l-63.2,16.3
			c-1.2,0.3-2,1.6-1.6,2.8c0.3,1,1.2,1.7,2.2,1.7c0.2,0,0.4,0,0.6-0.1l63.2-16.3c1.2-0.3,2-1.6,1.6-2.8
			C122.3,155.3,121,154.5,119.8,154.8z"/>
	</g>
</g>
</svg>
