<?xml version="1.0" encoding="utf-8"?>
<!-- Generator: Adobe Illustrator 25.0.1, SVG Export Plug-In . SVG Version: 6.00 Build 0)  -->
<svg version="1.1" id="Layer_1" xmlns="http://www.w3.org/2000/svg" xmlns:xlink="http://www.w3.org/1999/xlink" x="0px" y="0px"
	 viewBox="0 0 269.3 269.3" style="enable-background:new 0 0 269.3 269.3;" xml:space="preserve">
<style type="text/css">
	.st0{clip-path:url(#SVGID_2_);fill:#CF30BA;}
	.st1{clip-path:url(#SVGID_4_);fill:#CF30BA;}
	.st2{clip-path:url(#SVGID_6_);fill:#CF30BA;}
	.st3{clip-path:url(#SVGID_8_);fill:#CF30BA;}
	.st4{clip-path:url(#SVGID_10_);fill:#CF30BA;}
	.st5{clip-path:url(#SVGID_12_);fill:#CF30BA;}
	.st6{clip-path:url(#SVGID_14_);fill:#CF30BA;}
	.st7{clip-path:url(#SVGID_16_);}
	.st8{fill:#CF30BA;}
	.st9{clip-path:url(#SVGID_18_);}
	.st10{clip-path:url(#SVGID_20_);}
	.st11{clip-path:url(#SVGID_22_);}
	.st12{clip-path:url(#SVGID_24_);}
	.st13{clip-path:url(#SVGID_26_);}
	.st14{clip-path:url(#SVGID_28_);}
	.st15{clip-path:url(#SVGID_30_);}
</style>
<g>
	<defs>
		<rect id="SVGID_1_" x="27.8" y="25.9" width="213.8" height="217.5"/>
	</defs>
	<clipPath id="SVGID_2_">
		<use xlink:href="#SVGID_1_"  style="overflow:visible;"/>
	</clipPath>
	<path class="st0" d="M176.7,141.4h6.3V73c0-2.3,1.8-4.1,4.1-4.1s4.1,1.8,4.1,4.1v53.9h6.3V73c0-5.7-4.7-10.4-10.4-10.4
		s-10.4,4.7-10.4,10.4V141.4z"/>
</g>
<g>
	<defs>
		<rect id="SVGID_3_" x="27.8" y="25.9" width="213.8" height="217.5"/>
	</defs>
	<clipPath id="SVGID_4_">
		<use xlink:href="#SVGID_3_"  style="overflow:visible;"/>
	</clipPath>
	<path class="st1" d="M205.7,126.9h6.3v-17.6c0-5.7-4.7-10.4-10.4-10.4s-10.4,4.7-10.4,10.4v17.6h6.3v-17.6c0-2.3,1.8-4.1,4.1-4.1
		s4.1,1.8,4.1,4.1V126.9z"/>
</g>
<g>
	<defs>
		<rect id="SVGID_5_" x="27.8" y="25.9" width="213.8" height="217.5"/>
	</defs>
	<clipPath id="SVGID_6_">
		<use xlink:href="#SVGID_5_"  style="overflow:visible;"/>
	</clipPath>
	<path class="st2" d="M220.2,126.9h6.3v-17.6c0-5.7-4.7-10.4-10.4-10.4s-10.4,4.7-10.4,10.4v17.6h6.3v-17.6c0-2.3,1.8-4.1,4.1-4.1
		s4.1,1.8,4.1,4.1V126.9z"/>
</g>
<g>
	<defs>
		<rect id="SVGID_7_" x="27.8" y="25.9" width="213.8" height="217.5"/>
	</defs>
	<clipPath id="SVGID_8_">
		<use xlink:href="#SVGID_7_"  style="overflow:visible;"/>
	</clipPath>
	<path class="st3" d="M177.1,118.4l-14.2,17.7c-0.4,0.6-0.7,1.3-0.7,2v21.8c0,0.8,0.3,1.6,1,2.2l10.9,10.9c0.6,0.6,1.4,1,2.2,1h54.4
		c0.8,0,1.6-0.3,2.2-0.8l7.3-7.3c0.6-0.6,1-1.4,1-2.2v-54.4c0-5.7-4.7-10.4-10.4-10.4s-10.4,4.7-10.4,10.4v17.6h6.3v-17.6
		c0-2.3,1.8-4.1,4.1-4.1s4.1,1.8,4.1,4.1v53.1l-5.4,5.4h-51.8l-9.1-9.1v-19.4l13.5-17L177.1,118.4z"/>
</g>
<g>
	<defs>
		<rect id="SVGID_9_" x="27.8" y="25.9" width="213.8" height="217.5"/>
	</defs>
	<clipPath id="SVGID_10_">
		<use xlink:href="#SVGID_9_"  style="overflow:visible;"/>
	</clipPath>
	<path class="st4" d="M176.3,167.8c-1.7,0-3.1,1.4-3.1,3.1v14.5c0,1.7,1.4,3.1,3.1,3.1h54.4c1.7,0,3.1-1.4,3.1-3.1v-14.5
		c0-1.7-1.4-3.1-3.1-3.1H176.3z M227.5,182.3h-48.1V174h48.1V182.3z"/>
</g>
<g>
	<defs>
		<rect id="SVGID_11_" x="27.8" y="25.9" width="213.8" height="217.5"/>
	</defs>
	<clipPath id="SVGID_12_">
		<use xlink:href="#SVGID_11_"  style="overflow:visible;"/>
	</clipPath>
	<path class="st5" d="M28.3,202.2l6,1.7l20-69.6L79.6,169c0.7,1,1.8,1.5,3,1.3c1.2-0.2,2.2-0.9,2.5-2.1l26.6-79.9l14.7,29.5
		c0.5,1,1.4,1.6,2.6,1.7c1.1,0.1,2.1-0.4,2.7-1.4l57.7-86.6l-5.2-3.4l-54.7,82.1L114,78.8c-0.6-1.2-1.8-1.8-3-1.7
		c-1.3,0.1-2.3,0.9-2.8,2.2l-27.1,81.2l-25.5-35c-0.7-0.9-1.9-1.4-3.1-1.2c-1.2,0.3-2.1,1.1-2.5,2.3L28.3,202.2z"/>
	<use xlink:href="#SVGID_11_"  style="overflow:visible;fill:none;stroke:#FFFFFF;stroke-miterlimit:10;"/>
</g>
<g>
	<defs>
		<rect id="SVGID_13_" x="27.8" y="25.9" width="213.8" height="217.5"/>
	</defs>
	<clipPath id="SVGID_14_">
		<use xlink:href="#SVGID_13_"  style="overflow:visible;"/>
	</clipPath>
	<path class="st6" d="M190.8,54.9h-7.3V34.3l-20.8,5.9l-2-7l25.4-7.3c1.1-0.3,2.3-0.1,3.2,0.6s1.4,1.8,1.4,2.9v25.5H190.8z"/>
</g>
<g>
	<defs>
		<rect id="SVGID_15_" x="27.8" y="25.9" width="213.8" height="217.5"/>
	</defs>
	<clipPath id="SVGID_16_">
		<use xlink:href="#SVGID_15_"  style="overflow:visible;"/>
	</clipPath>
	<g class="st7">
		<path class="st8" d="M49.4,214.9c-1.7,0-3.1,1.4-3.1,3.1v21.8c0,1.7,1.4,3.1,3.1,3.1h14.5c1.7,0,3.1-1.4,3.1-3.1V218
			c0-1.7-1.4-3.1-3.1-3.1H49.4z M60.8,236.7h-8.3v-15.5h8.3V236.7z"/>
	</g>
</g>
<g>
	<defs>
		<rect id="SVGID_17_" x="27.8" y="25.9" width="213.8" height="217.5"/>
	</defs>
	<clipPath id="SVGID_18_">
		<use xlink:href="#SVGID_17_"  style="overflow:visible;"/>
	</clipPath>
	<g class="st9">
		<path class="st8" d="M63.9,193.2c-1.7,0-3.1,1.4-3.1,3.1v43.5c0,1.7,1.4,3.1,3.1,3.1h14.5c1.7,0,3.1-1.4,3.1-3.1v-43.5
			c0-1.7-1.4-3.1-3.1-3.1H63.9z M75.3,236.7H67v-37.3h8.3V236.7z"/>
	</g>
</g>
<g>
	<defs>
		<rect id="SVGID_19_" x="27.8" y="25.9" width="213.8" height="217.5"/>
	</defs>
	<clipPath id="SVGID_20_">
		<use xlink:href="#SVGID_19_"  style="overflow:visible;"/>
	</clipPath>
	<g class="st10">
		<path class="st8" d="M78.4,204.1c-1.7,0-3.1,1.4-3.1,3.1v32.6c0,1.7,1.4,3.1,3.1,3.1h14.5c1.7,0,3.1-1.4,3.1-3.1v-32.6
			c0-1.7-1.4-3.1-3.1-3.1H78.4z M89.8,236.7h-8.3v-26.4h8.3V236.7z"/>
	</g>
</g>
<g>
	<defs>
		<rect id="SVGID_21_" x="27.8" y="25.9" width="213.8" height="217.5"/>
	</defs>
	<clipPath id="SVGID_22_">
		<use xlink:href="#SVGID_21_"  style="overflow:visible;"/>
	</clipPath>
	<g class="st11">
		<path class="st8" d="M150.9,196.8c-1.7,0-3.1,1.4-3.1,3.1v39.9c0,1.7,1.4,3.1,3.1,3.1h14.5c1.7,0,3.1-1.4,3.1-3.1v-39.9
			c0-1.7-1.4-3.1-3.1-3.1H150.9z M162.3,236.7H154v-33.6h8.3V236.7z"/>
	</g>
</g>
<g>
	<defs>
		<rect id="SVGID_23_" x="27.8" y="25.9" width="213.8" height="217.5"/>
	</defs>
	<clipPath id="SVGID_24_">
		<use xlink:href="#SVGID_23_"  style="overflow:visible;"/>
	</clipPath>
	<g class="st12">
		<path class="st8" d="M92.9,175.1c-1.7,0-3.1,1.4-3.1,3.1v61.6c0,1.7,1.4,3.1,3.1,3.1h14.5c1.7,0,3.1-1.4,3.1-3.1v-61.6
			c0-1.7-1.4-3.1-3.1-3.1H92.9z M104.3,236.7H96v-55.4h8.3V236.7z"/>
	</g>
</g>
<g>
	<defs>
		<rect id="SVGID_25_" x="27.8" y="25.9" width="213.8" height="217.5"/>
	</defs>
	<clipPath id="SVGID_26_">
		<use xlink:href="#SVGID_25_"  style="overflow:visible;"/>
	</clipPath>
	<g class="st13">
		<path class="st8" d="M136.4,175.1c-1.7,0-3.1,1.4-3.1,3.1v61.6c0,1.7,1.4,3.1,3.1,3.1h14.5c1.7,0,3.1-1.4,3.1-3.1v-61.6
			c0-1.7-1.4-3.1-3.1-3.1H136.4z M147.8,236.7h-8.3v-55.4h8.3V236.7z"/>
	</g>
</g>
<g>
	<defs>
		<rect id="SVGID_27_" x="27.8" y="25.9" width="213.8" height="217.5"/>
	</defs>
	<clipPath id="SVGID_28_">
		<use xlink:href="#SVGID_27_"  style="overflow:visible;"/>
	</clipPath>
	<g class="st14">
		<path class="st8" d="M107.4,182.3c-1.7,0-3.1,1.4-3.1,3.1v54.4c0,1.7,1.4,3.1,3.1,3.1h14.5c1.7,0,3.1-1.4,3.1-3.1v-54.4
			c0-1.7-1.4-3.1-3.1-3.1H107.4z M118.8,236.7h-8.3v-48.2h8.3V236.7z"/>
	</g>
</g>
<g>
	<defs>
		<rect id="SVGID_29_" x="27.8" y="25.9" width="213.8" height="217.5"/>
	</defs>
	<clipPath id="SVGID_30_">
		<use xlink:href="#SVGID_29_"  style="overflow:visible;"/>
	</clipPath>
	<g class="st15">
		<path class="st8" d="M121.9,142.4c-1.7,0-3.1,1.4-3.1,3.1v94.3c0,1.7,1.4,3.1,3.1,3.1h14.5c1.7,0,3.1-1.4,3.1-3.1v-94.3
			c0-1.7-1.4-3.1-3.1-3.1H121.9z M133.3,236.7H125v-88h8.3V236.7z"/>
	</g>
</g>
<rect x="38.5" y="237.8" class="st8" width="137.8" height="5.7"/>
</svg>
