<?xml version="1.0" encoding="utf-8"?>
<!-- Generator: Adobe Illustrator 24.3.0, SVG Export Plug-In . SVG Version: 6.00 Build 0)  -->
<svg version="1.1" id="Layer_1" xmlns="http://www.w3.org/2000/svg" xmlns:xlink="http://www.w3.org/1999/xlink" x="0px" y="0px"
	 viewBox="0 0 269.3 269.3" style="enable-background:new 0 0 269.3 269.3;" xml:space="preserve">
<style type="text/css">
	.st0{clip-path:url(#SVGID_2_);fill:none;stroke:#CF30BA;stroke-width:5;stroke-linecap:square;stroke-miterlimit:10;}
	.st1{fill:none;stroke:#CF30BA;stroke-width:5;stroke-linecap:square;stroke-miterlimit:10;}
	.st2{clip-path:url(#SVGID_4_);fill:none;stroke:#CF30BA;stroke-width:5;stroke-linecap:square;stroke-miterlimit:10;}
	.st3{fill:#CF30BA;}
	.st4{font-family:'Brown-Regular';}
	.st5{font-size:46px;}
</style>
<g>
	<g>
		<defs>
			<rect id="SVGID_1_" x="27.8" y="55.1" width="213.4" height="160.1"/>
		</defs>
		<clipPath id="SVGID_2_">
			<use xlink:href="#SVGID_1_"  style="overflow:visible;"/>
		</clipPath>
		<path class="st0" d="M238.7,57.6H30.3v6.7v116v6.7h110.4 M199,187h39.7V72.7"/>
	</g>
</g>
<path class="st1" d="M78.3,91L47.1,74.1 M221.1,170.1l-36.1-19.7 M78.3,153.6l-30.1,16.6 M221.1,74.1l-36.1,20 M147.8,171.9H45.4
	V72.7h178.2v99.2h-47.5"/>
<g>
	<g>
		<defs>
			<rect id="SVGID_3_" x="27.8" y="55.1" width="213.4" height="160.1"/>
		</defs>
		<clipPath id="SVGID_4_">
			<use xlink:href="#SVGID_3_"  style="overflow:visible;"/>
		</clipPath>
		<polygon class="st2" points="186.9,206 180.2,190.3 190.9,185.6 159.9,162 155.6,200.8 166.3,196.2 173,211.9 		"/>
	</g>
</g>
<text transform="matrix(1 0 0 1 102.0617 137.3569)" class="st3 st4 st5">A</text>
<text transform="matrix(1 0 0 1 130.6317 137.3569)" class="st3 st4 st5">D</text>
</svg>
