<?xml version="1.0" encoding="utf-8"?>
<!-- Generator: Adobe Illustrator 24.3.0, SVG Export Plug-In . SVG Version: 6.00 Build 0)  -->
<svg version="1.1" id="Layer_1" xmlns="http://www.w3.org/2000/svg" xmlns:xlink="http://www.w3.org/1999/xlink" x="0px" y="0px"
	 viewBox="0 0 269.3 269.3" style="enable-background:new 0 0 269.3 269.3;" xml:space="preserve">
<style type="text/css">
	.st0{clip-path:url(#SVGID_2_);fill:none;stroke:#CF30BA;stroke-width:5;stroke-linecap:square;stroke-miterlimit:10;}
	.st1{clip-path:url(#SVGID_4_);fill:none;stroke:#CF30BA;stroke-width:5;stroke-miterlimit:10;}
	.st2{fill:none;stroke:#CF30BA;stroke-width:5;stroke-linecap:square;stroke-miterlimit:10;}
	.st3{fill:none;stroke:#CF30BA;stroke-width:5;stroke-linecap:square;stroke-linejoin:round;stroke-miterlimit:10;}
	.st4{clip-path:url(#SVGID_6_);fill:none;stroke:#CF30BA;stroke-width:5;stroke-linecap:square;stroke-miterlimit:10;}
</style>
<g>
	<g>
		<defs>
			<rect id="SVGID_1_" x="27" y="45.7" width="215" height="178.9"/>
		</defs>
		<clipPath id="SVGID_2_">
			<use xlink:href="#SVGID_1_"  style="overflow:visible;"/>
		</clipPath>
		<polyline class="st0" points="239.5,65.3 239.5,193.5 29.5,193.5 29.5,48.2 239.5,48.2 		"/>
	</g>
	<g>
		<defs>
			<rect id="SVGID_3_" x="27" y="45.7" width="215" height="178.9"/>
		</defs>
		<clipPath id="SVGID_4_">
			<use xlink:href="#SVGID_3_"  style="overflow:visible;"/>
		</clipPath>
		<path class="st1" d="M29.5,169.2h193.6 M87.2,222.1h94.6 M162.1,203.5v18.6H107v-28.5h55.1"/>
	</g>
</g>
<path class="st2" d="M51.2,124.9h4.3 M51.2,110.5h4.3 M51.2,96h4.3 M51.2,81.5h4.3 M51.2,67h4.3 M219.3,150.2h-37.4V67h37.4V150.2z"
	/>
<path class="st3" d="M195.3,137.6h10.4 M195.3,123.4h10.4 M195.3,109.2h10.4 M195.3,95.1h10.4 M195.3,80.9h10.4"/>
<g>
	<g>
		<defs>
			<rect id="SVGID_5_" x="27" y="45.7" width="215" height="178.9"/>
		</defs>
		<clipPath id="SVGID_6_">
			<use xlink:href="#SVGID_5_"  style="overflow:visible;"/>
		</clipPath>
		<path class="st4" d="M157,93.8c0,3.7-3,6.8-6.8,6.8s-6.8-3-6.8-6.8s3-6.8,6.8-6.8C154,87.1,157,90.1,157,93.8z M81.9,130.2
			l29.5-31.4l16.1,16.9 M156.3,130.2l-12.8-13.6l-12.8,13.6 M162.6,67h-89 M73.6,150.9h89"/>
	</g>
</g>
</svg>
