<?xml version="1.0" encoding="utf-8"?>
<!-- Generator: Adobe Illustrator 24.3.0, SVG Export Plug-In . SVG Version: 6.00 Build 0)  -->
<svg version="1.1" id="Layer_1" xmlns="http://www.w3.org/2000/svg" xmlns:xlink="http://www.w3.org/1999/xlink" x="0px" y="0px"
	 viewBox="0 0 269.3 269.3" style="enable-background:new 0 0 269.3 269.3;" xml:space="preserve">
<style type="text/css">
	.st0{clip-path:url(#SVGID_2_);fill:none;stroke:#CF30BA;stroke-width:5;stroke-linecap:square;stroke-miterlimit:10;}
	.st1{clip-path:url(#SVGID_4_);fill:none;stroke:#CF30BA;stroke-width:5;stroke-linecap:square;stroke-miterlimit:10;}
	.st2{clip-path:url(#SVGID_6_);fill:none;stroke:#CF30BA;stroke-width:5;stroke-linecap:square;stroke-miterlimit:10;}
</style>
<g>
	<g>
		<defs>
			<rect id="SVGID_1_" x="51.3" y="46.9" width="166.6" height="175.5"/>
		</defs>
		<clipPath id="SVGID_2_">
			<use xlink:href="#SVGID_1_"  style="overflow:visible;"/>
		</clipPath>
		<path class="st0" d="M54,198.2L64.5,57c0.3-4.3,3.9-7.7,8.3-7.7h123.5c4.4,0,8,3.3,8.3,7.7l10.5,141.2"/>
	</g>
	<g>
		<defs>
			<rect id="SVGID_3_" x="51.3" y="46.9" width="166.6" height="175.5"/>
		</defs>
		<clipPath id="SVGID_4_">
			<use xlink:href="#SVGID_3_"  style="overflow:visible;"/>
		</clipPath>
		<path class="st1" d="M190.2,204.8h8.3 M206.9,219.8H62.3c-4.6,0-8.3-4-8.3-9v-12c0-5,3.7-9,8.3-9h144.6c4.6,0,8.3,4,8.3,9v12
			C215.2,215.8,211.5,219.8,206.9,219.8z"/>
	</g>
	<g>
		<defs>
			<rect id="SVGID_5_" x="51.3" y="46.9" width="166.6" height="175.5"/>
		</defs>
		<clipPath id="SVGID_6_">
			<use xlink:href="#SVGID_5_"  style="overflow:visible;"/>
		</clipPath>
		<path class="st2" d="M78.6,112l11.2,11.2L101,112 M146.1,132.3l-11.2-11.2V95.9 M89.8,121.1c0-24.7,20.1-44.7,45-44.7
			s45,20,45,44.7s-20.1,44.7-45,44.7c-18.9,0-35-11.6-41.7-28"/>
	</g>
</g>
</svg>
