<?xml version="1.0" encoding="utf-8"?>
<!-- Generator: Adobe Illustrator 24.3.0, SVG Export Plug-In . SVG Version: 6.00 Build 0)  -->
<svg version="1.1" id="Layer_1" xmlns="http://www.w3.org/2000/svg" xmlns:xlink="http://www.w3.org/1999/xlink" x="0px" y="0px"
	 viewBox="0 0 269.3 269.3" style="enable-background:new 0 0 269.3 269.3;" xml:space="preserve">
<style type="text/css">
	.st0{clip-path:url(#SVGID_2_);fill:none;stroke:#CF30BA;stroke-width:5;stroke-miterlimit:10;}
	.st1{fill:none;stroke:#CF30BA;stroke-width:5;stroke-linecap:square;stroke-miterlimit:10;}
	.st2{clip-path:url(#SVGID_4_);fill:none;stroke:#CF30BA;stroke-width:5;stroke-miterlimit:10;}
</style>
<g>
	<g>
		<defs>
			<rect id="SVGID_1_" x="57.7" y="43.7" width="153.8" height="181.8"/>
		</defs>
		<clipPath id="SVGID_2_">
			<use xlink:href="#SVGID_1_"  style="overflow:visible;"/>
		</clipPath>
		<rect x="60.2" y="46.2" class="st0" width="148.8" height="176.8"/>
	</g>
</g>
<polyline class="st1" points="182.9,116.1 182.9,146.4 86.3,146.4 86.3,102.2 182.9,102.2 "/>
<g>
	<g>
		<defs>
			<rect id="SVGID_3_" x="57.7" y="43.7" width="153.8" height="181.8"/>
		</defs>
		<clipPath id="SVGID_4_">
			<use xlink:href="#SVGID_3_"  style="overflow:visible;"/>
		</clipPath>
		<path class="st2" d="M87.8,146.3l35.3-16 M144.1,120.7l39-18.5 M87.8,103.7l93.7,42.6 M94.3,55.1h5.7 M83,55.1h5.7 M71.6,55.1h5.7
			 M61.7,64h132.6"/>
	</g>
</g>
<path class="st1" d="M182,204.1h-33.7v-9.9H182V204.1z M86.4,199.1h45.9 M85.5,181.5h24.6 M125.1,181.5H182 M86.4,163.2h96.6
	 M86.4,84.8h96.6"/>
</svg>
