<?xml version="1.0" encoding="utf-8"?>
<!-- Generator: Adobe Illustrator 24.3.0, SVG Export Plug-In . SVG Version: 6.00 Build 0)  -->
<svg version="1.1" id="Layer_1" xmlns="http://www.w3.org/2000/svg" xmlns:xlink="http://www.w3.org/1999/xlink" x="0px" y="0px"
	 viewBox="0 0 269.3 269.3" style="enable-background:new 0 0 269.3 269.3;" xml:space="preserve">
<style type="text/css">
	.st0{clip-path:url(#SVGID_2_);fill:#CF30BA;}
	.st1{clip-path:url(#SVGID_4_);fill:none;stroke:#FFFFFF;stroke-width:2;stroke-miterlimit:10;}
	.st2{clip-path:url(#SVGID_6_);fill:#CF30BA;}
	.st3{clip-path:url(#SVGID_8_);fill:none;stroke:#FFFFFF;stroke-width:2;stroke-miterlimit:10;}
	.st4{clip-path:url(#SVGID_10_);fill:#CF30BA;}
	.st5{clip-path:url(#SVGID_12_);fill:none;stroke:#FFFFFF;stroke-width:2;stroke-miterlimit:10;}
	.st6{clip-path:url(#SVGID_14_);fill:#CF30BA;}
	.st7{clip-path:url(#SVGID_16_);fill:none;stroke:#FFFFFF;stroke-width:2;stroke-miterlimit:10;}
	.st8{clip-path:url(#SVGID_18_);fill:#CF30BA;}
	.st9{clip-path:url(#SVGID_20_);fill:none;stroke:#FFFFFF;stroke-width:2;stroke-miterlimit:10;}
	.st10{clip-path:url(#SVGID_22_);fill:#CF30BA;}
	.st11{clip-path:url(#SVGID_24_);fill:none;stroke:#FFFFFF;stroke-width:2;stroke-miterlimit:10;}
	.st12{clip-path:url(#SVGID_26_);fill:#CF30BA;}
	.st13{clip-path:url(#SVGID_28_);fill:none;stroke:#FFFFFF;stroke-width:2;stroke-miterlimit:10;}
	.st14{clip-path:url(#SVGID_30_);fill:#CF30BA;}
	.st15{clip-path:url(#SVGID_32_);fill:none;stroke:#FFFFFF;stroke-width:2;stroke-miterlimit:10;}
	.st16{clip-path:url(#SVGID_34_);fill:#CF30BA;}
	.st17{clip-path:url(#SVGID_36_);fill:none;stroke:#FFFFFF;stroke-width:2;stroke-miterlimit:10;}
	.st18{clip-path:url(#SVGID_38_);fill:#CF30BA;}
	.st19{clip-path:url(#SVGID_40_);fill:none;stroke:#FFFFFF;stroke-width:2;stroke-miterlimit:10;}
	.st20{clip-path:url(#SVGID_42_);fill:#CF30BA;}
	.st21{clip-path:url(#SVGID_44_);fill:none;stroke:#FFFFFF;stroke-width:2;stroke-miterlimit:10;}
	.st22{clip-path:url(#SVGID_46_);fill:#CF30BA;}
	.st23{clip-path:url(#SVGID_48_);fill:none;stroke:#FFFFFF;stroke-width:2;stroke-miterlimit:10;}
	.st24{clip-path:url(#SVGID_50_);fill:#CF30BA;}
	.st25{clip-path:url(#SVGID_52_);fill:none;stroke:#FFFFFF;stroke-width:2;stroke-miterlimit:10;}
	.st26{clip-path:url(#SVGID_54_);fill:#CF30BA;}
	.st27{clip-path:url(#SVGID_56_);fill:none;stroke:#FFFFFF;stroke-width:2;stroke-miterlimit:10;}
	.st28{clip-path:url(#SVGID_58_);fill:#CF30BA;}
	.st29{clip-path:url(#SVGID_60_);fill:none;stroke:#FFFFFF;stroke-width:2;stroke-miterlimit:10;}
	.st30{fill:#CF30BA;}
	.st31{fill:none;stroke:#FFFFFF;stroke-width:2;stroke-miterlimit:10;}
	.st32{clip-path:url(#SVGID_62_);fill:#CF30BA;}
	.st33{clip-path:url(#SVGID_64_);fill:none;stroke:#FFFFFF;stroke-width:2;stroke-miterlimit:10;}
	.st34{clip-path:url(#SVGID_66_);fill:#CF30BA;}
	.st35{clip-path:url(#SVGID_68_);fill:none;stroke:#FFFFFF;stroke-width:2;stroke-miterlimit:10;}
	.st36{clip-path:url(#SVGID_70_);fill:#CF30BA;}
	.st37{clip-path:url(#SVGID_72_);fill:none;stroke:#FFFFFF;stroke-width:2;stroke-miterlimit:10;}
	.st38{clip-path:url(#SVGID_74_);fill:#CF30BA;}
	.st39{clip-path:url(#SVGID_76_);fill:none;stroke:#FFFFFF;stroke-width:2;stroke-miterlimit:10;}
</style>
<g>
	<g>
		<g>
			<defs>
				<rect id="SVGID_1_" x="50.2" y="44.8" width="168.7" height="179.5"/>
			</defs>
			<clipPath id="SVGID_2_">
				<use xlink:href="#SVGID_1_"  style="overflow:visible;"/>
			</clipPath>
			<path class="st0" d="M192.2,72.9h-19.1c-2,0-3.5-1.6-3.5-3.5s1.6-3.5,3.5-3.5h19.1c2,0,3.5,1.6,3.5,3.5S194.2,72.9,192.2,72.9"/>
		</g>
		<g>
			<defs>
				<rect id="SVGID_3_" x="50.2" y="44.8" width="168.7" height="179.5"/>
			</defs>
			<clipPath id="SVGID_4_">
				<use xlink:href="#SVGID_3_"  style="overflow:visible;"/>
			</clipPath>
			<path class="st1" d="M192.2,72.9h-19.1c-2,0-3.5-1.6-3.5-3.5s1.6-3.5,3.5-3.5h19.1c2,0,3.5,1.6,3.5,3.5S194.2,72.9,192.2,72.9z"
				/>
		</g>
		<g>
			<defs>
				<rect id="SVGID_5_" x="50.2" y="44.8" width="168.7" height="179.5"/>
			</defs>
			<clipPath id="SVGID_6_">
				<use xlink:href="#SVGID_5_"  style="overflow:visible;"/>
			</clipPath>
			<path class="st2" d="M192.2,128.1h-19.1c-2,0-3.5-1.6-3.5-3.5s1.6-3.5,3.5-3.5h19.1c2,0,3.5,1.6,3.5,3.5S194.2,128.1,192.2,128.1
				"/>
		</g>
		<g>
			<defs>
				<rect id="SVGID_7_" x="50.2" y="44.8" width="168.7" height="179.5"/>
			</defs>
			<clipPath id="SVGID_8_">
				<use xlink:href="#SVGID_7_"  style="overflow:visible;"/>
			</clipPath>
			<path class="st3" d="M192.2,128.1h-19.1c-2,0-3.5-1.6-3.5-3.5s1.6-3.5,3.5-3.5h19.1c2,0,3.5,1.6,3.5,3.5S194.2,128.1,192.2,128.1
				z"/>
		</g>
		<g>
			<defs>
				<rect id="SVGID_9_" x="50.2" y="44.8" width="168.7" height="179.5"/>
			</defs>
			<clipPath id="SVGID_10_">
				<use xlink:href="#SVGID_9_"  style="overflow:visible;"/>
			</clipPath>
			<path class="st4" d="M192.2,183.4h-19.1c-2,0-3.5-1.6-3.5-3.5s1.6-3.5,3.5-3.5h19.1c2,0,3.5,1.6,3.5,3.5S194.2,183.4,192.2,183.4
				"/>
		</g>
		<g>
			<defs>
				<rect id="SVGID_11_" x="50.2" y="44.8" width="168.7" height="179.5"/>
			</defs>
			<clipPath id="SVGID_12_">
				<use xlink:href="#SVGID_11_"  style="overflow:visible;"/>
			</clipPath>
			<path class="st5" d="M192.2,183.4h-19.1c-2,0-3.5-1.6-3.5-3.5s1.6-3.5,3.5-3.5h19.1c2,0,3.5,1.6,3.5,3.5S194.2,183.4,192.2,183.4
				z"/>
		</g>
		<g>
			<defs>
				<rect id="SVGID_13_" x="50.2" y="44.8" width="168.7" height="179.5"/>
			</defs>
			<clipPath id="SVGID_14_">
				<use xlink:href="#SVGID_13_"  style="overflow:visible;"/>
			</clipPath>
			<path class="st6" d="M71.2,79.1c-2,0-3.5-1.6-3.5-3.5v-12c0-1.9,1.6-3.5,3.5-3.5c2,0,3.5,1.6,3.5,3.5v11.9
				C74.7,77.5,73.2,79.1,71.2,79.1"/>
		</g>
		<g>
			<defs>
				<rect id="SVGID_15_" x="50.2" y="44.8" width="168.7" height="179.5"/>
			</defs>
			<clipPath id="SVGID_16_">
				<use xlink:href="#SVGID_15_"  style="overflow:visible;"/>
			</clipPath>
			<path class="st7" d="M71.2,79.1c-2,0-3.5-1.6-3.5-3.5v-12c0-1.9,1.6-3.5,3.5-3.5c2,0,3.5,1.6,3.5,3.5v11.9
				C74.7,77.5,73.2,79.1,71.2,79.1z"/>
		</g>
		<g>
			<defs>
				<rect id="SVGID_17_" x="50.2" y="44.8" width="168.7" height="179.5"/>
			</defs>
			<clipPath id="SVGID_18_">
				<use xlink:href="#SVGID_17_"  style="overflow:visible;"/>
			</clipPath>
			<path class="st8" d="M86.3,79.1c-2,0-3.5-1.6-3.5-3.5v-12c0-1.9,1.6-3.5,3.5-3.5c2,0,3.5,1.6,3.5,3.5v11.9
				C89.8,77.5,88.2,79.1,86.3,79.1"/>
		</g>
		<g>
			<defs>
				<rect id="SVGID_19_" x="50.2" y="44.8" width="168.7" height="179.5"/>
			</defs>
			<clipPath id="SVGID_20_">
				<use xlink:href="#SVGID_19_"  style="overflow:visible;"/>
			</clipPath>
			<path class="st9" d="M86.3,79.1c-2,0-3.5-1.6-3.5-3.5v-12c0-1.9,1.6-3.5,3.5-3.5c2,0,3.5,1.6,3.5,3.5v11.9
				C89.8,77.5,88.2,79.1,86.3,79.1z"/>
		</g>
		<g>
			<defs>
				<rect id="SVGID_21_" x="50.2" y="44.8" width="168.7" height="179.5"/>
			</defs>
			<clipPath id="SVGID_22_">
				<use xlink:href="#SVGID_21_"  style="overflow:visible;"/>
			</clipPath>
			<path class="st10" d="M101.3,79.1c-2,0-3.5-1.6-3.5-3.5v-12c0-1.9,1.6-3.5,3.5-3.5c2,0,3.5,1.6,3.5,3.5v11.9
				C104.9,77.5,103.3,79.1,101.3,79.1"/>
		</g>
		<g>
			<defs>
				<rect id="SVGID_23_" x="50.2" y="44.8" width="168.7" height="179.5"/>
			</defs>
			<clipPath id="SVGID_24_">
				<use xlink:href="#SVGID_23_"  style="overflow:visible;"/>
			</clipPath>
			<path class="st11" d="M101.3,79.1c-2,0-3.5-1.6-3.5-3.5v-12c0-1.9,1.6-3.5,3.5-3.5c2,0,3.5,1.6,3.5,3.5v11.9
				C104.9,77.5,103.3,79.1,101.3,79.1z"/>
		</g>
		<g>
			<defs>
				<rect id="SVGID_25_" x="50.2" y="44.8" width="168.7" height="179.5"/>
			</defs>
			<clipPath id="SVGID_26_">
				<use xlink:href="#SVGID_25_"  style="overflow:visible;"/>
			</clipPath>
			<path class="st12" d="M116.4,79.1c-2,0-3.5-1.6-3.5-3.5v-12c0-1.9,1.6-3.5,3.5-3.5s3.5,1.6,3.5,3.5v11.9
				C120,77.5,118.4,79.1,116.4,79.1"/>
		</g>
		<g>
			<defs>
				<rect id="SVGID_27_" x="50.2" y="44.8" width="168.7" height="179.5"/>
			</defs>
			<clipPath id="SVGID_28_">
				<use xlink:href="#SVGID_27_"  style="overflow:visible;"/>
			</clipPath>
			<path class="st13" d="M116.4,79.1c-2,0-3.5-1.6-3.5-3.5v-12c0-1.9,1.6-3.5,3.5-3.5s3.5,1.6,3.5,3.5v11.9
				C120,77.5,118.4,79.1,116.4,79.1z"/>
		</g>
		<g>
			<defs>
				<rect id="SVGID_29_" x="50.2" y="44.8" width="168.7" height="179.5"/>
			</defs>
			<clipPath id="SVGID_30_">
				<use xlink:href="#SVGID_29_"  style="overflow:visible;"/>
			</clipPath>
			<path class="st14" d="M71.2,134.1c-2,0-3.5-1.6-3.5-3.5v-12c0-1.9,1.6-3.5,3.5-3.5c2,0,3.5,1.6,3.5,3.5v12
				C74.7,132.5,73.2,134.1,71.2,134.1"/>
		</g>
		<g>
			<defs>
				<rect id="SVGID_31_" x="50.2" y="44.8" width="168.7" height="179.5"/>
			</defs>
			<clipPath id="SVGID_32_">
				<use xlink:href="#SVGID_31_"  style="overflow:visible;"/>
			</clipPath>
			<path class="st15" d="M71.2,134.1c-2,0-3.5-1.6-3.5-3.5v-12c0-1.9,1.6-3.5,3.5-3.5c2,0,3.5,1.6,3.5,3.5v12
				C74.7,132.5,73.2,134.1,71.2,134.1z"/>
		</g>
		<g>
			<defs>
				<rect id="SVGID_33_" x="50.2" y="44.8" width="168.7" height="179.5"/>
			</defs>
			<clipPath id="SVGID_34_">
				<use xlink:href="#SVGID_33_"  style="overflow:visible;"/>
			</clipPath>
			<path class="st16" d="M86.3,134.1c-2,0-3.5-1.6-3.5-3.5v-12c0-1.9,1.6-3.5,3.5-3.5c2,0,3.5,1.6,3.5,3.5v12
				C89.8,132.5,88.2,134.1,86.3,134.1"/>
		</g>
		<g>
			<defs>
				<rect id="SVGID_35_" x="50.2" y="44.8" width="168.7" height="179.5"/>
			</defs>
			<clipPath id="SVGID_36_">
				<use xlink:href="#SVGID_35_"  style="overflow:visible;"/>
			</clipPath>
			<path class="st17" d="M86.3,134.1c-2,0-3.5-1.6-3.5-3.5v-12c0-1.9,1.6-3.5,3.5-3.5c2,0,3.5,1.6,3.5,3.5v12
				C89.8,132.5,88.2,134.1,86.3,134.1z"/>
		</g>
		<g>
			<defs>
				<rect id="SVGID_37_" x="50.2" y="44.8" width="168.7" height="179.5"/>
			</defs>
			<clipPath id="SVGID_38_">
				<use xlink:href="#SVGID_37_"  style="overflow:visible;"/>
			</clipPath>
			<path class="st18" d="M101.3,134.1c-2,0-3.5-1.6-3.5-3.5v-12c0-1.9,1.6-3.5,3.5-3.5c2,0,3.5,1.6,3.5,3.5v12
				C104.9,132.5,103.3,134.1,101.3,134.1"/>
		</g>
		<g>
			<defs>
				<rect id="SVGID_39_" x="50.2" y="44.8" width="168.7" height="179.5"/>
			</defs>
			<clipPath id="SVGID_40_">
				<use xlink:href="#SVGID_39_"  style="overflow:visible;"/>
			</clipPath>
			<path class="st19" d="M101.3,134.1c-2,0-3.5-1.6-3.5-3.5v-12c0-1.9,1.6-3.5,3.5-3.5c2,0,3.5,1.6,3.5,3.5v12
				C104.9,132.5,103.3,134.1,101.3,134.1z"/>
		</g>
		<g>
			<defs>
				<rect id="SVGID_41_" x="50.2" y="44.8" width="168.7" height="179.5"/>
			</defs>
			<clipPath id="SVGID_42_">
				<use xlink:href="#SVGID_41_"  style="overflow:visible;"/>
			</clipPath>
			<path class="st20" d="M116.4,134.1c-2,0-3.5-1.6-3.5-3.5v-12c0-1.9,1.6-3.5,3.5-3.5s3.5,1.6,3.5,3.5v12
				C120,132.5,118.4,134.1,116.4,134.1"/>
		</g>
		<g>
			<defs>
				<rect id="SVGID_43_" x="50.2" y="44.8" width="168.7" height="179.5"/>
			</defs>
			<clipPath id="SVGID_44_">
				<use xlink:href="#SVGID_43_"  style="overflow:visible;"/>
			</clipPath>
			<path class="st21" d="M116.4,134.1c-2,0-3.5-1.6-3.5-3.5v-12c0-1.9,1.6-3.5,3.5-3.5s3.5,1.6,3.5,3.5v12
				C120,132.5,118.4,134.1,116.4,134.1z"/>
		</g>
		<g>
			<defs>
				<rect id="SVGID_45_" x="50.2" y="44.8" width="168.7" height="179.5"/>
			</defs>
			<clipPath id="SVGID_46_">
				<use xlink:href="#SVGID_45_"  style="overflow:visible;"/>
			</clipPath>
			<path class="st22" d="M71.2,189.1c-2,0-3.5-1.6-3.5-3.5v-11.9c0-1.9,1.6-3.5,3.5-3.5c2,0,3.5,1.6,3.5,3.5v11.9
				C74.7,187.5,73.2,189.1,71.2,189.1"/>
		</g>
		<g>
			<defs>
				<rect id="SVGID_47_" x="50.2" y="44.8" width="168.7" height="179.5"/>
			</defs>
			<clipPath id="SVGID_48_">
				<use xlink:href="#SVGID_47_"  style="overflow:visible;"/>
			</clipPath>
			<path class="st23" d="M71.2,189.1c-2,0-3.5-1.6-3.5-3.5v-11.9c0-1.9,1.6-3.5,3.5-3.5c2,0,3.5,1.6,3.5,3.5v11.9
				C74.7,187.5,73.2,189.1,71.2,189.1z"/>
		</g>
		<g>
			<defs>
				<rect id="SVGID_49_" x="50.2" y="44.8" width="168.7" height="179.5"/>
			</defs>
			<clipPath id="SVGID_50_">
				<use xlink:href="#SVGID_49_"  style="overflow:visible;"/>
			</clipPath>
			<path class="st24" d="M86.3,189.1c-2,0-3.5-1.6-3.5-3.5v-11.9c0-1.9,1.6-3.5,3.5-3.5c2,0,3.5,1.6,3.5,3.5v11.9
				C89.8,187.5,88.2,189.1,86.3,189.1"/>
		</g>
		<g>
			<defs>
				<rect id="SVGID_51_" x="50.2" y="44.8" width="168.7" height="179.5"/>
			</defs>
			<clipPath id="SVGID_52_">
				<use xlink:href="#SVGID_51_"  style="overflow:visible;"/>
			</clipPath>
			<path class="st25" d="M86.3,189.1c-2,0-3.5-1.6-3.5-3.5v-11.9c0-1.9,1.6-3.5,3.5-3.5c2,0,3.5,1.6,3.5,3.5v11.9
				C89.8,187.5,88.2,189.1,86.3,189.1z"/>
		</g>
		<g>
			<defs>
				<rect id="SVGID_53_" x="50.2" y="44.8" width="168.7" height="179.5"/>
			</defs>
			<clipPath id="SVGID_54_">
				<use xlink:href="#SVGID_53_"  style="overflow:visible;"/>
			</clipPath>
			<path class="st26" d="M101.3,189.1c-2,0-3.5-1.6-3.5-3.5v-11.9c0-1.9,1.6-3.5,3.5-3.5c2,0,3.5,1.6,3.5,3.5v11.9
				C104.9,187.5,103.3,189.1,101.3,189.1"/>
		</g>
		<g>
			<defs>
				<rect id="SVGID_55_" x="50.2" y="44.8" width="168.7" height="179.5"/>
			</defs>
			<clipPath id="SVGID_56_">
				<use xlink:href="#SVGID_55_"  style="overflow:visible;"/>
			</clipPath>
			<path class="st27" d="M101.3,189.1c-2,0-3.5-1.6-3.5-3.5v-11.9c0-1.9,1.6-3.5,3.5-3.5c2,0,3.5,1.6,3.5,3.5v11.9
				C104.9,187.5,103.3,189.1,101.3,189.1z"/>
		</g>
		<g>
			<defs>
				<rect id="SVGID_57_" x="50.2" y="44.8" width="168.7" height="179.5"/>
			</defs>
			<clipPath id="SVGID_58_">
				<use xlink:href="#SVGID_57_"  style="overflow:visible;"/>
			</clipPath>
			<path class="st28" d="M116.4,189.1c-2,0-3.5-1.6-3.5-3.5v-11.9c0-1.9,1.6-3.5,3.5-3.5s3.5,1.6,3.5,3.5v11.9
				C120,187.5,118.4,189.1,116.4,189.1"/>
		</g>
		<g>
			<defs>
				<rect id="SVGID_59_" x="50.2" y="44.8" width="168.7" height="179.5"/>
			</defs>
			<clipPath id="SVGID_60_">
				<use xlink:href="#SVGID_59_"  style="overflow:visible;"/>
			</clipPath>
			<path class="st29" d="M116.4,189.1c-2,0-3.5-1.6-3.5-3.5v-11.9c0-1.9,1.6-3.5,3.5-3.5s3.5,1.6,3.5,3.5v11.9
				C120,187.5,118.4,189.1,116.4,189.1z"/>
		</g>
	</g>
	<rect x="192.2" y="92.9" class="st30" width="7.1" height="8.2"/>
	<rect x="192.2" y="92.9" class="st31" width="7.1" height="8.2"/>
	<rect x="69.9" y="92.9" class="st30" width="7.1" height="8.2"/>
	<rect x="69.9" y="92.9" class="st31" width="7.1" height="8.2"/>
	<rect x="69.9" y="148.1" class="st30" width="7.1" height="8.2"/>
	<rect x="69.9" y="148.1" class="st31" width="7.1" height="8.2"/>
	<rect x="192.2" y="148.1" class="st30" width="7.1" height="8.2"/>
	<rect x="192.2" y="148.1" class="st31" width="7.1" height="8.2"/>
	<g>
		<g>
			<defs>
				<rect id="SVGID_61_" x="50.2" y="44.8" width="168.7" height="179.5"/>
			</defs>
			<clipPath id="SVGID_62_">
				<use xlink:href="#SVGID_61_"  style="overflow:visible;"/>
			</clipPath>
			<path class="st32" d="M58.3,85.8h152.5V52.9H58.3V85.8z M214.4,92.9H54.8c-2,0-3.5-1.6-3.5-3.5v-40c0-1.9,1.6-3.5,3.5-3.5h159.6
				c2,0,3.5,1.6,3.5,3.5v40C218,91.3,216.4,92.9,214.4,92.9"/>
		</g>
		<g>
			<defs>
				<rect id="SVGID_63_" x="50.2" y="44.8" width="168.7" height="179.5"/>
			</defs>
			<clipPath id="SVGID_64_">
				<use xlink:href="#SVGID_63_"  style="overflow:visible;"/>
			</clipPath>
			<path class="st33" d="M58.3,85.8h152.5V52.9H58.3V85.8z M214.4,92.9H54.8c-2,0-3.5-1.6-3.5-3.5v-40c0-1.9,1.6-3.5,3.5-3.5h159.6
				c2,0,3.5,1.6,3.5,3.5v40C218,91.3,216.4,92.9,214.4,92.9z"/>
		</g>
		<g>
			<defs>
				<rect id="SVGID_65_" x="50.2" y="44.8" width="168.7" height="179.5"/>
			</defs>
			<clipPath id="SVGID_66_">
				<use xlink:href="#SVGID_65_"  style="overflow:visible;"/>
			</clipPath>
			<path class="st34" d="M58.3,196.3h152.5v-32.9H58.3V196.3z M214.4,203.4H54.8c-2,0-3.5-1.6-3.5-3.5v-40c0-1.9,1.6-3.5,3.5-3.5
				h159.6c2,0,3.5,1.6,3.5,3.5v40C218,201.8,216.4,203.4,214.4,203.4"/>
		</g>
		<g>
			<defs>
				<rect id="SVGID_67_" x="50.2" y="44.8" width="168.7" height="179.5"/>
			</defs>
			<clipPath id="SVGID_68_">
				<use xlink:href="#SVGID_67_"  style="overflow:visible;"/>
			</clipPath>
			<path class="st35" d="M58.3,196.3h152.5v-32.9H58.3V196.3z M214.4,203.4H54.8c-2,0-3.5-1.6-3.5-3.5v-40c0-1.9,1.6-3.5,3.5-3.5
				h159.6c2,0,3.5,1.6,3.5,3.5v40C218,201.8,216.4,203.4,214.4,203.4z"/>
		</g>
		<g>
			<defs>
				<rect id="SVGID_69_" x="50.2" y="44.8" width="168.7" height="179.5"/>
			</defs>
			<clipPath id="SVGID_70_">
				<use xlink:href="#SVGID_69_"  style="overflow:visible;"/>
			</clipPath>
			<path class="st36" d="M58.3,141.1h152.5v-32.9H58.3V141.1z M214.4,148.1H54.8c-2,0-3.5-1.6-3.5-3.5v-40c0-1.9,1.6-3.5,3.5-3.5
				h159.6c2,0,3.5,1.6,3.5,3.5v40C218,146.5,216.4,148.1,214.4,148.1"/>
		</g>
		<g>
			<defs>
				<rect id="SVGID_71_" x="50.2" y="44.8" width="168.7" height="179.5"/>
			</defs>
			<clipPath id="SVGID_72_">
				<use xlink:href="#SVGID_71_"  style="overflow:visible;"/>
			</clipPath>
			<path class="st37" d="M58.3,141.1h152.5v-32.9H58.3V141.1z M214.4,148.1H54.8c-2,0-3.5-1.6-3.5-3.5v-40c0-1.9,1.6-3.5,3.5-3.5
				h159.6c2,0,3.5,1.6,3.5,3.5v40C218,146.5,216.4,148.1,214.4,148.1z"/>
		</g>
		<g>
			<defs>
				<rect id="SVGID_73_" x="50.2" y="44.8" width="168.7" height="179.5"/>
			</defs>
			<clipPath id="SVGID_74_">
				<use xlink:href="#SVGID_73_"  style="overflow:visible;"/>
			</clipPath>
			<path class="st38" d="M192.2,203.4v12.9H77v-12.9h-7.1v16.5c0,1.9,1.6,3.5,3.5,3.5h122.4c2,0,3.5-1.6,3.5-3.5v-16.5H192.2z"/>
		</g>
		<g>
			<defs>
				<rect id="SVGID_75_" x="50.2" y="44.8" width="168.7" height="179.5"/>
			</defs>
			<clipPath id="SVGID_76_">
				<use xlink:href="#SVGID_75_"  style="overflow:visible;"/>
			</clipPath>
			<path class="st39" d="M192.2,203.4v12.9H77v-12.9h-7.1v16.5c0,1.9,1.6,3.5,3.5,3.5h122.4c2,0,3.5-1.6,3.5-3.5v-16.5H192.2z"/>
		</g>
	</g>
</g>
</svg>
