<?xml version="1.0" encoding="utf-8"?>
<!-- Generator: Adobe Illustrator 24.3.0, SVG Export Plug-In . SVG Version: 6.00 Build 0)  -->
<svg version="1.1" id="Layer_1" xmlns="http://www.w3.org/2000/svg" xmlns:xlink="http://www.w3.org/1999/xlink" x="0px" y="0px"
	 viewBox="0 0 269.3 269.3" style="enable-background:new 0 0 269.3 269.3;" xml:space="preserve">
<style type="text/css">
	.st0{clip-path:url(#SVGID_2_);fill:none;stroke:#CF30BA;stroke-width:6.586;stroke-miterlimit:10;}
	.st1{fill:none;stroke:#CF30BA;stroke-width:6.586;stroke-linecap:square;stroke-miterlimit:10;}
	.st2{fill:none;stroke:#CF30BA;stroke-width:6.586;stroke-miterlimit:10;}
	.st3{clip-path:url(#SVGID_4_);fill:none;stroke:#CF30BA;stroke-width:6.586;stroke-linecap:square;stroke-miterlimit:10;}
</style>
<g>
	<g>
		<g>
			<defs>
				<rect id="SVGID_1_" x="36.9" y="55.8" width="195.5" height="157.6"/>
			</defs>
			<clipPath id="SVGID_2_">
				<use xlink:href="#SVGID_1_"  style="overflow:visible;"/>
			</clipPath>
			<path class="st0" d="M79.3,69.7h6.8 M65.7,69.7h6.8 M52,69.7h6.8 M40.2,80h168.9 M229.1,210.2H40.2v-151h188.9L229.1,210.2
				L229.1,210.2z"/>
		</g>
	</g>
	<polyline class="st1" points="209.7,119.7 209.7,106.7 196.8,106.7 	"/>
	<polyline class="st2" points="54.2,195.5 118.9,130.9 152.3,164.4 206.2,110.4 	"/>
	<g>
		<g>
			<defs>
				<rect id="SVGID_3_" x="36.9" y="55.8" width="195.5" height="157.6"/>
			</defs>
			<clipPath id="SVGID_4_">
				<use xlink:href="#SVGID_3_"  style="overflow:visible;"/>
			</clipPath>
			<path class="st3" d="M203.2,137v73.2 M186.4,155.3v54.8 M169.5,169.9v40.2 M152.6,180.9v29.2 M135.7,169.9v40.2 M118.9,155.3
				v54.8 M102,169.9v40.2 M85.1,187.1v23 M68.3,201.1v9.1"/>
		</g>
	</g>
</g>
</svg>
