<?xml version="1.0" encoding="utf-8"?>
<!-- Generator: Adobe Illustrator 24.3.0, SVG Export Plug-In . SVG Version: 6.00 Build 0)  -->
<svg version="1.1" id="Layer_1" xmlns="http://www.w3.org/2000/svg" xmlns:xlink="http://www.w3.org/1999/xlink" x="0px" y="0px"
	 viewBox="0 0 269.3 269.3" style="enable-background:new 0 0 269.3 269.3;" xml:space="preserve">
<style type="text/css">
	.st0{clip-path:url(#SVGID_2_);fill:#CF30BA;}
	.st1{clip-path:url(#SVGID_4_);fill:#CF30BA;}
	.st2{clip-path:url(#SVGID_6_);fill:#CF30BA;}
	.st3{clip-path:url(#SVGID_8_);fill:#CF30BA;}
	.st4{clip-path:url(#SVGID_10_);fill:#CF30BA;}
	.st5{clip-path:url(#SVGID_12_);fill:#CF30BA;}
	.st6{clip-path:url(#SVGID_14_);fill:#CF30BA;}
	.st7{clip-path:url(#SVGID_16_);fill:#CF30BA;}
</style>
<g>
	<g>
		<defs>
			<rect id="SVGID_1_" x="29.2" y="44.8" width="210.8" height="179.5"/>
		</defs>
		<clipPath id="SVGID_2_">
			<use xlink:href="#SVGID_1_"  style="overflow:visible;"/>
		</clipPath>
		<path class="st0" d="M134.6,178.5c-3,0-5.4-2.4-5.4-5.2c0-2.9,2.4-5.2,5.4-5.2s5.4,2.4,5.4,5.2S137.6,178.5,134.6,178.5"/>
	</g>
	<g>
		<defs>
			<rect id="SVGID_3_" x="29.2" y="44.8" width="210.8" height="179.5"/>
		</defs>
		<clipPath id="SVGID_4_">
			<use xlink:href="#SVGID_3_"  style="overflow:visible;"/>
		</clipPath>
		<path class="st1" d="M44.8,51.2c-5,0-9.1,4-9.1,8.9v119.3c0,4.9,4.1,8.9,9.1,8.9h179.6c5,0,9.1-4,9.1-8.9V60.1
			c0-4.9-4.1-8.9-9.1-8.9H44.8z M224.4,194.6H44.8c-8.6,0-15.6-6.8-15.6-15.3V60.1c0-8.4,7-15.3,15.6-15.3h179.6
			c8.6,0,15.6,6.8,15.6,15.3v119.3C240,187.8,233,194.6,224.4,194.6"/>
	</g>
	<g>
		<defs>
			<rect id="SVGID_5_" x="29.2" y="44.8" width="210.8" height="179.5"/>
		</defs>
		<clipPath id="SVGID_6_">
			<use xlink:href="#SVGID_5_"  style="overflow:visible;"/>
		</clipPath>
		<path class="st2" d="M112,218.4h45.2l-4.5-23.6h-36.3L112,218.4z M160.9,224.4L160.9,224.4h-52.5c-0.9,0-1.8-0.4-2.3-1.1
			c-0.6-0.7-0.8-1.6-0.7-2.4l5.6-29.5c0.3-1.4,1.5-2.4,3-2.4h41.3c1.5,0,2.7,1,3,2.4l5.5,29.3c0.1,0.2,0.1,0.5,0.1,0.8
			C163.9,223,162.5,224.4,160.9,224.4"/>
	</g>
	<g>
		<defs>
			<rect id="SVGID_7_" x="29.2" y="44.8" width="210.8" height="179.5"/>
		</defs>
		<clipPath id="SVGID_8_">
			<use xlink:href="#SVGID_7_"  style="overflow:visible;"/>
		</clipPath>
		<path class="st3" d="M169.8,224.4H99.4c-1.7,0-3-1.3-3-3c0-1.6,1.4-3,3-3h70.4c1.7,0,3,1.3,3,3C172.8,223,171.5,224.4,169.8,224.4
			"/>
	</g>
	<g>
		<defs>
			<rect id="SVGID_9_" x="29.2" y="44.8" width="210.8" height="179.5"/>
		</defs>
		<clipPath id="SVGID_10_">
			<use xlink:href="#SVGID_9_"  style="overflow:visible;"/>
		</clipPath>
		<path class="st4" d="M236.8,159.3H32.4c-1.7,0-3-1.3-3-3c0-1.6,1.4-3,3-3h204.3c1.7,0,3,1.3,3,3
			C239.8,157.9,238.4,159.3,236.8,159.3"/>
	</g>
	<g>
		<defs>
			<rect id="SVGID_11_" x="29.2" y="44.8" width="210.8" height="179.5"/>
		</defs>
		<clipPath id="SVGID_12_">
			<use xlink:href="#SVGID_11_"  style="overflow:visible;"/>
		</clipPath>
		<path class="st5" d="M134.6,70.5c-0.2,0-0.6,0.1-0.8,0.5l-35.2,59.9c-0.2,0.4-0.1,0.7,0,0.9c0.1,0.2,0.3,0.5,0.8,0.5h70.4
			c0.5,0,0.7-0.3,0.8-0.5s0.2-0.5,0-0.9L135.4,71C135.2,70.6,134.8,70.5,134.6,70.5 M169.8,138.2H99.4c-2.5,0-4.8-1.3-6-3.4
			c-1.3-2.1-1.3-4.7,0-6.8l35.2-59.9c1.3-2.1,3.5-3.4,6.1-3.4c2.5,0,4.8,1.3,6.1,3.4L176,128c1.3,2.1,1.3,4.7,0,6.8
			C174.6,136.9,172.3,138.2,169.8,138.2"/>
	</g>
	<g>
		<defs>
			<rect id="SVGID_13_" x="29.2" y="44.8" width="210.8" height="179.5"/>
		</defs>
		<clipPath id="SVGID_14_">
			<use xlink:href="#SVGID_13_"  style="overflow:visible;"/>
		</clipPath>
		<path class="st6" d="M134.6,115.1c-1.7,0-3-1.3-3-3V92.2c0-1.6,1.4-3,3-3c1.7,0,3,1.3,3,3v19.9
			C137.6,113.8,136.3,115.1,134.6,115.1"/>
	</g>
	<g>
		<defs>
			<rect id="SVGID_15_" x="29.2" y="44.8" width="210.8" height="179.5"/>
		</defs>
		<clipPath id="SVGID_16_">
			<use xlink:href="#SVGID_15_"  style="overflow:visible;"/>
		</clipPath>
		<path class="st7" d="M137.8,122.3c0,1.7-1.5,3.2-3.2,3.2c-1.8,0-3.2-1.4-3.2-3.2s1.5-3.2,3.2-3.2
			C136.4,119.1,137.8,120.5,137.8,122.3"/>
	</g>
</g>
</svg>
