<?xml version="1.0" encoding="utf-8"?>
<!-- Generator: Adobe Illustrator 24.3.0, SVG Export Plug-In . SVG Version: 6.00 Build 0)  -->
<svg version="1.1" id="Layer_1" xmlns="http://www.w3.org/2000/svg" xmlns:xlink="http://www.w3.org/1999/xlink" x="0px" y="0px"
	 viewBox="0 0 269.3 269.3" style="enable-background:new 0 0 269.3 269.3;" xml:space="preserve">
<style type="text/css">
	.st0{clip-path:url(#SVGID_2_);fill:none;stroke:#CF30BA;stroke-width:5;stroke-miterlimit:10;}
	.st1{clip-path:url(#SVGID_4_);fill:none;stroke:#CF30BA;stroke-width:5;stroke-miterlimit:10;}
	.st2{clip-path:url(#SVGID_6_);fill:none;stroke:#CF30BA;stroke-width:5;stroke-miterlimit:10;}
</style>
<g>
	<g>
		<g>
			<defs>
				<rect id="SVGID_1_" x="48.1" y="48.1" width="173.1" height="173.1"/>
			</defs>
			<clipPath id="SVGID_2_">
				<use xlink:href="#SVGID_1_"  style="overflow:visible;"/>
			</clipPath>
			<path class="st0" d="M194.1,65.9v9.2h9.2 M203.5,56.5v9.2h9.2 M194.1,75.1l-9.8,9.9l-12.1,12.1l-12.1,12.1L148,121.3l-9.9,9.9
				l-3.5,3.5 M167.5,119.9c2,4.5,3.2,9.5,3.2,14.7c0,19.9-16.2,36-36,36c-19.8,0-36-16.1-36-36s16.1-36,36-36
				c9.9,0,18.9,4,25.4,10.5L148,121.3c-3.4-3.4-8.1-5.5-13.3-5.5c-10.4,0-18.9,8.5-18.9,18.9c0,10.4,8.5,18.9,18.9,18.9
				c10.4,0,18.9-8.5,18.9-18.9c0-0.3,0-0.5,0-0.8 M180.1,107.3c4.8,8,7.6,17.4,7.6,27.4c0,29.3-23.8,53.1-53.2,53.1
				c-29.3,0-53.1-23.9-53.1-53.1s23.8-53.1,53.1-53.1c14.7,0,27.9,6,37.5,15.6l-12.1,12.1L148,121.3c-3.4-3.4-8.1-5.5-13.3-5.5
				c-10.4,0-18.9,8.5-18.9,18.9c0,10.4,8.5,18.9,18.9,18.9c10.4,0,18.9-8.5,18.9-18.9c0-0.3,0-0.5,0-0.8 M192.5,94.9
				c5.2,7.6,9,16.2,10.9,25.5 M204.9,134.6c0,38.7-31.5,70.3-70.3,70.3c-38.7,0-70.3-31.5-70.3-70.3s31.5-70.3,70.3-70.3
				c18.7,0,35.7,7.3,48.2,19.2c0.5,0.4,0.9,0.9,1.4,1.4l-12.1,12.1l-12.1,12.1L148,121.3c-3.4-3.4-8.1-5.5-13.3-5.5
				c-10.4,0-18.9,8.5-18.9,18.9c0,10.4,8.5,18.9,18.9,18.9c10.4,0,18.9-8.5,18.9-18.9c0-0.3,0-0.5,0-0.8"/>
		</g>
		<g>
			<defs>
				<rect id="SVGID_3_" x="48.1" y="48.1" width="173.1" height="173.1"/>
			</defs>
			<clipPath id="SVGID_4_">
				<use xlink:href="#SVGID_3_"  style="overflow:visible;"/>
			</clipPath>
			<path class="st1" d="M139.6,134.6c0,2.7-2.2,4.9-4.9,4.9c-2.7,0-4.9-2.2-4.9-4.9s2.2-4.9,4.9-4.9c1.4,0,2.6,0.5,3.5,1.4
				S139.6,133.3,139.6,134.6z"/>
		</g>
		<g>
			<defs>
				<rect id="SVGID_5_" x="48.1" y="48.1" width="173.1" height="173.1"/>
			</defs>
			<clipPath id="SVGID_6_">
				<use xlink:href="#SVGID_5_"  style="overflow:visible;"/>
			</clipPath>
			<path class="st2" d="M48.1,134.6h4 M217.2,134.6h4 M134.6,221.2v-4 M134.6,52.1v-4"/>
		</g>
	</g>
</g>
</svg>
