<?xml version="1.0" encoding="utf-8"?>
<!-- Generator: Adobe Illustrator 25.0.0, SVG Export Plug-In . SVG Version: 6.00 Build 0)  -->
<svg version="1.1" id="Layer_1" xmlns="http://www.w3.org/2000/svg" xmlns:xlink="http://www.w3.org/1999/xlink" x="0px" y="0px"
	 viewBox="0 0 269.3 269.3" style="enable-background:new 0 0 269.3 269.3;" xml:space="preserve">
<style type="text/css">
	.st0{fill:none;stroke:#CF30BA;stroke-width:6.5495;stroke-linecap:square;stroke-miterlimit:10;}
</style>
<g>
	<path class="st0" d="M150.7,63.6h-28.6 M136.4,49.4V78 M125.6,87.5H97 M111.3,73.2v28.6 M142.6,126.4H114 M128.3,112.1v28.6
		 M165.1,97.8h-28.6 M150.8,83.5v28.6 M85.5,111.1h25.8 M186,198.5c0,5.9-4.8,10.7-10.7,10.7c-5.9,0-10.7-4.8-10.7-10.7
		s4.8-10.7,10.7-10.7C181.2,187.8,186,192.6,186,198.5z M118,198.5c0,5.9-4.8,10.7-10.7,10.7s-10.7-4.8-10.7-10.7
		s4.8-10.7,10.7-10.7C113.2,187.7,118,192.6,118,198.5z M186.3,179h-73.2c-4.5,0-7.2-2.4-9.4-7.2c-2.5-5.3-20.9-59.8-26.5-77.2
		c-1-3-3.7-4.9-6.8-4.9h-25 M164.9,111.1h25c4.9,0,8,3.3,6.7,7.1l-11,32.4c-1.6,4.2-5.6,7-10,7h-75"/>
</g>
</svg>
