<?xml version="1.0" encoding="utf-8"?>
<!-- Generator: Adobe Illustrator 24.3.0, SVG Export Plug-In . SVG Version: 6.00 Build 0)  -->
<svg version="1.1" id="Layer_1" xmlns="http://www.w3.org/2000/svg" xmlns:xlink="http://www.w3.org/1999/xlink" x="0px" y="0px"
	 viewBox="0 0 269.3 269.3" style="enable-background:new 0 0 269.3 269.3;" xml:space="preserve">
<style type="text/css">
	.st0{clip-path:url(#SVGID_2_);fill:none;stroke:#CF30BA;stroke-width:5;stroke-miterlimit:10;}
</style>
<g>
	<g>
		<defs>
			<rect id="SVGID_1_" x="46.1" y="46.1" width="176.8" height="178"/>
		</defs>
		<clipPath id="SVGID_2_">
			<use xlink:href="#SVGID_1_"  style="overflow:visible;"/>
		</clipPath>
		<path class="st0" d="M96.2,132.2c-1.8-3.8-2.8-8.1-2.8-12.6c0-16.5,13.4-29.9,29.9-29.9c16.5,0,29.9,13.4,29.9,29.9
			c0,4.5-1,8.8-2.8,12.6 M106.4,127.5c-1.1-2.4-1.8-5.1-1.8-7.9c0-10.3,8.4-18.7,18.7-18.7s18.7,8.4,18.7,18.7
			c0,2.8-0.6,5.5-1.8,7.9 M190.5,59.8h-7.5 M201.7,59.8h-7.5 M212.9,59.8h-7.5 M48.6,71h171.8 M94.1,205.4H52.7
			c-2.3,0-4.1-1.8-4.1-4.1V52.7c0-2.3,1.8-4.1,4.1-4.1h163.6c2.3,0,4.1,1.8,4.1,4.1v148.6c0,2.3-1.8,4.1-4.1,4.1h-30.1 M160.7,175.6
			v-14.9c0-4.1,3.3-7.5,7.5-7.5c4.1,0,7.5,3.3,7.5,7.5v14.9v26.1c0,3.3-1.3,6.4-3.7,8.6s-3.7,5.3-3.7,8.6v1.6v3.7 M130.8,149.4
			v-29.6c0-3.3-1.9-6.4-5-7.4c-5.2-1.6-9.9,2.2-9.9,7.1v50.9c0,1.3-1.7,1.7-2.3,0.5l-8.9-17.9c-2.1-4.3-7.1-6.3-11.6-4.8
			c-1.8,0.6-2.9,2.6-2.3,4.5l12.6,43.6c0.8,2.8,2.3,5.4,4.3,7.6l3.1,3.4c3.2,3.5,5,8.2,5,13v3.7 M145.7,171.8v-18.7
			c0-4.1,3.3-7.5,7.5-7.5s7.5,3.3,7.5,7.5v14.9 M130.8,168.1v-22.4c0-4.1,3.3-7.5,7.5-7.5s7.5,3.3,7.5,7.5v14.9"/>
	</g>
</g>
</svg>
