<?xml version="1.0" encoding="utf-8"?>
<!-- Generator: Adobe Illustrator 24.3.0, SVG Export Plug-In . SVG Version: 6.00 Build 0)  -->
<svg version="1.1" id="Layer_1" xmlns="http://www.w3.org/2000/svg" xmlns:xlink="http://www.w3.org/1999/xlink" x="0px" y="0px"
	 viewBox="0 0 269.3 269.3" style="enable-background:new 0 0 269.3 269.3;" xml:space="preserve">
<style type="text/css">
	.st0{clip-path:url(#SVGID_2_);fill:none;stroke:#CF30BA;stroke-width:5;stroke-linecap:square;stroke-miterlimit:10;}
</style>
<g>
	<g>
		<defs>
			<rect id="SVGID_1_" x="36.8" y="48.9" width="195.5" height="171.3"/>
		</defs>
		<clipPath id="SVGID_2_">
			<use xlink:href="#SVGID_1_"  style="overflow:visible;"/>
		</clipPath>
		<path class="st0" d="M128.5,185.1c0,8.2-6.9,14.9-15.4,14.9s-15.4-6.7-15.4-14.9s6.9-14.9,15.4-14.9S128.5,176.9,128.5,185.1z
			 M137,208.2c-13.2,12.8-34.6,12.8-47.8,0s-13.2-33.4,0-46.2C102.4,149.2,193,99,193,99S150.2,195.4,137,208.2z M153.7,99
			c-10.8-9.2-25.1-14.9-40.7-14.9c-33.9,0-61.5,26.6-61.5,59.4H39.2c0-50.9,42.7-92.1,95.3-92.1s95.3,41.2,95.3,92.1h-36.9"/>
	</g>
</g>
</svg>
