<?xml version="1.0" encoding="UTF-8"?><svg id="a" xmlns="http://www.w3.org/2000/svg" viewBox="0 0 127.1 267.55"><defs><style>.b{fill:#c3a368;}</style></defs><path class="b" d="M4.72,39.61c.03-1.23,1.04-2.2,2.26-2.17,1.19,.02,2.15,.98,2.17,2.17-.03,1.23-1.04,2.2-2.26,2.17-1.19-.02-2.15-.98-2.17-2.17Z"/><path class="b" d="M5.51,59.57c1.22,.03,2.24-.95,2.26-2.17,.03-1.22-.95-2.24-2.17-2.26-.03,0-.06,0-.09,0-1.22,0-2.21,.98-2.22,2.19,0,0,0,.02,0,.02,0,1.22,1,2.21,2.22,2.22h0Z"/><path class="b" d="M21.43,52.7c-.01,.78,.61,1.42,1.39,1.43s1.42-.61,1.43-1.39c.01-.78-.61-1.42-1.39-1.43h0c-.78-.01-1.42,.61-1.43,1.38h0Z"/><path class="b" d="M11.77,55.06c.02,.78,.65,1.4,1.43,1.4,.78-.04,1.38-.7,1.35-1.48-.03-.73-.62-1.32-1.35-1.35-.79,0-1.43,.64-1.43,1.43h0Z"/><path class="b" d="M17.28,21.43c0,.79,.64,1.43,1.43,1.43,.78-.02,1.4-.67,1.38-1.45-.02-.75-.62-1.36-1.38-1.38-.78,0-1.41,.62-1.43,1.4h0Z"/><path class="b" d="M19.89,78.99c-1.76,.02-3.17,1.46-3.15,3.22,.02,1.76,1.46,3.17,3.22,3.15,1.74-.02,3.15-1.44,3.15-3.18,0-1.76-1.44-3.19-3.2-3.18h-.02Z"/><path class="b" d="M11.13,78.7c4.82-.02,8.71-3.94,8.69-8.76-.02-4.82-3.94-8.71-8.76-8.69-4.81,.02-8.69,3.92-8.69,8.73,0,4.83,3.92,8.74,8.75,8.73h.01Z"/><path class="b" d="M6.98,93.87c3.21-.01,5.8-2.62,5.79-5.83-.01-3.21-2.62-5.8-5.83-5.79-3.2,.01-5.78,2.6-5.79,5.79,0,3.22,2.61,5.83,5.83,5.84h0Z"/><path class="b" d="M34.06,54.73c0,.78,.64,1.4,1.42,1.39h.01c.76,.01,1.38-.6,1.39-1.35,0-.01,0-.03,0-.04,.01-.78-.6-1.42-1.38-1.43h-.01c-.79,0-1.43,.65-1.43,1.44h0Z"/><path class="b" d="M9.19,32.13c1.95,0,3.53-1.57,3.54-3.52,0,0,0-.02,0-.03-.05-1.96-1.67-3.5-3.62-3.46-1.89,.04-3.41,1.57-3.46,3.46,0,1.96,1.59,3.54,3.54,3.55h0Z"/><path class="b" d="M25.94,23.79c2.44,0,4.43-1.96,4.43-4.4s-1.96-4.43-4.4-4.43c-2.44,0-4.43,1.96-4.43,4.4,0,.01,0,.02,0,.04,0,2.43,1.98,4.4,4.4,4.4h0Z"/><path class="b" d="M25.94,58.02c-.01,1.21,.96,2.21,2.18,2.22h0c1.23,0,2.24-.99,2.24-2.23,0-1.23-.99-2.24-2.23-2.24h-.01c-1.22,.02-2.19,1.02-2.18,2.23v.03h0Z"/><path class="b" d="M11.84,11.91c3.29-.01,5.95-2.69,5.94-5.97C17.77,2.65,15.1-.01,11.81,0c-3.28,.01-5.93,2.66-5.94,5.94,0,3.3,2.67,5.98,5.97,5.98h0Z"/><path class="b" d="M27.33,9.05c.78,.02,1.43-.6,1.45-1.38s-.6-1.43-1.38-1.45c-.02,0-.05,0-.07,0-.78,.04-1.38,.7-1.35,1.48,.03,.73,.62,1.32,1.35,1.35Z"/><path class="b" d="M32.26,48.16c6.07,0,10.98-4.92,10.98-10.98s-4.92-10.98-10.98-10.98c-6.07,0-10.98,4.92-10.98,10.98v.04c-.01,6.03,4.87,10.93,10.9,10.95,.03,0,.06,0,.08,0Z"/><path class="b" d="M17.85,33.85c.01-.78-.61-1.42-1.39-1.43-.78-.01-1.42,.61-1.43,1.39-.01,.78,.61,1.42,1.39,1.43h0c.78,.02,1.42-.6,1.44-1.37v-.02h0Z"/><path class="b" d="M22.68,67.22c.79,0,1.43-.64,1.43-1.43-.02-.78-.67-1.4-1.45-1.38-.75,.02-1.36,.62-1.38,1.38,0,.78,.62,1.41,1.4,1.43h0Z"/><path class="b" d="M36.02,17.82c1.23,0,2.24-.99,2.25-2.22,0-1.23-.99-2.24-2.22-2.25-1.23,0-2.24,.98-2.25,2.22-.01,1.23,.98,2.24,2.22,2.25h0Z"/><path class="b" d="M6.26,16.03c-.01,.78,.61,1.42,1.39,1.43s1.42-.61,1.43-1.39c.01-.78-.61-1.42-1.39-1.43h0c-.78-.01-1.41,.61-1.43,1.38h0Z"/><path class="b" d="M19.64,46.15c0-2.71-2.2-4.9-4.9-4.9-2.71,0-4.9,2.2-4.9,4.9,0,2.69,2.17,4.88,4.86,4.9,2.71,.01,4.93-2.18,4.94-4.89h0Z"/><path class="b" d="M47.08,44.97c-2.35-.02-4.27,1.87-4.29,4.22-.02,1.77,1.07,3.37,2.72,4.01,1.4,.59,2.06,2.21,1.46,3.61-.43,1.02-1.43,1.68-2.53,1.68-.22,0-.44-.04-.64-.11-.21-.04-.43-.07-.64-.07-1.15,0-2.07,.93-2.07,2.07-.01,1.01,.72,1.88,1.72,2.04,2.23,.54,3.6,2.78,3.07,5.01-.45,1.86-2.11,3.18-4.03,3.18-1.53,0-2.93-.83-3.65-2.18-1.44-3.34-5.32-4.87-8.65-3.43-3.34,1.44-4.87,5.32-3.43,8.65,1.04,2.41,3.41,3.97,6.04,3.97h.25c1.19-.02,2.16,.92,2.18,2.11,.02,1.19-.92,2.16-2.11,2.18-.69,.01-1.34-.31-1.76-.86-.42-.58-1.1-.93-1.83-.93-1.26,0-2.28,1.03-2.29,2.29,.01,1.25,1.04,2.26,2.29,2.25h.32c2.27-.03,4.14,1.78,4.18,4.05,.03,2.27-1.78,4.14-4.05,4.18-.04,0-.08,0-.12,0-1.33,.01-2.58-.64-3.33-1.75-2.02-2.84-5.95-3.51-8.79-1.49s-3.51,5.95-1.49,8.79c1.04,1.47,2.66,2.42,4.45,2.62,1.58,.23,2.68,1.7,2.45,3.28-.23,1.58-1.7,2.68-3.28,2.45-1.1-.16-2.02-.94-2.35-2.01-.49-1.91-2.45-3.07-4.36-2.57-1.59,.41-2.7,1.86-2.69,3.5,0,.82,.27,1.62,.79,2.25h.04c.05,.1,.12,.19,.22,.25,1.63,1.97,1.36,4.89-.61,6.52-1.97,1.63-4.89,1.36-6.52-.61-1.63-1.97-1.36-4.89,.61-6.52,.47-.39,1-.68,1.58-.86,2.04-.47,3.49-2.27,3.51-4.36,0-2.45-2-4.44-4.45-4.44-2.19,0-4.05,1.6-4.38,3.76l-.04-.04c-.18,1.82-.36,3.51-.54,5.15v56.7c0,.25,.04,.5,.04,.71,.04,2.5,.11,6.83,.18,10.05v.32c.04,2.18,.07,3.79,.07,3.79,0,.28,.02,.55,.07,.82,.43,2.22,.82,4.43,1.22,6.65h.04c1.35,4.89,3.71,9.43,6.94,13.34,4.26,5.03,9.43,9.22,15.24,12.34,2.63,1.41,5.39,2.58,8.23,3.51,5.43,1.82,11.07,2.97,16.78,3.43,1.86,.18,2.39-.36,2.39-2.18V48.09c-.51-1.85-2.19-3.13-4.11-3.12h0Z"/><path class="b" d="M48,41.36c0,.78,.64,1.41,1.42,1.41,.78,0,1.41-.63,1.41-1.41,0-.78-.63-1.41-1.41-1.42-.78,0-1.41,.63-1.42,1.41h0Z"/><path class="b" d="M112.07,98.63c-8.12-6.83-17.6-10.59-27.83-12.41-2.79-.39-5.59-.62-8.41-.72,0,.82,.07,1.07,.07,1.32v125.7c0,.25,0,.5,.04,.75,.04,2.47,.11,6.8,.18,10.02v.32c.04,2.18,.07,3.79,.07,3.79-.03,.28,0,.55,.07,.82,.43,2.22,.82,4.44,1.25,6.65,1.35,4.89,3.71,9.44,6.94,13.35,10.52,12.45,24.43,17.85,40.24,19.28,1.86,.18,2.4-.36,2.4-2.18V129.47c-.39-12.63-5.54-22.86-15.02-30.84h0Z"/><path class="b" d="M44.57,27.84c.26,.04,.52,.07,.79,.07,.74,0,1.45-.24,2.04-.68,.14-.14,.29-.25,.43-.39,.16-.09,.28-.23,.36-.39,.44-.57,.68-1.28,.68-2,0-1.67-1.16-3.12-2.79-3.47-.24-.04-.48-.07-.72-.07-.76-.01-1.5,.23-2.11,.68-.14,.14-.29,.25-.43,.39-.13,.12-.25,.25-.36,.39-.44,.59-.68,1.31-.68,2.04,0,1.66,1.17,3.09,2.79,3.44h0Z"/></svg>