<svg xmlns="http://www.w3.org/2000/svg" width="32.5" height="25.75" viewBox="0 0 32.5 25.75">
  <g id="Icon_ionic-md-megaphone" data-name="Icon ionic-md-megaphone" transform="translate(-1.75 -5.125)">
    <path id="Path_705" data-name="Path 705" d="M26.866,10.083,25.242,11.7a5.721,5.721,0,0,1,0,8.1l1.624,1.624a8.021,8.021,0,0,0,0-11.341Z" fill="none" stroke="#fff" stroke-linecap="round" stroke-linejoin="round" stroke-width="1"/>
    <path id="Path_706" data-name="Path 706" d="M30.108,6.961l-1.6,1.6a10.185,10.185,0,0,1,0,14.386l1.6,1.6a12.426,12.426,0,0,0,0-17.578Z" fill="none" stroke="#fff" stroke-linecap="round" stroke-linejoin="round" stroke-width="1"/>
    <path id="Path_707" data-name="Path 707" d="M22.5,12.945V5.625H20.25L13.5,11.25h-9L2.25,12.375V20.25L4.5,21.375l5.625,9H13.5l-2.109-9H13.5l6.75,4.5H22.5v-7.32a2.664,2.664,0,0,0,2.25-2.805A2.664,2.664,0,0,0,22.5,12.945Z" fill="none" stroke="#fff" stroke-linecap="round" stroke-linejoin="round" stroke-width="1"/>
  </g>
</svg>
