<svg xmlns="http://www.w3.org/2000/svg" width="11.68" height="2.24" viewBox="0 0 11.68 2.24">
  <path id="Path_709" data-name="Path 709" d="M-5.68-.96A1.113,1.113,0,0,0-4.56.16,1.113,1.113,0,0,0-3.44-.96,1.113,1.113,0,0,0-4.56-2.08,1.113,1.113,0,0,0-5.68-.96Zm4.72,0A1.113,1.113,0,0,0,.16.16,1.113,1.113,0,0,0,1.28-.96,1.113,1.113,0,0,0,.16-2.08,1.113,1.113,0,0,0-.96-.96Zm4.72,0A1.113,1.113,0,0,0,4.88.16,1.113,1.113,0,0,0,6-.96,1.113,1.113,0,0,0,4.88-2.08,1.113,1.113,0,0,0,3.76-.96Z" transform="translate(5.68 2.08)" fill="#fff"/>
</svg>
