<svg width="314" height="31" viewBox="0 0 314 31" fill="none" xmlns="http://www.w3.org/2000/svg">
<g clip-path="url(#clip0_2892_79)">
<path d="M19.692 17.256H5.481V30.045H0V1.62402H5.481V12.384H19.692V1.62402H25.173V30.045H19.692V17.256Z" fill="white"/>
<path d="M50.354 30.046H45.277V28.462C43.7541 29.7713 41.8051 30.4786 39.797 30.451C38.3933 30.4545 37.0049 30.1596 35.7239 29.5856C34.4429 29.0117 33.2987 28.1719 32.367 27.122C30.73 25.1969 29.8371 22.7489 29.85 20.222C29.85 14.416 34.15 9.95 39.513 9.95C41.6071 9.92408 43.6449 10.6276 45.277 11.94V10.356H50.353L50.354 30.046ZM45.077 17.257C44.5117 16.4986 43.7765 15.8832 42.9304 15.4601C42.0844 15.0371 41.1509 14.8182 40.205 14.821C38.8215 14.9002 37.5218 15.5095 36.576 16.5224C35.6303 17.5352 35.1113 18.8736 35.127 20.2593C35.1427 21.6449 35.6919 22.9712 36.6604 23.9623C37.6288 24.9535 38.9421 25.5332 40.327 25.581C41.2564 25.5879 42.1738 25.3699 43.0009 24.9458C43.8279 24.5216 44.5402 23.9038 45.077 23.145V17.257Z" fill="white"/>
<path d="M68.4269 15.023C67.8024 14.8733 67.161 14.806 66.519 14.823C65.5469 14.8602 64.5995 15.1398 63.7628 15.6361C62.9262 16.1324 62.2267 16.8298 61.7279 17.665V30.049H56.45V10.354H61.524V12.343C62.2464 11.5508 63.1328 10.9257 64.1216 10.5112C65.1103 10.0967 66.1776 9.90277 67.2489 9.94296C67.8481 9.94727 68.4458 10.0015 69.0359 10.105L68.4269 15.023Z" fill="white"/>
<path d="M85.0761 15.023C84.4516 14.8732 83.8101 14.806 83.1681 14.823C82.1961 14.8604 81.2487 15.14 80.4121 15.6363C79.5755 16.1326 78.876 16.8299 78.3771 17.665V30.049H73.1001V10.354H78.1741V12.343C78.8965 11.5508 79.783 10.9257 80.7718 10.5112C81.7605 10.0967 82.8277 9.90277 83.8991 9.94296C84.4982 9.9473 85.096 10.0015 85.6861 10.105L85.0761 15.023Z" fill="white"/>
<path d="M92.3871 0.000968846C93.0502 0.0167106 93.6939 0.227765 94.2377 0.607658C94.7814 0.987552 95.201 1.5194 95.4439 2.13665C95.6868 2.7539 95.7422 3.42911 95.6031 4.07769C95.4641 4.72627 95.1368 5.3194 94.6622 5.78283C94.1877 6.24626 93.5869 6.55937 92.9352 6.68298C92.2835 6.80658 91.6098 6.73519 90.9985 6.47771C90.3872 6.22024 89.8655 5.78815 89.4986 5.23553C89.1317 4.6829 88.936 4.03428 88.936 3.37096C88.9374 2.92194 89.0282 2.47769 89.2031 2.06414C89.378 1.65059 89.6336 1.27605 89.9549 0.962334C90.2761 0.648616 90.6566 0.402046 91.0742 0.236992C91.4918 0.0719379 91.9381 -0.00832985 92.3871 0.000968846ZM95.026 30.046H89.748V10.354H95.028L95.026 30.046Z" fill="white"/>
<path d="M137.855 30.046V10.354H142.93V11.938C144.495 10.6448 146.463 9.94071 148.493 9.94796C149.792 9.94416 151.077 10.2258 152.255 10.7731C153.434 11.3204 154.477 12.1198 155.313 13.115C156.613 14.659 157.344 16.648 157.344 20.015V30.044H152.066V19.611C152.066 17.663 151.619 16.648 150.888 15.917C150.084 15.1735 149.019 14.7781 147.925 14.817C146.996 14.8433 146.084 15.0755 145.256 15.4967C144.427 15.918 143.703 16.5178 143.134 17.253V30.042L137.855 30.046Z" fill="white"/>
<path d="M178.642 15.835C178.617 17.1177 178.851 18.3923 179.329 19.5829C179.807 20.7735 180.52 21.8557 181.425 22.765C182.33 23.6743 183.409 24.3922 184.597 24.8758C185.786 25.3594 187.059 25.5989 188.342 25.58C189.896 25.5978 191.434 25.2507 192.83 24.5666C194.226 23.8825 195.442 22.8804 196.38 21.641L200.156 25.011C198.711 26.7663 196.885 28.1688 194.817 29.1115C192.748 30.0543 190.491 30.5124 188.219 30.451C179.368 30.451 173.157 23.996 173.157 15.835C173.157 7.674 179.288 1.21897 188.137 1.21897C191.999 1.16121 195.73 2.61865 198.531 5.27897L195 9.01499C194.1 8.09655 193.026 7.36542 191.842 6.86374C190.658 6.36207 189.386 6.0998 188.1 6.09202C186.834 6.0946 185.582 6.35051 184.417 6.84464C183.252 7.33877 182.198 8.06114 181.317 8.96915C180.435 9.87717 179.744 10.9525 179.285 12.1316C178.826 13.3108 178.607 14.57 178.642 15.835Z" fill="white"/>
<path d="M222.903 30.046H217.827V28.462C216.304 29.7714 214.355 30.4788 212.346 30.451C210.942 30.4545 209.554 30.1596 208.273 29.5856C206.992 29.0117 205.848 28.1719 204.916 27.122C203.28 25.1966 202.387 22.7487 202.4 20.222C202.4 14.416 206.7 9.94999 212.063 9.94999C214.157 9.92432 216.195 10.6278 217.827 11.94V10.356H222.903V30.046ZM217.625 17.257C217.06 16.4987 216.324 15.8833 215.478 15.4603C214.632 15.0373 213.699 14.8184 212.753 14.821C211.37 14.9001 210.07 15.5093 209.124 16.5221C208.178 17.5348 207.659 18.8731 207.675 20.2588C207.69 21.6444 208.239 22.9707 209.208 23.962C210.176 24.9532 211.489 25.533 212.874 25.581C213.804 25.5879 214.721 25.3701 215.548 24.9459C216.376 24.5217 217.088 23.9039 217.625 23.145V17.257Z" fill="white"/>
<path d="M240.977 15.023C240.352 14.8731 239.709 14.8059 239.066 14.823C238.094 14.8607 237.147 15.1403 236.311 15.6366C235.474 16.1329 234.775 16.8301 234.276 17.665V30.049H228.997V10.354H234.073V12.343C234.795 11.5506 235.682 10.9254 236.671 10.5109C237.659 10.0964 238.727 9.90255 239.798 9.94295C240.397 9.94724 240.995 10.0015 241.585 10.105L240.977 15.023Z" fill="white"/>
<path d="M250.925 30.046H245.646V1.21701H250.925V30.046Z" fill="white"/>
<path d="M265.868 9.94795C267.885 9.99124 269.845 10.6288 271.502 11.7807C273.158 12.9326 274.439 14.5477 275.182 16.4238C275.925 18.2998 276.098 20.3534 275.679 22.3273C275.26 24.3012 274.268 26.1077 272.828 27.5205C271.387 28.9334 269.562 29.8898 267.58 30.27C265.598 30.6501 263.548 30.4372 261.687 29.6578C259.826 28.8784 258.236 27.5672 257.117 25.8884C255.997 24.2096 255.398 22.2378 255.394 20.22C255.391 18.8532 255.662 17.4996 256.19 16.2389C256.718 14.9782 257.492 13.8357 258.468 12.8787C259.444 11.9217 260.601 11.1694 261.872 10.6661C263.143 10.1628 264.502 9.91862 265.868 9.94795ZM265.868 25.58C266.941 25.6164 268 25.3315 268.909 24.7615C269.819 24.1916 270.537 23.3629 270.972 22.3817C271.407 21.4005 271.539 20.3116 271.35 19.255C271.162 18.1983 270.662 17.2221 269.915 16.4518C269.167 15.6814 268.207 15.1521 267.156 14.9318C266.106 14.7114 265.013 14.8101 264.02 15.2151C263.026 15.6201 262.175 16.3131 261.578 17.2049C260.981 18.0967 260.664 19.1467 260.668 20.22C260.639 20.9182 260.752 21.6149 261.001 22.2679C261.25 22.9209 261.629 23.5163 262.116 24.0178C262.602 24.5194 263.186 24.9166 263.831 25.1851C264.476 25.4537 265.169 25.588 265.868 25.58Z" fill="white"/>
<path d="M281.426 24.036C282.936 25.3083 284.851 25.9994 286.826 25.985C288.247 25.985 289.345 25.295 289.345 24.32C289.345 21.356 279.803 22.412 279.803 16.078C279.803 12.303 283.457 9.94797 287.354 9.94797C289.72 9.95321 292.033 10.6445 294.013 11.938L291.536 15.755C290.446 14.9303 289.127 14.4624 287.761 14.415C286.3 14.415 285.08 14.984 285.08 15.999C285.08 18.557 294.622 17.541 294.622 24.363C294.622 28.139 290.922 30.453 286.786 30.453C283.936 30.4232 281.167 29.5006 278.869 27.815L281.426 24.036Z" fill="white"/>
<path d="M299.903 24.036C301.413 25.3081 303.328 25.9993 305.303 25.985C306.724 25.985 307.819 25.295 307.819 24.32C307.819 21.356 298.277 22.412 298.277 16.078C298.277 12.303 301.931 9.94797 305.828 9.94797C308.194 9.95246 310.507 10.6438 312.487 11.938L310.009 15.755C308.919 14.9299 307.6 14.462 306.234 14.415C304.774 14.415 303.556 14.984 303.556 15.999C303.556 18.557 313.095 17.541 313.095 24.363C313.095 28.139 309.402 30.453 305.26 30.453C302.41 30.4234 299.641 29.5008 297.343 27.815L299.903 24.036Z" fill="white"/>
<path d="M101.894 26.231C102.043 26.0941 102.238 26.0166 102.44 26.0131C102.643 26.0096 102.84 26.0803 102.994 26.212C103.845 26.9429 104.923 27.356 106.045 27.381C106.973 27.3872 107.87 27.0457 108.559 26.424C108.93 26.081 109.226 25.6643 109.427 25.2006C109.628 24.7369 109.73 24.2363 109.726 23.731C109.731 23.1921 109.619 22.6587 109.397 22.1678C109.174 21.6769 108.848 21.2404 108.439 20.889C107.72 20.3129 106.817 20.0154 105.896 20.051C104.77 20.0699 103.683 20.4708 102.814 21.188L101.283 20.969C101.021 20.9315 100.783 20.7925 100.622 20.5821C100.461 20.3716 100.388 20.1062 100.42 19.843L101.539 10.617C101.569 10.3725 101.687 10.1471 101.871 9.98343C102.055 9.81973 102.293 9.72888 102.539 9.728H113.111C113.111 10.6802 112.732 11.5933 112.059 12.2666C111.386 12.9398 110.472 13.318 109.52 13.318H104.934L104.605 16.609C105.137 16.5081 105.678 16.4582 106.22 16.46C107.98 16.4086 109.704 16.9687 111.098 18.045C111.936 18.736 112.609 19.6045 113.069 20.5877C113.53 21.571 113.766 22.6443 113.761 23.73C113.736 24.7145 113.516 25.6842 113.113 26.5828C112.71 27.4814 112.133 28.2911 111.414 28.9648C110.696 29.6385 109.851 30.1629 108.929 30.5075C108.006 30.852 107.024 31.0099 106.04 30.972C103.965 30.9978 101.951 30.2633 100.38 28.907C100.291 28.8315 100.219 28.7379 100.168 28.6325C100.118 28.5271 100.09 28.4122 100.087 28.2954C100.084 28.1786 100.106 28.0625 100.151 27.9547C100.196 27.847 100.264 27.7499 100.349 27.67L101.894 26.231ZM125.775 9.431C131.131 9.431 133.107 14.248 133.107 20.203C133.107 26.158 131.131 30.975 125.775 30.975C120.419 30.975 118.444 26.157 118.444 20.203C118.444 14.249 120.419 9.42502 125.775 9.42502V9.431ZM125.775 13.022C123.351 13.022 122.484 16.254 122.484 20.203C122.484 24.152 123.351 27.385 125.775 27.385C128.199 27.385 129.067 24.153 129.067 20.203C129.067 16.253 128.199 13.019 125.775 13.019V13.022Z" fill="url(#paint0_linear_2892_79)"/>
</g>
<defs>
<linearGradient id="paint0_linear_2892_79" x1="103.587" y1="32.1198" x2="115.865" y2="3.31813" gradientUnits="userSpaceOnUse">
<stop stop-color="#C28B13"/>
<stop offset="0.034" stop-color="#C89215"/>
<stop offset="0.086" stop-color="#D9A71C"/>
<stop offset="0.12" stop-color="#E8B923"/>
<stop offset="0.184" stop-color="#FFE25D"/>
<stop offset="0.203" stop-color="#FFE25D"/>
<stop offset="0.232" stop-color="#F2C63E"/>
<stop offset="0.252" stop-color="#EBB82E"/>
<stop offset="0.3" stop-color="#F1C63F"/>
<stop offset="0.314" stop-color="#F4CC46"/>
<stop offset="0.351" stop-color="#E9BB33"/>
<stop offset="0.377" stop-color="#E6B62C"/>
<stop offset="0.391" stop-color="#E0AE25"/>
<stop offset="0.421" stop-color="#DAA41D"/>
<stop offset="0.458" stop-color="#D8A11B"/>
<stop offset="0.517" stop-color="#D8A11B"/>
<stop offset="0.655" stop-color="#FFE762"/>
<stop offset="0.961" stop-color="#C28B13"/>
</linearGradient>
<clipPath id="clip0_2892_79">
<rect width="313.096" height="30.972" fill="white"/>
</clipPath>
</defs>
</svg>
