<svg width="251" height="119" viewBox="0 0 251 119" fill="none" xmlns="http://www.w3.org/2000/svg">
<path d="M145.379 10.307C144.162 9.6116 143.082 9.29567 142.141 9.36092C141.698 9.39182 141.347 9.55666 141.09 9.85199C139.658 12.4636 137.832 15.4118 135.61 18.6913C133.389 21.9743 130.835 25.6402 127.945 29.6941C122.667 37.0413 118.54 42.5204 115.564 46.1331C102.299 44.2117 91.4599 43.5455 83.043 44.1327C81.1604 44.2649 79.4627 44.4538 77.9497 44.6976C76.4351 44.9432 75.054 45.2763 73.8046 45.6987C67.7666 47.6836 63.6985 52.0139 61.6019 58.6915C60.9499 60.5236 60.5152 62.2836 60.2995 63.9749C60.0822 65.6644 60.0274 67.2596 60.1318 68.7585C60.3748 72.2579 61.5198 74.9416 63.5684 76.808C65.617 78.6745 68.3844 79.4574 71.8689 79.1587C78.8927 78.556 87.4911 74.1604 97.6605 65.9701C101.292 62.9824 104.606 60.0291 107.604 57.1118C110.601 54.1963 113.331 51.2275 115.792 48.209C119.562 48.8391 123.136 49.3989 126.507 49.8883C129.879 50.3793 133.082 50.8258 136.115 51.2275C136.007 53.6915 135.954 55.9563 135.959 58.0202C135.963 60.0858 136.026 61.9797 136.144 63.7001C136.464 68.3121 136.317 71.0147 138.053 74.2582C139.314 76.6174 143.558 78.2418 143.3 77.6168C143.185 77.3386 139.548 76.195 138.511 72.0724C137.666 68.7105 137.561 62.4587 137.724 59.9896C137.887 57.5222 139.473 41.9916 142.045 32.0568C142.632 29.7903 143.307 26.9864 144.133 23.6639C144.958 20.3414 145.941 16.4351 147.075 11.9451C147.159 11.5501 146.593 11.0024 145.376 10.3053L145.379 10.307ZM96.928 65.0171C87.5014 72.7095 79.2231 76.887 72.0914 77.5532C70.4878 77.7215 69.0878 77.5687 67.8864 77.0931C66.685 76.6192 65.6324 75.8825 64.7288 74.8849C63.1611 73.1524 62.2711 70.7314 62.0555 67.6201C61.8587 64.787 62.189 61.9453 63.0498 59.0933C64.0048 56.0129 65.3483 53.5318 67.082 51.6534C68.814 49.7732 70.9619 48.4391 73.5222 47.6441C74.7202 47.2818 76.0911 46.9761 77.6314 46.7289C79.1717 46.4834 80.9105 46.2911 82.8496 46.1554C92.6511 45.4703 103.014 46.0884 113.942 48.0047C108.432 54.4178 102.762 60.0892 96.928 65.0171ZM142.605 16.0265C138.638 31.8233 136.555 43.1042 136.356 49.8728C133.213 49.4779 130.05 49.0023 126.868 48.4425C123.685 47.8827 120.484 47.2423 117.262 46.5177C121.268 41.7169 125.203 36.6687 129.064 31.3751C132.925 26.0815 136.766 20.4839 140.585 14.579C140.842 14.282 141.049 14.0587 141.207 13.9076C141.362 13.7583 141.578 13.6724 141.857 13.6535C142.355 13.6192 142.636 14.0467 142.697 14.9344C142.709 15.101 142.679 15.4667 142.607 16.0299L142.605 16.0265Z" fill="black"/>
<path d="M178.489 24.7422C178.053 18.4527 174.467 13.044 167.733 8.51791C163.136 5.40663 156.914 3.07317 149.066 1.5141C141.52 -0.0054866 133.06 -0.304252 124.761 0.276108C116.7 0.839298 110.11 2.18718 103.921 4.66487C97.6178 7.21296 93.4213 12.1821 93.7276 17.5787C94.058 23.3944 98.583 26.3339 98.797 26.1863C99.3344 25.8119 95.3792 24.2237 94.9479 17.498C94.6484 12.8242 99.7742 2.91348 124.777 1.6755C132.966 1.27028 140.796 1.64116 148.289 3.28436C155.963 4.91555 161.955 7.41728 166.271 10.7878C171.777 14.9173 174.739 19.9792 175.155 25.9699C175.592 32.2594 172.809 37.5428 166.803 41.8131C163.374 44.2804 159.056 46.4783 153.849 48.4065C151.212 49.3131 148.816 50.0222 146.661 50.5339C144.505 51.0456 142.499 51.3066 140.64 51.3152C139.48 51.0353 138.758 50.7691 138.47 50.5185C138.183 50.2678 137.861 50.1544 137.501 50.1802C136.305 50.2643 135.754 50.934 135.841 52.1926C135.99 54.3492 138 58.6641 141.869 65.1356C145.739 71.6072 148.585 75.4722 150.414 76.7291C153.118 78.5268 155.422 79.2823 157.337 79.2257C160.796 79.1226 163.362 76.6638 162.975 76.5059C162.682 76.3857 161.517 77.7044 158.056 77.9121C156.264 78.0186 154.282 77.1515 152.112 75.2576C150.067 73.4736 147.762 70.0841 145.196 65.0858C142.833 60.4361 141.315 56.7187 140.642 53.9354C140.467 53.1661 140.591 52.7643 141.008 52.7352C143.387 52.4484 145.816 51.9797 148.29 51.3237C150.765 50.6696 153.346 49.8282 156.035 48.7963C160.827 46.9573 164.714 45.0308 167.695 43.015C175.385 37.9634 178.984 31.8731 178.487 24.7439L178.489 24.7422Z" fill="black"/>
<path d="M4.88962 110.754L1.67894 118.295H0L10.8027 92.6663H12.6271L24.5234 118.295H20.9841L17.4808 110.754H4.88962ZM10.9841 96.7666H10.8386L5.58447 109.105H16.7141L10.9841 96.7666Z" fill="black"/>
<path d="M52.2592 92.6681V118.736H52.076L31.8227 98.7086H31.6772V118.297H29.9983V92.2285H30.1814L50.4348 112.256H50.5802V92.6698H52.2592V92.6681Z" fill="black"/>
<path d="M84.2635 118.297H81.1606V116.796C80.2347 117.285 79.0641 117.73 77.6521 118.132C76.2385 118.535 74.6177 118.736 72.7899 118.736C70.3528 118.736 68.258 118.352 66.5037 117.584C64.7478 116.815 63.305 115.79 62.1721 114.509C61.0391 113.228 60.1988 111.775 59.6494 110.153C59.1 108.53 58.8279 106.851 58.8279 105.118C58.8279 103.092 59.1804 101.281 59.8856 99.6805C60.5907 98.0819 61.5765 96.734 62.8412 95.6351C64.106 94.5362 65.6087 93.6949 67.3475 93.1093C69.0863 92.5238 70.9912 92.2302 73.0586 92.2302C74.8591 92.2302 76.4216 92.4311 77.748 92.8346C79.0744 93.2364 80.1868 93.7326 81.087 94.3181C81.9873 94.9037 82.6975 95.5321 83.2212 96.2035C83.7449 96.8748 84.1163 97.4792 84.3337 98.0149H81.7066C81.5611 97.5033 81.2376 96.9967 80.7396 96.4953C80.2399 95.9957 79.6015 95.551 78.8245 95.1595C78.0458 94.7697 77.1575 94.4521 76.1598 94.2083C75.162 93.9644 74.0923 93.8425 72.9491 93.8425C71.2222 93.8425 69.7076 94.1241 68.4052 94.6856C67.1045 95.2471 66.0023 96.0403 65.1021 97.0654C64.2018 98.0905 63.5258 99.3113 63.0757 100.728C62.6256 102.143 62.4014 103.693 62.4014 105.378C62.4014 107.062 62.6376 108.654 63.1151 110.082C63.5909 111.509 64.3028 112.742 65.2544 113.779C66.2042 114.818 67.3988 115.628 68.8382 116.214C70.2758 116.799 71.9581 117.091 73.8835 117.091C75.3468 117.091 76.6509 116.921 77.7959 116.58C78.9409 116.238 80.0636 115.712 81.1606 115.005V108.377H77.0737V106.877H84.2635V118.3V118.297Z" fill="black"/>
<path d="M107.327 92.668V94.6821H94.1523V103.872H105.465V105.556H94.1523V116.284H107.327V118.298H90.832V92.6697H107.327V92.668Z" fill="black"/>
<path d="M112.8 118.297V92.668H116.122V116.282H129.297V118.297H112.802H112.8Z" fill="black"/>
<path d="M155.826 92.668C157.455 92.668 158.806 92.8929 159.877 93.3445C160.947 93.7961 161.792 94.3575 162.414 95.0289C163.035 95.7003 163.471 96.4266 163.728 97.2078C163.983 97.9891 164.111 98.7085 164.111 99.3679C164.111 100.101 163.99 100.851 163.75 101.619C163.509 102.388 163.124 103.102 162.595 103.762C162.064 104.421 161.382 104.971 160.548 105.408C159.713 105.848 158.712 106.104 157.544 106.178V106.325L157.909 106.507C158.2 106.655 158.45 106.837 158.657 107.057C158.864 107.277 159.131 107.63 159.46 108.118C159.788 108.607 160.23 109.296 160.786 110.187C161.34 111.078 162.126 112.268 163.137 113.757C163.475 114.27 163.802 114.727 164.116 115.129C164.431 115.53 164.758 115.874 165.099 116.154C165.439 116.435 165.804 116.648 166.194 116.794C166.583 116.942 167.033 117.014 167.544 117.014C167.666 117.014 167.788 117.007 167.909 116.995C168.031 116.983 168.152 116.964 168.274 116.94V118.295C167.933 118.489 167.592 118.612 167.252 118.661C166.911 118.709 166.473 118.734 165.937 118.734C165.207 118.734 164.582 118.637 164.062 118.441C163.541 118.247 163.076 117.984 162.667 117.654C162.258 117.325 161.878 116.928 161.529 116.464C161.18 116.001 160.824 115.489 160.462 114.928L157.568 110.644C157.129 109.962 156.75 109.387 156.432 108.923C156.115 108.46 155.771 108.08 155.407 107.788C155.041 107.496 154.632 107.289 154.18 107.167C153.728 107.045 153.16 106.983 152.477 106.983H150.865V118.297H147.543V92.668H155.828H155.826ZM150.863 105.336H154.635C155.612 105.336 156.473 105.166 157.218 104.823C157.962 104.481 158.592 104.037 159.105 103.487C159.617 102.938 160.002 102.328 160.259 101.657C160.516 100.987 160.644 100.321 160.644 99.6615C160.644 98.8802 160.504 98.1608 160.223 97.5014C159.942 96.8421 159.533 96.2755 158.996 95.7981C158.458 95.3225 157.817 94.9499 157.072 94.6821C156.328 94.4142 155.491 94.2803 154.563 94.2803H150.863V105.336Z" fill="black"/>
<path d="M190.238 92.668V94.6821H177.063V103.872H188.376V105.556H177.063V116.284H190.238V118.298H173.743V92.6697H190.238V92.668Z" fill="black"/>
<path d="M209.908 114.672H210.053L221.878 92.668H224.395V118.297H221.073V97.5375H220.928L209.396 118.736H208.739L197.462 97.3916H197.317V118.298H195.711V92.6697H198.193L209.906 114.674L209.908 114.672Z" fill="black"/>
<path d="M233.629 92.668L241.074 106.178H241.219L249.028 92.668H250.998L242.02 108.264V118.297H238.7V108.594L229.869 92.668H233.627H233.629Z" fill="black"/>
</svg>
