<svg xmlns="http://www.w3.org/2000/svg" width="22.548" height="21.266" viewBox="0 0 22.548 21.266">
  <path id="Icon_simple-hipchat" data-name="Icon simple-hipchat" d="M16.075,16.061s.084-.059.217-.161a7.965,7.965,0,0,0,3.256-6.287c0-4.655-4.376-8.432-9.772-8.432S0,4.957,0,9.612s4.375,8.435,9.773,8.435a11.209,11.209,0,0,0,2.056-.186l.213-.037a10.173,10.173,0,0,0,5.122,1.621.525.525,0,0,0,.45-.9,9.893,9.893,0,0,1-1.538-2.486Z" transform="translate(1.5 0.319)" fill="none" stroke="#c3a368" stroke-width="3"/>
</svg>
