<svg xmlns="http://www.w3.org/2000/svg" viewBox="0 0 21.21 21.21"><defs><style>.cls-1{fill:#fff;}</style></defs><title>instagram</title><g id="Layer_2" data-name="Layer 2"><g id="Layer_1-2" data-name="Layer 1"><path class="cls-1" d="M21.21,14.58a6.63,6.63,0,0,1-6.63,6.63H6.63A6.63,6.63,0,0,1,0,14.58V6.63A6.63,6.63,0,0,1,6.63,0h8a6.63,6.63,0,0,1,6.63,6.63ZM14.58,2H6.63A4.64,4.64,0,0,0,2,6.63v8a4.64,4.64,0,0,0,4.64,4.64h8a4.64,4.64,0,0,0,4.64-4.64V6.63A4.64,4.64,0,0,0,14.58,2ZM10.7,15.91A5.31,5.31,0,1,1,16,10.6,5.3,5.3,0,0,1,10.7,15.91Zm5.7-10.3a.71.71,0,0,1-.71-.71.71.71,0,0,1,1.42,0A.71.71,0,0,1,16.4,5.61ZM10.7,7.29A3.32,3.32,0,1,0,14,10.6,3.32,3.32,0,0,0,10.7,7.29Z"/></g></g></svg>