<svg xmlns="http://www.w3.org/2000/svg" viewBox="0 0 19.61 15.93"><defs><style>.cls-1{fill:#fff;}</style></defs><title>twitter</title><g id="Layer_2" data-name="Layer 2"><g id="Layer_1-2" data-name="Layer 1"><path class="cls-1" d="M17.6,4v.52A11.37,11.37,0,0,1,6.17,15.93,11.42,11.42,0,0,1,0,14.12a7.61,7.61,0,0,0,1,.06,8.1,8.1,0,0,0,5-1.72A4,4,0,0,1,2.2,9.66,3.84,3.84,0,0,0,3,9.73,4,4,0,0,0,4,9.6,4,4,0,0,1,.79,5.65V5.6a3.87,3.87,0,0,0,1.82.5A4,4,0,0,1,1.36.74a11.46,11.46,0,0,0,8.3,4.2,4,4,0,0,1,6.85-3.67,8.1,8.1,0,0,0,2.56-1A4.1,4.1,0,0,1,17.3,2.52a8.16,8.16,0,0,0,2.31-.64A8.15,8.15,0,0,1,17.6,4Z"/></g></g></svg>