<svg width="1046" height="273" viewBox="0 0 1046 273" fill="none" xmlns="http://www.w3.org/2000/svg">
<g clip-path="url(#clip0_3236_5)">
<path d="M348.555 248.436C348.519 248.82 348.483 249.096 347.411 250.003C344.786 252.306 341.898 254.289 338.807 255.91L337.453 256.606C333.821 258.406 330.023 259.849 326.112 260.916C288.794 274.225 267.741 273.216 258.761 272.802C257.443 272.73 256.334 272.7 255.466 272.7C221.197 272.7 190.055 253.238 162.825 214.91C157.625 207.544 150.927 197.045 143.852 185.964C136.878 175.015 129.665 163.687 123.482 154.749C117.689 146.345 111.17 141.332 95.8033 141.02C96.1925 139.15 97.1245 137.436 98.4825 136.095C99.8405 134.753 101.564 133.844 103.436 133.481C106.174 133.132 108.918 132.88 111.692 132.574C123.62 131.374 135.968 130.143 145.925 122.669C160.04 111.792 166.893 95.056 166.893 71.5186C166.893 42.1884 149.483 7.92383 100.392 7.92383C76.3203 7.92383 72.0248 9.03437 72.0248 22.9311V184.289C72.0248 226.441 72.9953 228.212 98.074 231.622L105.671 232.697C106.01 233.508 106.141 234.391 106.054 235.266C106.039 236.334 105.766 237.382 105.257 238.321C89.2311 237.625 75.0143 237.175 58.1554 237.175C40.1822 237.175 18.2728 237.625 0.862751 238.321C0.525087 237.806 0.300458 237.225 0.203733 236.616C-0.0706645 235.299 0.063116 233.929 0.587162 232.691L10.5084 231.49C35.5511 228.488 43.4893 225.583 43.4893 184.265V59.1466C43.4893 22.3428 42.7284 12.6121 23.8565 10.319L11.6107 8.82427C10.9421 7.8618 10.648 6.68743 10.784 5.52267C10.8007 4.6364 11.132 3.7851 11.7186 3.12151C36.1322 1.00849 64.4341 0 100.71 0C122.661 0 147.668 1.39267 166.852 11.7117C176.875 16.5557 185.264 24.2342 190.983 33.7996C196.703 43.365 199.502 54.3989 199.036 65.5397C199.036 107.38 161.645 125.485 150.166 130.005L149.645 130.215L149.298 130.665C145.931 134.627 149.711 140.57 151.095 142.827C161.082 158.777 168.403 171.707 174.85 183.047C189.174 208.259 197.777 223.494 217.129 239.204C228.886 248.813 242.579 255.759 257.269 259.566C258.689 259.95 260.18 260.364 261.708 260.766C266.519 262.304 271.467 263.376 276.482 263.966L284.804 264.416C302.028 264.684 319.078 260.935 334.608 253.467C335.854 252.944 336.758 252.53 337.142 252.422C339.725 251.674 342.232 250.685 344.631 249.469C345.809 248.727 347.097 248.176 348.447 247.836C348.49 248.019 348.514 248.206 348.519 248.394" fill="black"/>
<path d="M420.747 239.972L419.819 251.978C417.03 255.687 413.376 258.655 409.178 260.623C404.979 262.59 400.364 263.497 395.735 263.263C378.019 263.179 366.882 252.728 366.882 235.752C366.882 218.776 378.031 208.247 395.735 208.247C402.901 208.213 409.953 210.04 416.206 213.547L418.141 225.919H417.368C414.69 215.186 406.525 210.87 395.687 210.87C381.835 210.87 373.196 220.325 373.196 235.758C373.196 250.903 381.853 260.424 395.753 260.55C408.789 260.67 419.016 254.331 419.963 239.978L420.747 239.972Z" fill="black"/>
<path d="M505.293 235.758C505.721 241.695 504.353 247.624 501.37 252.771C498.387 257.919 493.925 262.047 488.567 264.618C483.209 267.189 477.202 268.084 471.329 267.186C465.456 266.288 459.989 263.638 455.641 259.583C451.292 255.527 448.263 250.254 446.948 244.449C445.633 238.643 446.093 232.576 448.268 227.037C450.444 221.498 454.234 216.743 459.144 213.393C464.055 210.042 469.858 208.251 475.799 208.253C479.56 208.027 483.327 208.569 486.872 209.845C490.417 211.122 493.667 213.106 496.425 215.677C499.182 218.249 501.39 221.354 502.914 224.806C504.439 228.258 505.248 231.984 505.293 235.758ZM498.823 235.758C498.483 231.27 496.843 226.979 494.105 223.41C491.367 219.842 487.65 217.151 483.409 215.668C479.168 214.185 474.587 213.973 470.227 215.059C465.868 216.146 461.92 218.482 458.866 221.783C455.812 225.085 453.786 229.206 453.035 233.644C452.284 238.082 452.842 242.643 454.639 246.768C456.436 250.893 459.396 254.403 463.154 256.868C466.913 259.333 471.307 260.646 475.799 260.646C478.972 260.623 482.107 259.95 485.01 258.667C487.913 257.385 490.524 255.52 492.68 253.189C494.837 250.857 496.495 248.108 497.552 245.11C498.608 242.112 499.041 238.93 498.823 235.758" fill="black"/>
<path d="M569.428 249.475L564.635 262.039H529.12V261.168H530.318C531.6 261.211 532.847 260.747 533.791 259.877C534.734 259.006 535.299 257.799 535.363 256.516V215.096C535.282 213.778 534.691 212.544 533.715 211.657C532.739 210.77 531.455 210.3 530.138 210.348H529.108V209.471H547.225V210.348H546.158C544.844 210.3 543.563 210.768 542.588 211.653C541.614 212.538 541.022 213.769 540.94 215.084V259.355H554.618C557.707 259.533 560.764 258.649 563.285 256.851C565.805 255.052 567.638 252.446 568.481 249.463L569.428 249.475Z" fill="black"/>
<path d="M630.171 249.475L625.379 262.039H589.858V261.168H591.056C592.338 261.211 593.586 260.747 594.531 259.877C595.475 259.007 596.041 257.8 596.106 256.516V215.096C596.024 213.779 595.432 212.545 594.457 211.658C593.481 210.772 592.199 210.301 590.882 210.348H589.852V209.471H607.968V210.348H606.938C605.624 210.3 604.343 210.768 603.368 211.653C602.393 212.538 601.802 213.769 601.72 215.084V259.355H615.397C618.487 259.533 621.544 258.649 624.065 256.851C626.585 255.052 628.418 252.446 629.261 249.463L630.171 249.475Z" fill="black"/>
<path d="M686.122 262.039H650.601V261.162H651.799C653.082 261.205 654.329 260.741 655.274 259.871C656.219 259.001 656.785 257.794 656.85 256.51V214.94C656.828 214.304 656.679 213.678 656.411 213.1C656.143 212.523 655.763 212.005 655.292 211.577C654.821 211.15 654.269 210.821 653.669 210.611C653.069 210.401 652.434 210.313 651.799 210.354H650.601V209.477H676.141C679.444 209.449 682.729 208.987 685.912 208.103V218.019H684.96V216.675C684.98 216.087 684.881 215.502 684.67 214.953C684.458 214.405 684.137 213.905 683.727 213.485C683.318 213.064 682.827 212.731 682.285 212.505C681.743 212.28 681.161 212.167 680.574 212.173H662.445V234.461H677.381C677.867 234.484 678.353 234.402 678.805 234.221C679.257 234.039 679.665 233.763 680.001 233.41C680.337 233.057 680.594 232.636 680.754 232.176C680.914 231.715 680.973 231.225 680.928 230.74V229.623H681.88V241.929H680.928V240.818C680.972 240.351 680.918 239.88 680.771 239.434C680.624 238.988 680.386 238.578 680.072 238.229C679.759 237.881 679.376 237.601 678.949 237.408C678.522 237.215 678.059 237.113 677.591 237.109H662.451V259.397H676.123C679.213 259.577 682.272 258.695 684.795 256.897C687.318 255.1 689.153 252.494 689.998 249.511H690.939L686.122 262.039Z" fill="black"/>
<path d="M767.709 239.972L766.78 251.978C763.992 255.687 760.34 258.656 756.142 260.624C751.945 262.592 747.33 263.501 742.702 263.269C724.992 263.185 713.855 252.734 713.855 235.758C713.855 218.782 725.004 208.253 742.702 208.253C749.87 208.219 756.924 210.045 763.179 213.553L765.114 225.925H764.342C761.664 215.192 753.498 210.876 742.66 210.876C728.808 210.876 720.169 220.331 720.169 235.764C720.169 250.909 728.826 260.43 742.726 260.556C755.762 260.676 765.989 254.337 766.936 239.984L767.709 239.972Z" fill="black"/>
<path d="M826.655 209.381C829.959 209.364 833.245 208.901 836.426 208.007V217.869H835.492V216.519C835.513 215.932 835.415 215.347 835.204 214.799C834.993 214.251 834.674 213.752 834.265 213.331C833.857 212.91 833.367 212.577 832.826 212.351C832.285 212.125 831.704 212.011 831.118 212.017H815.302V256.522C815.397 257.807 815.982 259.006 816.936 259.87C817.89 260.734 819.139 261.197 820.424 261.162H821.443V262.039H803.427V261.162H804.446C805.751 261.202 807.02 260.726 807.979 259.838C808.938 258.95 809.511 257.721 809.574 256.414V211.993H793.74C793.154 211.986 792.573 212.1 792.032 212.325C791.491 212.551 791.001 212.885 790.593 213.306C790.185 213.727 789.866 214.226 789.656 214.775C789.446 215.323 789.35 215.908 789.372 216.495V217.869H788.438V208.007C791.607 208.899 794.881 209.361 798.173 209.381H826.655Z" fill="black"/>
<path d="M858.479 262.039V261.168H859.678C861.088 261.296 862.493 260.873 863.6 259.988C864.707 259.104 865.431 257.826 865.621 256.42V215.096C865.431 213.689 864.706 212.41 863.598 211.525C862.489 210.641 861.083 210.219 859.672 210.348H858.503V209.471H878.31V210.348H877.112C875.729 210.229 874.353 210.635 873.255 211.485C872.157 212.336 871.419 213.569 871.187 214.94V256.486C871.396 257.875 872.126 259.132 873.228 260.001C874.33 260.87 875.721 261.285 877.118 261.162H878.28V262.033L858.479 262.039Z" fill="black"/>
<path d="M961.101 235.758C961.528 241.695 960.161 247.623 957.178 252.771C954.194 257.918 949.734 262.047 944.376 264.618C939.018 267.189 933.011 268.084 927.139 267.186C921.266 266.289 915.799 263.64 911.45 259.585C907.101 255.53 904.071 250.257 902.756 244.452C901.44 238.648 901.899 232.581 904.074 227.041C906.248 221.502 910.037 216.747 914.947 213.396C919.857 210.045 925.66 208.252 931.601 208.253C935.361 208.027 939.129 208.568 942.675 209.844C946.221 211.119 949.471 213.103 952.23 215.675C954.988 218.247 957.196 221.353 958.721 224.805C960.246 228.257 961.056 231.983 961.101 235.758ZM954.624 235.758C954.284 231.27 952.644 226.979 949.907 223.41C947.169 219.842 943.451 217.151 939.21 215.668C934.969 214.185 930.388 213.973 926.029 215.06C921.669 216.146 917.721 218.483 914.667 221.784C911.613 225.085 909.587 229.206 908.836 233.644C908.085 238.082 908.643 242.643 910.44 246.768C912.238 250.893 915.197 254.403 918.955 256.868C922.714 259.333 927.108 260.646 931.601 260.646C934.773 260.623 937.908 259.95 940.811 258.667C943.714 257.385 946.325 255.52 948.482 253.189C950.639 250.857 952.296 248.108 953.353 245.11C954.409 242.112 954.842 238.93 954.624 235.758" fill="black"/>
<path d="M1046 209.471V210.348H1044.54C1043.33 210.326 1042.16 210.767 1041.25 211.58C1040.35 212.393 1039.79 213.519 1039.69 214.73V252.092C1039.72 255.83 1039.99 259.561 1040.51 263.263H1039.68L994.213 220.042V256.594C994.272 257.84 994.813 259.015 995.721 259.868C996.629 260.722 997.833 261.188 999.078 261.168H1000.53V262.045H984.01V261.168H985.466C986.711 261.188 987.915 260.722 988.823 259.868C989.731 259.015 990.272 257.84 990.331 256.594V219.112C990.324 215.446 990.044 211.786 989.492 208.163L990.433 208.211L1035.8 251.053V214.754C1035.7 213.544 1035.13 212.42 1034.23 211.608C1033.33 210.796 1032.16 210.356 1030.94 210.378H1029.49V209.501L1046 209.471Z" fill="black"/>
<path d="M247.06 1.36261C249.971 1.35154 252.866 0.947718 255.669 0.16203V8.84823H254.848V7.64765C254.867 7.12965 254.781 6.61325 254.594 6.12971C254.408 5.64617 254.126 5.20557 253.764 4.83459C253.403 4.46361 252.97 4.16997 252.492 3.97146C252.015 3.77295 251.501 3.67371 250.984 3.67973H237.043V42.9267C237.127 44.0608 237.644 45.1189 238.486 45.8812C239.329 46.6435 240.432 47.0516 241.566 47.0207H242.459V47.7951H226.583V47.0207H227.475C228.628 47.0519 229.747 46.6295 230.592 45.844C231.438 45.0586 231.942 43.9726 231.998 42.8187V3.67973H218.033C217.516 3.67449 217.003 3.77452 216.525 3.97376C216.048 4.173 215.616 4.46731 215.255 4.83885C214.894 5.2104 214.612 5.65144 214.427 6.13528C214.241 6.61912 214.156 7.13567 214.175 7.65365V8.85423H213.354V0.150024C216.147 0.933759 219.033 1.33757 221.933 1.3506L247.06 1.36261Z" fill="black"/>
<path d="M311.392 47.789V47.0147H312.279C313.416 47.0432 314.519 46.6287 315.358 45.8584C316.196 45.0881 316.703 44.0221 316.772 42.8847V26.0766H288.315V42.8847C288.384 44.0221 288.891 45.0881 289.729 45.8584C290.567 46.6287 291.671 47.0432 292.808 47.0147H293.695V47.789H278.004V47.0147H278.867C280.016 47.0441 281.131 46.6202 281.971 45.8343C282.811 45.0484 283.31 43.9634 283.36 42.8126V6.39303C283.31 5.24232 282.811 4.15724 281.971 3.37134C281.131 2.58545 280.016 2.16159 278.867 2.191H277.98V1.41663H293.689V2.191H292.802C291.678 2.16302 290.585 2.5683 289.751 3.32331C288.916 4.07831 288.402 5.12548 288.315 6.24896V23.7594H316.766V6.39303C316.716 5.24232 316.218 4.15724 315.377 3.37134C314.537 2.58545 313.422 2.16159 312.273 2.191H311.398V1.41663H327.113V2.191H326.196C325.074 2.16418 323.983 2.56812 323.148 3.32019C322.313 4.07227 321.796 5.11565 321.703 6.23696V42.9027C321.778 44.0363 322.288 45.097 323.125 45.8632C323.962 46.6294 325.063 47.042 326.196 47.0147H327.083V47.789H311.392Z" fill="black"/>
<path d="M383.818 47.7952H352.491V47.0208H353.551C354.682 47.0585 355.781 46.6499 356.614 45.883C357.447 45.1162 357.945 44.0524 358.003 42.9208V6.25508C357.98 5.69724 357.846 5.14957 357.61 4.64406C357.373 4.13855 357.039 3.68533 356.625 3.31089C356.212 2.93644 355.728 2.64828 355.203 2.46323C354.677 2.27818 354.12 2.19996 353.563 2.23313H352.503V1.45876H375.023C377.935 1.43641 380.831 1.03279 383.639 0.258179V8.97439H382.8V7.77381C382.819 7.25582 382.732 6.73941 382.546 6.25587C382.359 5.77233 382.077 5.33173 381.716 4.96075C381.354 4.58977 380.922 4.29613 380.444 4.09762C379.966 3.89912 379.453 3.79987 378.936 3.80589H362.945V23.4534H376.126C376.554 23.4742 376.982 23.4025 377.381 23.2431C377.78 23.0837 378.139 22.8404 378.436 22.5296C378.732 22.2188 378.959 21.8478 379.1 21.4417C379.241 21.0356 379.293 20.6039 379.253 20.1758V19.1973H380.092V30.0386H379.253V29.0481C379.29 28.6359 379.242 28.2203 379.111 27.8277C378.981 27.4351 378.77 27.0738 378.493 26.7665C378.216 26.4593 377.879 26.2127 377.503 26.0423C377.126 25.872 376.719 25.7815 376.306 25.7765H362.957V45.454H375.011C377.736 45.6148 380.435 44.8384 382.659 43.2534C384.884 41.6683 386.502 39.3697 387.245 36.7378H388.084L383.818 47.7952Z" fill="black"/>
<path d="M283.773 188.281H209.724L209.754 186.48H212.258C214.932 186.572 217.534 185.605 219.502 183.79C221.471 181.975 222.648 179.457 222.778 176.78V90.0796C222.734 88.7518 222.425 87.4464 221.868 86.2407C221.311 85.0351 220.519 83.9537 219.537 83.0607C218.555 82.1678 217.404 81.4815 216.153 81.0424C214.902 80.6034 213.575 80.4206 212.252 80.505H209.748L209.718 78.7041H262.966C269.851 78.6387 276.699 77.6761 283.336 75.8407V96.5087H281.353V93.7053C281.403 92.4766 281.202 91.2507 280.764 90.1019C280.326 88.9532 279.66 87.9057 278.805 87.023C277.951 86.1404 276.926 85.4411 275.793 84.9676C274.661 84.4941 273.444 84.2564 272.217 84.2688H234.413V130.737H265.566C266.58 130.786 267.592 130.615 268.535 130.238C269.477 129.86 270.327 129.284 271.028 128.549C271.729 127.813 272.264 126.936 272.597 125.975C272.931 125.015 273.054 123.994 272.959 122.981V120.664H274.943V146.297H272.959V143.98C273.052 143.004 272.941 142.02 272.634 141.09C272.326 140.16 271.83 139.304 271.176 138.576C270.521 137.848 269.723 137.264 268.832 136.862C267.941 136.459 266.976 136.246 265.998 136.236H234.413V182.704H262.912C280.424 182.47 286.661 173.91 291.837 162.084H293.814L283.773 188.281Z" fill="black"/>
<path d="M365.288 141.807C367.967 144.311 370.089 147.352 371.516 150.734C372.943 154.115 373.642 157.76 373.568 161.43C373.399 165.492 372.428 169.48 370.71 173.163C368.993 176.846 366.563 180.151 363.562 182.887C360.561 185.622 357.048 187.734 353.226 189.1C349.405 190.466 345.351 191.059 341.3 190.844C330.516 190.844 316.497 188.209 309.858 182.242C308.716 174.644 309.331 166.885 311.656 159.563H313.753C312.141 176.017 323.207 185.826 339.287 185.376C354.354 184.949 363.574 177.08 363.574 165.206C363.646 162.447 363.084 159.709 361.932 157.203C360.78 154.697 359.069 152.489 356.93 150.751L320.463 122.537C317.659 120.085 315.427 117.047 313.922 113.637C312.417 110.227 311.676 106.528 311.752 102.8C311.536 87.9605 325.016 76.1288 341.887 76.1288C347.942 76.0035 353.993 76.5715 359.92 77.8216H366.013L366.288 97.6912H364.203C364.203 87.5703 357.446 81.5434 343.139 81.5434C330.965 81.5434 321.164 89.2511 321.229 98.9518C321.193 101.754 321.827 104.524 323.077 107.03C324.328 109.537 326.16 111.707 328.419 113.359L365.288 141.807Z" fill="black"/>
<path d="M393.446 188.287L393.482 186.486H395.914C398.853 186.751 401.781 185.871 404.088 184.028C406.396 182.186 407.906 179.523 408.304 176.593V90.4038C407.906 87.4716 406.394 84.8063 404.084 82.9625C401.774 81.1187 398.844 80.2384 395.902 80.505H393.47L393.434 78.7041H434.731V80.505H432.274C429.387 80.2597 426.513 81.1113 424.224 82.8905C421.934 84.6698 420.396 87.2467 419.915 90.1096V176.695C420.353 179.591 421.875 182.21 424.172 184.021C426.469 185.832 429.368 186.699 432.28 186.444H434.713L434.749 188.245L393.446 188.287Z" fill="black"/>
<path d="M515.49 78.71C551.437 78.71 574.095 99.5521 574.095 133.553C574.095 167.553 551.443 188.275 515.49 188.275H454.687L454.717 186.474H457.113C459.777 186.5 462.343 185.474 464.257 183.618C466.171 181.762 467.279 179.225 467.34 176.557V90.3496C467.309 89.015 467.014 87.6998 466.472 86.4801C465.93 85.2605 465.153 84.1607 464.183 83.2445C463.214 82.3283 462.074 81.6138 460.827 81.1425C459.58 80.6712 458.253 80.4524 456.921 80.4989H454.687V78.698L515.49 78.71ZM479.25 182.734H515.592C543.582 182.734 560.932 164.047 560.932 133.553C560.932 102.938 543.558 84.1967 515.592 84.1967H479.25V182.734Z" fill="black"/>
<path d="M664.548 188.281H590.499L590.528 186.48H593.033C595.706 186.572 598.309 185.605 600.277 183.79C602.246 181.975 603.422 179.457 603.553 176.779V90.0796C603.508 88.7518 603.198 87.4465 602.641 86.2411C602.083 85.0357 601.29 83.9548 600.308 83.0624C599.325 82.17 598.174 81.4843 596.922 81.046C595.671 80.6078 594.344 80.4258 593.021 80.5109H590.516V78.7101H643.765C650.65 78.6447 657.498 77.6821 664.135 75.8467V96.5147H662.152V93.7113C662.196 92.4864 661.991 91.2652 661.55 90.1217C661.11 88.9783 660.442 87.9362 659.588 87.0586C658.734 86.181 657.711 85.4861 656.582 85.0158C655.452 84.5456 654.239 84.3098 653.015 84.3228H615.218V130.791H646.371C647.385 130.84 648.397 130.669 649.339 130.292C650.282 129.914 651.132 129.338 651.833 128.603C652.534 127.867 653.069 126.99 653.402 126.029C653.735 125.069 653.859 124.048 653.764 123.035V120.664H655.747V146.297H653.764V143.98C653.856 143.004 653.745 142.02 653.438 141.09C653.131 140.16 652.635 139.304 651.98 138.576C651.326 137.848 650.528 137.264 649.637 136.862C648.745 136.459 647.78 136.246 646.803 136.236H615.236V182.704H643.735C661.247 182.47 667.484 173.91 672.666 162.084H674.643L664.548 188.281Z" fill="black"/>
<path d="M815.613 78.686V80.4869H812.582C810.05 80.4352 807.593 81.3516 805.711 83.0499C803.829 84.7481 802.663 87.1007 802.451 89.6293V167.535C802.521 175.332 803.099 183.117 804.182 190.838H802.439L707.612 100.705V176.942C707.723 179.546 708.847 182.003 710.744 183.788C712.641 185.572 715.16 186.54 717.761 186.486H720.798V188.287H686.374V186.486H689.411C692.012 186.54 694.531 185.572 696.428 183.788C698.325 182.003 699.449 179.546 699.56 176.942V98.7717C699.547 91.1351 698.965 83.5102 697.817 75.9607L699.77 76.0507L794.369 165.38V89.6353C794.149 87.1099 792.98 84.7626 791.097 83.0685C789.215 81.3744 786.761 80.4602 784.232 80.5109H781.2V78.71L815.613 78.686Z" fill="black"/>
<path d="M942.403 142.257L940.473 167.271C931.007 181.876 911.818 190.826 890.268 190.826C853.339 190.64 830.118 168.862 830.118 133.475C830.118 97.9194 853.363 76.1228 890.268 76.1228C905.215 76.0502 919.926 79.8598 932.967 87.1802L936.992 112.993H935.393C929.809 90.6139 912.795 81.6155 890.19 81.6155C861.325 81.6155 843.304 101.335 843.304 133.505C843.304 165.086 861.355 184.931 890.334 185.196C917.51 185.442 938.862 172.229 940.809 142.299L942.403 142.257Z" fill="black"/>
<path d="M1033.65 188.281H959.597L959.633 186.48H962.137C964.811 186.572 967.413 185.605 969.381 183.79C971.35 181.975 972.527 179.457 972.657 176.78V90.0796C972.614 88.7502 972.304 87.4432 971.746 86.2363C971.188 85.0293 970.393 83.9471 969.41 83.0539C968.426 82.1607 967.273 81.4748 966.02 81.0369C964.766 80.599 963.438 80.4181 962.113 80.505H959.609L959.579 78.7041H1012.83C1019.71 78.6387 1026.56 77.6761 1033.2 75.8407V96.5087H1031.21V93.7053C1031.26 92.4804 1031.05 91.2592 1030.61 90.1158C1030.17 88.9723 1029.5 87.9302 1028.65 87.0526C1027.8 86.175 1026.77 85.4801 1025.64 85.0098C1024.51 84.5396 1023.3 84.3038 1022.08 84.3168H984.28V130.785H1015.43C1016.45 130.834 1017.46 130.663 1018.4 130.286C1019.34 129.908 1020.19 129.332 1020.9 128.597C1021.6 127.861 1022.13 126.984 1022.46 126.023C1022.8 125.063 1022.92 124.042 1022.83 123.03V120.664H1024.81V146.297H1022.83V143.98C1022.92 143.004 1022.81 142.02 1022.5 141.09C1022.19 140.16 1021.7 139.304 1021.04 138.576C1020.39 137.848 1019.59 137.264 1018.7 136.862C1017.81 136.459 1016.84 136.246 1015.87 136.236H984.28V182.704H1012.78C1030.29 182.47 1036.53 173.91 1041.7 162.084H1043.68L1033.65 188.281Z" fill="black"/>
<path d="M890.19 1.53076H853.627V48.7436H890.19V1.53076Z" fill="black"/>
<path d="M940.509 1.53076H903.946V48.7436H940.509V1.53076Z" fill="black"/>
<path d="M991.505 1.53076H954.942V48.7436H991.505V1.53076Z" fill="black"/>
<path d="M1042.84 1.53076H1006.28V48.7436H1042.84V1.53076Z" fill="black"/>
</g>
<defs>
<clipPath id="clip0_3236_5">
<rect width="1046" height="273" fill="white"/>
</clipPath>
</defs>
</svg>
