<svg width="161" height="149" viewBox="0 0 161 149" fill="none" xmlns="http://www.w3.org/2000/svg">
<path fill-rule="evenodd" clip-rule="evenodd" d="M27.9124 114.892L31.5434 144.301H70.2108C72.8452 146.226 76.0501 148.004 81.1771 148.148C86.3773 148.004 89.6521 146.226 92.0735 144.301H131.024L134.657 114.892L159.224 96.805C164.139 71.3811 157.373 49.8757 144.77 32.7848C131.31 14.7684 108.452 1.02443 81.1771 0.740356C53.9033 0.740356 31.1162 14.1991 16.945 32.2155C5.5514 48.1668 -2.21115 64.9725 1.99141 95.9505C5.31495 98.3699 8.43009 100.67 11.5295 102.959C16.7311 106.8 21.8884 110.609 27.9124 114.892ZM78.673 54.2045C79.3477 71.1166 80.033 88.2927 81.1783 103.498C82.2277 89.6309 82.7625 74.0887 83.2967 58.5656C83.8131 43.5574 84.329 28.567 85.3087 15.1257C88.3005 14.6275 92.0747 14.7695 95.9188 15.482C99.268 16.4785 101.76 17.404 104.323 19.2561C102.28 29.7557 100.029 41.3825 97.7366 53.2166C94.355 70.677 90.8861 88.5886 87.8733 103.996C89.3773 98.8358 90.9637 93.3825 92.6002 87.7569C98.8678 66.2111 105.871 42.1373 111.8 22.3179C115.076 23.1014 118.423 25.0234 121.128 27.0886C123.407 28.9396 125.046 30.7196 127.324 34.2097C122.326 44.6125 116.955 56.46 111.544 68.3962C105.621 81.4613 99.6495 94.6325 94.0666 106.131C99.6324 96.9765 105.792 86.3899 112.01 75.7026C119.238 63.2803 126.545 50.7222 133.09 40.119C135.368 42.2552 136.793 43.75 139.286 47.7384C141.423 50.9421 142.278 54.6464 142.989 58.2775C138.6 63.6239 133.966 69.3073 129.247 75.0943C119.574 86.9572 109.546 99.2551 100.549 109.976C106.521 104.159 113.14 97.6141 119.849 90.9804C128.577 82.3499 137.458 73.5682 145.268 66.0389C146.408 68.5313 147.263 70.8817 147.69 75.5814C148.044 79.9249 147.403 84.9819 146.408 88.2567L119.773 108.054L116.784 130.272H87.304C86.4495 131.981 84.5252 134.046 81.1794 134.259C78.037 134.068 77.1473 133.009 75.442 130.981C75.2533 130.757 75.0546 130.52 74.8418 130.272L45.2886 130.059L42.4399 107.912L15.5934 87.9726C14.6679 84.8388 13.8134 79.6408 14.3117 75.2973C14.7389 70.8118 15.5934 68.5324 16.9462 65.8269C23.0067 71.7309 29.7186 78.3826 36.5195 85.1226C45.1403 93.6662 53.9042 102.352 61.6659 109.835C51.5312 97.5884 39.9535 83.4434 29.1605 70.257C25.7718 66.1169 22.4605 62.0714 19.2955 58.2087C19.7227 54.5765 20.7192 50.8024 22.7134 47.5975C24.9835 43.7464 26.7226 42.2194 28.9555 40.2588C29.0344 40.1895 29.114 40.1196 29.1942 40.0491C35.6402 50.5898 42.7927 62.9676 49.8889 75.2478C56.1199 86.0308 62.3074 96.7386 67.9348 106.061C62.2566 94.0842 55.9843 80.2596 49.7788 66.582C44.6205 55.2128 39.5083 43.9451 34.8217 33.9245C37.1721 30.3645 38.668 28.8686 41.2315 26.8744C43.6518 24.8802 46.9987 22.9582 50.4167 22.2457C54.1364 35.3414 58.537 50.1862 62.9174 64.9627C66.9216 78.47 70.9088 91.9202 74.3435 103.925C71.7841 91.3709 69.0063 77.0869 66.2142 62.7289C63.2571 47.5226 60.2839 32.2332 57.5367 18.8278C60.4564 17.1898 62.9488 16.2643 66.3668 15.1956C69.7847 14.6264 73.9151 14.4122 76.8348 15.1246C77.596 27.209 78.1311 40.6216 78.673 54.2045Z" fill="black"/>
</svg>
