<svg width="29" height="60" viewBox="0 0 29 60" fill="none" xmlns="http://www.w3.org/2000/svg">
<path d="M1.07568 8.7561C1.07568 8.47642 1.31233 8.26128 1.5705 8.28279C1.82867 8.28279 2.0438 8.49793 2.0438 8.7561C2.0438 9.03578 1.82867 9.25091 1.54899 9.25091C1.29082 9.25091 1.07568 9.03578 1.07568 8.7561Z" fill="#C3A368"/>
<path d="M1.24775 13.1879C1.52742 13.1879 1.74256 12.9728 1.74256 12.7146C1.74256 12.435 1.52743 12.2198 1.26926 12.2198H1.24775C0.968067 12.2198 0.75293 12.435 0.75293 12.7146C0.75293 12.9728 0.968067 13.1879 1.24775 13.1879Z" fill="#C3A368"/>
<path d="M4.75464 11.6604C4.75464 11.8326 4.88372 11.9832 5.05583 11.9832C5.22794 11.9832 5.37854 11.8541 5.37854 11.682C5.37854 11.5098 5.24946 11.3593 5.07735 11.3593C4.90524 11.3593 4.77615 11.4883 4.75464 11.6604Z" fill="#C3A368"/>
<path d="M2.62476 12.1768C2.62476 12.3489 2.77535 12.478 2.94746 12.478C3.11957 12.478 3.24865 12.3274 3.24865 12.1553C3.24865 11.9832 3.11957 11.8541 2.94746 11.8541C2.77535 11.8756 2.62476 12.0047 2.62476 12.1768Z" fill="#C3A368"/>
<path d="M3.85107 4.73302C3.85107 4.90513 4.00167 5.05572 4.17378 5.05572C4.34589 5.05572 4.47497 4.90513 4.47497 4.73302C4.47497 4.56091 4.34589 4.43182 4.17378 4.43182C3.98016 4.43182 3.85107 4.56091 3.85107 4.73302Z" fill="#C3A368"/>
<path d="M4.43189 17.4907C4.04464 17.4907 3.72194 17.8134 3.74345 18.2006C3.74345 18.5879 4.06616 18.9106 4.4534 18.8891C4.84065 18.8891 5.14184 18.5664 5.14184 18.1791C5.14184 17.7919 4.81914 17.4907 4.43189 17.4907Z" fill="#C3A368"/>
<path d="M2.47408 17.4262C3.54977 17.4262 4.41032 16.5441 4.3888 15.4899C4.3888 14.4142 3.50674 13.5537 2.45257 13.5752C1.39839 13.5752 0.537842 14.4357 0.537842 15.5114C0.537842 16.5656 1.41991 17.4262 2.47408 17.4262Z" fill="#C3A368"/>
<path d="M1.57061 20.7823C2.28056 20.7823 2.86144 20.2014 2.86144 19.4915C2.86144 18.7815 2.28056 18.2007 1.57061 18.2007C0.860657 18.2007 0.279785 18.7815 0.279785 19.4915C0.279785 20.2014 0.860657 20.7823 1.57061 20.7823Z" fill="#C3A368"/>
<path d="M7.55127 12.1123C7.55127 12.2844 7.70187 12.4135 7.87398 12.4135C8.04609 12.4135 8.17517 12.2844 8.17517 12.1123C8.17517 11.9401 8.04609 11.7896 7.87398 11.7896C7.70187 11.7896 7.55127 11.9401 7.55127 12.1123Z" fill="#C3A368"/>
<path d="M2.0653 7.09953C2.49557 7.09953 2.83979 6.75531 2.83979 6.32503C2.83979 5.89476 2.47406 5.55054 2.04378 5.55054C1.63502 5.55054 1.2908 5.89476 1.26929 6.32503C1.26929 6.75531 1.61351 7.09953 2.0653 7.09953Z" fill="#C3A368"/>
<path d="M5.76573 5.27086C6.30357 5.27086 6.75536 4.84059 6.75536 4.30274C6.75536 3.7649 6.32508 3.31311 5.78724 3.31311C5.2494 3.31311 4.79761 3.74339 4.79761 4.28123C4.79761 4.81907 5.22788 5.27086 5.76573 5.27086Z" fill="#C3A368"/>
<path d="M5.76562 12.8437C5.76562 13.1019 5.98076 13.3385 6.23893 13.3385C6.51861 13.3385 6.73374 13.1234 6.73374 12.8437C6.73374 12.564 6.51861 12.3489 6.23893 12.3489C5.98076 12.3489 5.76562 12.564 5.76562 12.8437Z" fill="#C3A368"/>
<path d="M2.64611 2.62468C3.37758 2.62468 3.95845 2.02229 3.95845 1.31234C3.95845 0.580872 3.35606 0 2.64611 0C1.91464 0 1.31226 0.580872 1.31226 1.31234C1.31226 2.04381 1.91464 2.64619 2.64611 2.62468Z" fill="#C3A368"/>
<path d="M6.06682 2.00079C6.23893 2.00079 6.38952 1.87171 6.38952 1.6996C6.38952 1.52749 6.26044 1.37689 6.08833 1.37689H6.06682C5.89471 1.37689 5.76562 1.52749 5.76562 1.6996C5.78714 1.87171 5.91622 2.00079 6.06682 2.00079Z" fill="#C3A368"/>
<path d="M7.16397 10.6493C8.49782 10.6493 9.59502 9.55211 9.59502 8.21826C9.59502 6.8844 8.49782 5.7872 7.16397 5.7872C5.83011 5.7872 4.73291 6.8844 4.73291 8.21826C4.73291 9.57362 5.8086 10.6493 7.16397 10.6493C7.16397 10.6493 7.14245 10.6493 7.16397 10.6493Z" fill="#C3A368"/>
<path d="M3.9801 7.4868C3.9801 7.31469 3.85102 7.16409 3.67891 7.16409C3.5068 7.16409 3.3562 7.29318 3.3562 7.46529C3.3562 7.63739 3.48528 7.78799 3.65739 7.78799C3.8295 7.8095 3.95859 7.65891 3.9801 7.4868Z" fill="#C3A368"/>
<path d="M5.0341 14.8875C5.20621 14.8875 5.35681 14.7369 5.35681 14.5648C5.35681 14.3927 5.20621 14.2636 5.0341 14.2636C4.86199 14.2636 4.73291 14.3927 4.73291 14.5648C4.73291 14.7369 4.86199 14.866 5.0341 14.8875Z" fill="#C3A368"/>
<path d="M8.00312 3.93702C8.28279 3.93702 8.49793 3.72188 8.49793 3.4422C8.49793 3.16253 8.28279 2.94739 8.00312 2.94739C7.72344 2.94739 7.5083 3.16253 7.5083 3.4422C7.5083 3.72188 7.72344 3.93702 8.00312 3.93702Z" fill="#C3A368"/>
<path d="M1.39844 3.54977C1.39844 3.72188 1.52752 3.87247 1.69963 3.87247C1.87174 3.87247 2.02234 3.74339 2.02234 3.57128C2.02234 3.39917 1.89325 3.24858 1.72114 3.24858C1.54903 3.22706 1.41995 3.37766 1.39844 3.54977Z" fill="#C3A368"/>
<path d="M4.3672 10.219C4.3672 9.61664 3.87238 9.14334 3.29151 9.14334C2.68912 9.14334 2.21582 9.63816 2.21582 10.219C2.21582 10.8214 2.68912 11.2947 3.29151 11.2947C3.87238 11.2947 4.3672 10.8214 4.3672 10.219Z" fill="#C3A368"/>
<path d="M10.4342 9.96088C9.91784 9.96088 9.48757 10.3696 9.48757 10.886C9.48757 11.2732 9.72422 11.639 10.09 11.768C10.3911 11.8971 10.5417 12.2628 10.4127 12.564C10.3266 12.7792 10.09 12.9298 9.8533 12.9298C9.81027 12.9298 9.76725 12.9298 9.7027 12.9083C9.65968 12.9083 9.61665 12.8867 9.55211 12.8867C9.29394 12.8867 9.10032 13.1019 9.10032 13.3385C9.10032 13.5537 9.25092 13.7473 9.48757 13.7903C9.98238 13.9194 10.2836 14.4142 10.176 14.909C10.0684 15.3178 9.7027 15.619 9.29394 15.619C8.94972 15.619 8.64853 15.4254 8.47642 15.1457C8.15371 14.4142 7.29316 14.07 6.5617 14.3927C5.83023 14.7154 5.48601 15.576 5.80871 16.3074C6.04537 16.8453 6.5617 17.1895 7.14257 17.1895H7.20711C7.46527 17.1895 7.68041 17.4046 7.68041 17.6628C7.68041 17.921 7.46527 18.1361 7.20711 18.1361C7.05651 18.1361 6.90592 18.0716 6.81986 17.9425C6.73381 17.8134 6.58321 17.7273 6.4111 17.7273C6.13142 17.7273 5.91628 17.964 5.89477 18.2437C5.89477 18.5234 6.13142 18.7385 6.4111 18.7385H6.47564C6.97046 18.7385 7.40073 19.1257 7.40073 19.6421C7.40073 20.1369 7.01349 20.5672 6.49716 20.5672H6.47564C6.17445 20.5672 5.89477 20.4166 5.74417 20.1799C5.29238 19.556 4.43183 19.4054 3.80794 19.8572C3.18404 20.309 3.03344 21.1695 3.48523 21.7934C3.72188 22.1162 4.0661 22.3313 4.47486 22.3743C4.81908 22.4173 5.07725 22.7616 5.01271 23.1058C4.96968 23.45 4.64697 23.7082 4.28124 23.6436C4.04459 23.6006 3.82945 23.4285 3.76491 23.1918C3.65734 22.7616 3.22706 22.5034 2.79679 22.6325C2.45257 22.7185 2.1944 23.0412 2.1944 23.407C2.1944 23.5791 2.25894 23.7727 2.36651 23.9018C2.38803 23.9233 2.38803 23.9448 2.40954 23.9663C2.77528 24.3966 2.71073 25.042 2.28046 25.4078C1.85018 25.7735 1.20477 25.7089 0.839037 25.2787C0.473303 24.8484 0.537844 24.203 0.968119 23.8373C1.07569 23.7512 1.18326 23.6867 1.31234 23.6436C1.76413 23.5361 2.08683 23.1488 2.08683 22.6755C2.08683 22.1377 1.63505 21.6859 1.0972 21.6859C0.623899 21.6859 0.193624 22.0301 0.129083 22.5249C0.086055 22.9337 0.0430275 23.2994 0 23.6651V36.2077C0 36.2722 0 36.3152 0 36.3583C0 36.9176 0.0215138 37.8642 0.0430275 38.5742V38.6387C0.0430275 39.112 0.0645413 39.4778 0.0645413 39.4778C0.0645413 39.5423 0.0645413 39.6068 0.086055 39.6499C0.17211 40.1447 0.258165 40.6395 0.365734 41.1128C0.666927 42.1885 1.18326 43.1996 1.89321 44.0602C2.83982 45.1789 3.98005 46.104 5.27087 46.7924C5.85174 47.0936 6.45413 47.3733 7.09954 47.5669C8.30431 47.9757 9.55211 48.2339 10.8214 48.3199C11.2302 48.3629 11.3593 48.2339 11.3593 47.8466V10.6493C11.2302 10.2406 10.8644 9.96088 10.4342 9.96088Z" fill="#C3A368"/>
<path d="M10.6494 9.14335C10.6494 9.31546 10.8 9.46606 10.9721 9.46606C11.1442 9.46606 11.2733 9.31546 11.2948 9.14335C11.2948 8.97124 11.1657 8.82065 10.9721 8.82065C10.7785 8.84216 10.6494 8.97124 10.6494 9.14335Z" fill="#C3A368"/>
<path d="M24.8269 21.8365C23.0197 20.3305 20.9329 19.4915 18.6739 19.0827C18.05 18.9966 17.4261 18.9536 16.8022 18.9321C16.8022 19.1042 16.8238 19.1688 16.8238 19.2333V47.0506C16.8238 47.1151 16.8238 47.1581 16.8238 47.2227C16.8238 47.7605 16.8453 48.7286 16.8668 49.4386V49.5031C16.8668 49.9764 16.8883 50.3422 16.8883 50.3422C16.8883 50.4067 16.8883 50.4713 16.9098 50.5143C16.9959 51.0091 17.0819 51.5039 17.1895 51.9772C17.4907 53.0529 18.007 54.0641 18.717 54.9246C21.0405 57.6784 24.1169 58.8831 27.6237 59.1843C28.0324 59.2274 28.1615 59.0983 28.1615 58.711V28.6563C28.0755 25.8595 26.9352 23.6006 24.8269 21.8365Z" fill="#C3A368"/>
<path d="M9.89636 6.15293C9.9609 6.15293 10.0039 6.17445 10.0685 6.17445C10.2406 6.17445 10.3912 6.13142 10.5203 6.02385C10.5418 6.00234 10.5848 5.95931 10.6063 5.9378C10.6493 5.91628 10.6709 5.89477 10.6924 5.85174C10.7999 5.72266 10.843 5.57206 10.843 5.39995C10.843 5.03422 10.5848 4.71151 10.2191 4.62546C10.176 4.62546 10.1115 4.60394 10.0685 4.60394C9.89636 4.60394 9.74576 4.64697 9.59517 4.75454C9.57365 4.77605 9.53063 4.81908 9.50911 4.84059C9.4876 4.86211 9.44457 4.90514 9.42306 4.92665C9.31549 5.05573 9.27246 5.20633 9.27246 5.37844C9.27246 5.76569 9.53063 6.08839 9.89636 6.15293Z" fill="#C3A368"/>
</svg>
