<svg width="18" height="12" viewBox="0 0 18 12" fill="none" xmlns="http://www.w3.org/2000/svg">
<g clip-path="url(#clip0_2892_96)">
<path d="M11.2139 0.223988C11.0653 0.372917 10.9814 0.574382 10.9802 0.784757C10.9791 0.995131 11.0609 1.19748 11.2079 1.34799L14.9249 5.06799H0.787897C0.577315 5.06799 0.375357 5.15164 0.226453 5.30055C0.0775494 5.44945 -0.00610352 5.65141 -0.00610352 5.86199C-0.00610352 6.07257 0.0775494 6.27453 0.226453 6.42343C0.375357 6.57234 0.577315 6.65599 0.787897 6.65599H14.9149L11.2019 10.376C11.0549 10.5265 10.9731 10.7288 10.9742 10.9392C10.9754 11.1496 11.0593 11.3511 11.2079 11.5C11.357 11.6473 11.5585 11.7295 11.7681 11.7283C11.9778 11.7272 12.1784 11.6429 12.3259 11.494L17.3589 6.42499C17.4276 6.35155 17.4834 6.26703 17.5239 6.17499C17.5651 6.07863 17.5859 5.97478 17.5849 5.86999C17.5846 5.66235 17.5035 5.46297 17.3589 5.31399L12.3249 0.242988C12.2537 0.167869 12.1683 0.107699 12.0736 0.0660012C11.9789 0.024303 11.8768 0.00191357 11.7734 0.000144271C11.6699 -0.00162503 11.5672 0.017261 11.4711 0.0556968C11.375 0.0941325 11.2876 0.151346 11.2139 0.223988V0.223988Z" fill="#C3A368"/>
</g>
<defs>
<clipPath id="clip0_2892_96">
<rect width="17.584" height="11.728" fill="white"/>
</clipPath>
</defs>
</svg>
