<?xml version="1.0" encoding="utf-8"?>
<!-- Generator: Adobe Illustrator 23.0.2, SVG Export Plug-In . SVG Version: 6.00 Build 0)  -->
<svg version="1.1" id="Layer_1" xmlns="http://www.w3.org/2000/svg" xmlns:xlink="http://www.w3.org/1999/xlink" x="0px" y="0px"
	 viewBox="0 0 20 20.19" style="enable-background:new 0 0 20 20.19;" xml:space="preserve">
<style type="text/css">
	.st0{fill-rule:evenodd;clip-rule:evenodd;fill:#FFFFFF;}
</style>
<g>
	<g transform="translate(-110.000000, -170.000000)">
		<g transform="translate(20.000000, 170.000000)">
			<path class="st0" d="M94,4v9h3v3.46L95,18v-3h-2c-0.55,0-1-0.45-1-1V3c0-0.55,0.45-1,1-1h14c0.55,0,1,0.45,1,1v5h-2V4H94z M99,9
				c-0.55,0-1,0.45-1,1v5c0,0.55,0.45,1,1,1h3l3,2v-2h2c0.55,0,1-0.45,1-1v-5c0-0.55-0.45-1-1-1H99z"/>
		</g>
	</g>
</g>
</svg>
