<svg width="32" height="32" viewBox="0 0 32 32" fill="none" xmlns="http://www.w3.org/2000/svg">
<path d="M31 16C31 18.9667 30.1203 21.8668 28.472 24.3336C26.8238 26.8003 24.4811 28.7229 21.7403 29.8582C18.9994 30.9935 15.9834 31.2906 13.0737 30.7118C10.1639 30.133 7.49119 28.7044 5.3934 26.6066C3.29562 24.5088 1.86701 21.8361 1.28823 18.9264C0.709449 16.0166 1.0065 13.0006 2.14181 10.2597C3.27713 7.51886 5.19972 5.17618 7.66645 3.52796C10.1332 1.87973 13.0333 1 16 1C17.9698 1 19.9204 1.38799 21.7403 2.14181C23.5601 2.89563 25.2137 4.00052 26.6066 5.3934C27.9995 6.78628 29.1044 8.43986 29.8582 10.2597C30.612 12.0796 31 14.0302 31 16V16Z" stroke="white" stroke-width="2" stroke-linecap="round" stroke-linejoin="round"/>
<path d="M13 10L22 16L13 22V10Z" stroke="white" stroke-width="2" stroke-linecap="round" stroke-linejoin="round"/>
</svg>
