<svg width="36" height="36" viewBox="0 0 36 36" fill="none" xmlns="http://www.w3.org/2000/svg">
<g clip-path="url(#clip0_3125_2)">
<path d="M30.3846 3.00012C26.0878 2.99973 18.6642 6.10012 14.4207 10.3437C13.4855 11.2788 12.7191 12.1999 12.0934 13.0929C10.6168 12.9593 9.14023 13.0718 7.88164 13.6202C4.33086 15.1812 3.29726 19.2593 3.00898 21.0101C2.93867 21.4249 3.28321 21.7835 3.69804 21.7413L9.40039 21.1155C9.40742 21.664 9.44258 22.0999 9.47773 22.4022C9.50586 22.6976 9.63945 22.9718 9.85039 23.1827L12.0582 25.3905C12.2691 25.6015 12.5434 25.7351 12.8387 25.7632C13.141 25.7983 13.5769 25.8335 14.1184 25.8405L13.4926 31.5358C13.4504 31.9507 13.809 32.2952 14.2238 32.2249C15.9746 31.9436 20.0598 30.9101 21.6137 27.3593C22.1621 26.1007 22.2746 24.6311 22.148 23.1616C23.041 22.5358 23.9691 21.7694 24.9043 20.8343C29.7137 16.053 33.0254 7.41161 32.1043 3.39677C32.0762 3.27724 31.9918 3.18583 31.8723 3.15771C31.4371 3.05132 30.9362 3.00017 30.3846 3.00012ZM22.7527 15.5204C21.9846 15.5204 21.2164 15.2269 20.6293 14.6397C19.4551 13.4655 19.4551 11.5671 20.6293 10.3929C21.8035 9.21865 23.7019 9.21865 24.8762 10.3929C26.0504 11.5671 26.0504 13.4655 24.8762 14.6397C24.2891 15.2269 23.5209 15.5204 22.7527 15.5204ZM30.3838 0.00012207V3.00012L30.3839 0.00012207C31.1804 0.000190735 31.9173 0.0813179 32.5753 0.241245C33.7973 0.535034 34.735 1.47942 35.0245 2.70953C35.0258 2.71499 35.0271 2.72046 35.0283 2.72593C35.8263 6.20392 34.373 10.6243 33.4357 12.9497C31.8606 16.8574 29.5832 20.4118 27.0229 22.9582C26.431 23.55 25.8176 24.1052 25.1889 24.6186C25.1461 26.0761 24.8702 27.3958 24.3639 28.5577C22.2098 33.48 16.9012 34.8319 14.7085 35.1855C14.5128 35.2177 14.3136 35.2341 14.1159 35.2341C13.0933 35.2341 12.113 34.7982 11.4265 34.0383C10.7388 33.2771 10.404 32.2544 10.508 31.2323C10.5088 31.2242 10.5096 31.2162 10.5105 31.2082L10.8407 28.2031C10.5126 28.015 10.2081 27.7831 9.93688 27.5118L7.72907 25.304C7.45596 25.0309 7.22264 24.724 7.03387 24.3932L4.0253 24.7234C4.01722 24.7243 4.00913 24.7251 4.00104 24.726C3.87868 24.7384 3.7544 24.7447 3.63165 24.7447C2.55931 24.7447 1.54747 24.2749 0.855568 23.4559C0.167366 22.6413 -0.126129 21.5709 0.0496293 20.5178C0.240822 19.3589 0.657101 17.6134 1.55481 15.8703C2.75076 13.5482 4.52106 11.8204 6.67433 10.8739C6.67729 10.8726 6.68024 10.8713 6.6832 10.87C7.85037 10.3614 9.18095 10.0848 10.6433 10.0464C11.1521 9.42589 11.7059 8.81583 12.2994 8.22233C14.5417 5.97999 17.688 3.89147 21.1587 2.34151C24.5395 0.831642 27.8158 0.00012207 30.3838 0.00012207Z" fill="#C3A368"/>
<path d="M8.72979 22.9697C8.71916 22.9697 8.70831 22.9704 8.69722 22.9718C8.00816 23.0562 7.33316 23.3655 6.80582 23.8929C5.54019 25.1585 5.42066 29.8554 5.42066 29.8554C5.42066 29.8554 10.1246 29.7358 11.3902 28.4702C11.9246 27.9358 12.2269 27.2679 12.3113 26.5788C12.3324 26.3538 12.0582 26.2202 11.9035 26.3819C11.6082 26.6772 11.0808 26.846 10.5113 26.9444C9.2316 27.1624 8.11363 26.0444 8.3316 24.7647C8.43004 24.1952 8.59175 23.6679 8.88707 23.3796L8.8941 23.3726C9.04784 23.2188 8.93465 22.9697 8.72979 22.9697ZM8.72979 19.9697C10.0429 19.9697 11.2162 20.7539 11.719 21.9676C11.8995 22.4034 11.9794 22.8612 11.9646 23.3123C11.9988 23.3112 12.033 23.3106 12.0672 23.3106C12.9785 23.3107 13.8535 23.6978 14.4681 24.3727C15.0807 25.0454 15.3832 25.9515 15.2982 26.8587C15.2955 26.887 15.2925 26.9153 15.289 26.9434C15.1183 28.338 14.5036 29.5995 13.5115 30.5916C12.4879 31.6151 10.8477 32.2559 8.3496 32.608C6.86205 32.8177 5.55191 32.853 5.49687 32.8544C4.67506 32.8753 3.88061 32.558 3.2993 31.9767C2.71799 31.3953 2.40072 30.6009 2.42163 29.7791C2.42303 29.7241 2.45831 28.4154 2.66808 26.9294C3.02035 24.4339 3.66108 22.795 4.68451 21.7715C5.66176 20.7943 6.95622 20.1632 8.32979 19.9944C8.46218 19.978 8.59672 19.9697 8.72979 19.9697Z" fill="#C3A368"/>
</g>
<defs>
<clipPath id="clip0_3125_2">
<rect width="35.259" height="35.234" fill="white"/>
</clipPath>
</defs>
</svg>
