<?xml version="1.0" encoding="utf-8"?>
<!-- Generator: Adobe Illustrator 23.0.2, SVG Export Plug-In . SVG Version: 6.00 Build 0)  -->
<svg version="1.1" id="Capa_1" xmlns="http://www.w3.org/2000/svg" xmlns:xlink="http://www.w3.org/1999/xlink" x="0px" y="0px"
	 viewBox="0 0 458.2 458.2" style="enable-background:new 0 0 458.2 458.2;" xml:space="preserve">
<style type="text/css">
	.st0{fill:#FFFFFF;}
</style>
<g>
	<g>
		<path class="st0" d="M445.7,201.9c-1.5-9.3-10.2-15.6-19.5-14.2s-15.6,10.2-14.2,19.5c0,0.1,0,0.2,0.1,0.3
			c17.4,102.3-51.5,199.3-153.8,216.7S58.9,372.9,41.5,270.6S93,71.2,195.3,53.9c62.9-10.7,127,11.3,170.1,58.4l-75.6,25.2
			c-8.9,3-13.8,12.6-10.8,21.6c0,0,0,0,0,0c3,8.9,12.6,13.8,21.6,10.8c0,0,0,0,0,0l102.4-34.1c7-2.3,11.7-8.8,11.7-16.2V17.1
			c0-9.4-7.6-17.1-17.1-17.1s-17.1,7.6-17.1,17.1v62.3C292.6-4.2,153.5-0.7,69.9,87.2s-80.1,226.9,7.8,310.5s226.9,80.1,310.5-7.8
			C435.9,339.8,457.2,270.2,445.7,201.9z"/>
	</g>
</g>
</svg>
