<svg width="53" height="63" viewBox="0 0 53 63" fill="none" xmlns="http://www.w3.org/2000/svg">
<path opacity="0.2" d="M8.166 26.696L5.2838 34.6148C5.19186 34.868 5.12938 35.1309 5.09757 35.3984L3.65088 47.5803C3.55765 48.3665 3.73293 49.1612 4.14826 49.8353C4.56358 50.5095 5.19457 51.0234 5.93878 51.2937L23.0957 57.5383C23.6161 57.7278 24.1741 57.7915 24.7238 57.7242C25.2736 57.6568 25.7996 57.4604 26.259 57.1509L42.1003 46.4761C42.4843 46.2192 42.8139 45.889 43.07 45.5045C43.3262 45.1199 43.5039 44.6886 43.593 44.2352C43.6822 43.7818 43.6809 43.3153 43.5894 42.8624C43.4978 42.4095 43.3178 41.9792 43.0596 41.596C42.8014 41.2128 42.4701 40.8844 42.0847 40.6295C41.6993 40.3746 41.2674 40.1983 40.8138 40.1107C40.3601 40.0231 39.8936 40.0259 39.441 40.1189C38.9884 40.212 38.5586 40.3934 38.1763 40.6529L34.2634 43.2928L42.5492 20.5278C42.8677 19.6528 42.8255 18.6871 42.432 17.8432C42.0385 16.9992 41.3258 16.3462 40.4508 16.0277C39.5758 15.7092 38.6101 15.7514 37.7661 16.1449C36.9222 16.5385 36.2692 17.2511 35.9507 18.1261L29.9462 34.6234L29.2884 34.384L30.4892 31.0847C30.8077 30.2097 30.7656 29.244 30.372 28.4001C29.9785 27.5561 29.2658 26.9031 28.3908 26.5846C27.5158 26.2661 26.5501 26.3083 25.7062 26.7018C24.8622 27.0954 24.2092 27.808 23.8907 28.683L22.6899 31.9823L22.0321 31.7429L22.7527 29.763C23.0712 28.8879 23.0291 27.9222 22.6355 27.0783C22.242 26.2344 21.5293 25.5813 20.6543 25.2629C19.7793 24.9444 18.8136 24.9865 17.9697 25.3801C17.1257 25.7736 16.4727 26.4863 16.1542 27.3613L15.4336 29.3412L14.7758 29.1018C15.0943 28.2268 15.0521 27.2611 14.6586 26.4172C14.2651 25.5732 13.5524 24.9202 12.6774 24.6017C11.8024 24.2832 10.8367 24.3254 9.99272 24.7189C9.14879 25.1125 8.49576 25.8251 8.17728 26.7001L8.166 26.696Z" stroke="white" stroke-width="2"/>
<path opacity="0.2" d="M26.0793 6.89631L20.8593 1.68031C20.7676 1.58907 20.6949 1.48061 20.6453 1.36117C20.5956 1.24173 20.5701 1.11366 20.5701 0.984313C20.5701 0.854969 20.5956 0.7269 20.6453 0.607459C20.6949 0.488018 20.7676 0.37956 20.8593 0.288314C21.0455 0.103649 21.2971 2.95639e-05 21.5593 2.95639e-05C21.8215 2.95639e-05 22.0731 0.103649 22.2593 0.288314L28.1733 6.19831C28.352 6.37761 28.4548 6.6189 28.4602 6.872C28.4656 7.12511 28.3732 7.37055 28.2023 7.55731L22.2603 13.5083C22.0757 13.694 21.8249 13.7987 21.5631 13.7994C21.4335 13.7998 21.3051 13.7746 21.1852 13.7254C21.0653 13.6761 20.9562 13.6037 20.8643 13.5123C20.7724 13.4209 20.6994 13.3123 20.6494 13.1927C20.5995 13.0731 20.5736 12.9448 20.5732 12.8151C20.5724 12.5533 20.6757 12.302 20.8603 12.1163L26.0793 6.89631Z" fill="white"/>
<path opacity="0.2" d="M16.0793 6.89631L10.8593 1.68031C10.7676 1.58907 10.6949 1.48061 10.6453 1.36117C10.5956 1.24173 10.5701 1.11366 10.5701 0.984313C10.5701 0.854969 10.5956 0.7269 10.6453 0.607459C10.6949 0.488018 10.7676 0.37956 10.8593 0.288314C11.0455 0.103649 11.2971 2.95639e-05 11.5593 2.95639e-05C11.8215 2.95639e-05 12.0731 0.103649 12.2593 0.288314L18.1733 6.19831C18.352 6.37761 18.4548 6.6189 18.4602 6.872C18.4656 7.12511 18.3732 7.37055 18.2023 7.55731L12.2603 13.5083C12.0757 13.694 11.8249 13.7987 11.5631 13.7994C11.4335 13.7998 11.3051 13.7746 11.1852 13.7254C11.0653 13.6761 10.9562 13.6037 10.8643 13.5123C10.7724 13.4209 10.6994 13.3123 10.6494 13.1927C10.5995 13.0731 10.5736 12.9448 10.5732 12.8151C10.5724 12.5533 10.6757 12.302 10.8603 12.1163L16.0793 6.89631Z" fill="white"/>
</svg>
