<svg width="14" height="22" viewBox="0 0 14 22" fill="none" xmlns="http://www.w3.org/2000/svg">
<g clip-path="url(#clip0_2893_98)">
<path d="M6.89995 19.51L12.116 14.29C12.2072 14.1983 12.3157 14.1256 12.4351 14.0759C12.5545 14.0263 12.6826 14.0007 12.812 14.0007C12.9413 14.0007 13.0694 14.0263 13.1888 14.0759C13.3082 14.1256 13.4167 14.1983 13.508 14.29C13.6926 14.4762 13.7962 14.7278 13.7962 14.99C13.7962 15.2522 13.6926 15.5038 13.508 15.69L7.59795 21.604C7.41865 21.7827 7.17737 21.8855 6.92426 21.8909C6.67116 21.8963 6.42571 21.8039 6.23895 21.633L0.287951 15.691C0.1023 15.5064 -0.00241963 15.2556 -0.00316978 14.9938C-0.00354121 14.8642 0.0216235 14.7357 0.0708878 14.6158C0.120152 14.4959 0.192552 14.3869 0.283952 14.295C0.375352 14.2031 0.483962 14.13 0.603583 14.0801C0.723204 14.0301 0.851492 14.0042 0.981123 14.0039C1.24292 14.0031 1.4943 14.1064 1.67995 14.291L6.89995 19.51Z" fill="white"/>
<path d="M6.89995 12.51L12.116 7.28998C12.2072 7.19831 12.3157 7.12556 12.4351 7.07592C12.5545 7.02629 12.6826 7.00073 12.812 7.00073C12.9413 7.00073 13.0694 7.02629 13.1888 7.07592C13.3082 7.12556 13.4167 7.19831 13.508 7.28998C13.6926 7.47615 13.7962 7.72775 13.7962 7.98998C13.7962 8.2522 13.6926 8.50381 13.508 8.68998L7.59795 14.604C7.41865 14.7827 7.17737 14.8855 6.92426 14.8909C6.67116 14.8963 6.42571 14.8039 6.23895 14.633L0.287951 8.69098C0.1023 8.50639 -0.00241963 8.25561 -0.00316978 7.99381C-0.00354121 7.86418 0.0216235 7.73574 0.0708878 7.61584C0.120152 7.49593 0.192552 7.3869 0.283952 7.29498C0.375352 7.20305 0.483962 7.13003 0.603583 7.08008C0.723204 7.03013 0.851492 7.00423 0.981123 7.00386C1.24292 7.00311 1.4943 7.10639 1.67995 7.29098L6.89995 12.51Z" fill="white"/>
<path d="M6.89995 5.50998L12.116 0.289979C12.2072 0.198305 12.3157 0.125561 12.4351 0.075923C12.5545 0.0262854 12.6826 0.000732422 12.812 0.000732422C12.9413 0.000732422 13.0694 0.0262854 13.1888 0.075923C13.3082 0.125561 13.4167 0.198305 13.508 0.289979C13.6926 0.476152 13.7962 0.727754 13.7962 0.989979C13.7962 1.2522 13.6926 1.50381 13.508 1.68998L7.59795 7.60398C7.41865 7.78271 7.17737 7.88545 6.92426 7.89085C6.67116 7.89625 6.42571 7.80389 6.23895 7.63298L0.287951 1.69098C0.1023 1.50639 -0.00241963 1.25561 -0.00316978 0.993807C-0.00354121 0.864176 0.0216235 0.735742 0.0708878 0.615837C0.120152 0.495932 0.192552 0.386904 0.283952 0.294979C0.375352 0.203054 0.483962 0.130031 0.603583 0.08008C0.723204 0.0301294 0.851492 0.00422905 0.981123 0.00385761C1.24292 0.00310747 1.4943 0.106388 1.67995 0.290978L6.89995 5.50998Z" fill="white"/>
</g>
<defs>
<clipPath id="clip0_2893_98">
<rect width="13.794" height="21.887" fill="white"/>
</clipPath>
</defs>
</svg>
