<?xml version="1.0" encoding="utf-8"?>
<!-- Generator: Adobe Illustrator 25.2.3, SVG Export Plug-In . SVG Version: 6.00 Build 0)  -->
<svg version="1.1" id="Layer_1" xmlns="http://www.w3.org/2000/svg" xmlns:xlink="http://www.w3.org/1999/xlink" x="0px" y="0px"
	 viewBox="0 0 269.3 269.3" style="enable-background:new 0 0 269.3 269.3;" xml:space="preserve">
<style type="text/css">
	.st0{fill:#CF30BA;}
</style>
<g>
	<path class="st0" d="M69.2,109.2l7.1,33.5c0.2,1.1,1.2,1.9,2.4,1.9c0.2,0,0.3,0,0.5-0.1l10.8-2.3c0.7-0.2,1.4-0.7,1.7-1.4l1.9-4.1
		c1.3-2.9,0.6-6.3-1.8-8.5l-0.7-0.6c-0.8-0.7-1-1.9-0.6-2.8l0.4-0.9c1.3-2.9,0.6-6.3-1.8-8.5l-0.7-0.6c-0.8-0.7-1-1.9-0.6-2.8
		l1.2-2.7h8.9v-5.5c15,0.5,27.6,4.9,45.2,15.8v9.2c0,1.3,1.1,2.4,2.4,2.4c1.3,0,2.4-1.1,2.4-2.4v-6.2v-15.6
		c6.9-1.4,12.2-8.5,12.2-17c0-8.6-5.3-15.6-12.2-17V57.5v-6.2c0-1.3-1.1-2.4-2.4-2.4c-1.3,0-2.4,1.1-2.4,2.4v9.2
		c-17.6,10.9-30.3,15.4-45.2,15.8v-5.5H71.6c-10.5,0-19,8.5-19,19v0.6C52.6,100,59.9,108,69.2,109.2z M85.1,118.5l0.7,0.6
		c0.8,0.7,1,1.9,0.6,2.8l-0.4,0.9c-1.3,2.9-0.6,6.3,1.8,8.5l0.7,0.6c0.8,0.7,1,1.9,0.6,2.8l-1.4,3l-7.3,1.5l-6.3-30h9.5l-0.3,0.7
		C82,113,82.7,116.4,85.1,118.5z M155.4,90.1c0,5.8-3.2,10.7-7.4,12.1V78C152.2,79.4,155.4,84.3,155.4,90.1z M143.2,66.2V114
		c-14.4-8.7-28-14.5-45.2-15V81.2C115.1,80.7,128.7,74.9,143.2,66.2z M57.4,89.8c0-7.8,6.4-14.2,14.2-14.2h21.5v0.8v27.3v0.8h-5.7
		H71.6c-7.8,0-14.2-6.3-14.2-14.2V89.8z"/>
	<rect x="166.8" y="87.7" class="st0" width="11.3" height="4.8"/>
	
		<rect x="163.2" y="74.2" transform="matrix(0.866 -0.5001 0.5001 0.866 -15.6803 94.7382)" class="st0" width="11.3" height="4.8"/>
	
		<rect x="153.4" y="64.3" transform="matrix(0.5001 -0.866 0.866 0.5001 21.6986 171.1023)" class="st0" width="11.3" height="4.8"/>
	
		<rect x="156.6" y="107.8" transform="matrix(0.866 -0.5001 0.5001 0.866 -35.4153 94.7417)" class="st0" width="4.8" height="11.3"/>
	
		<rect x="166.5" y="97.9" transform="matrix(0.5002 -0.8659 0.8659 0.5002 -5.2637 198.0333)" class="st0" width="4.8" height="11.3"/>
	<path class="st0" d="M237.5,131l-10.7-10.7c-2.8-2.8-7.8-2.8-10.6,0l-6.7,6.7c0,0,0,0,0,0s0,0,0,0l-7.7,7.7V30H31.3v210.9h170.7
		v-63.7l35.6-35.6C240.5,138.7,240.5,133.9,237.5,131z M151.7,194.5l11.6,11.6l-14.6,3L151.7,194.5z M162.9,198.9l57.6-57.6l5.2,5.2
		l-57.6,57.6L162.9,198.9z M159.5,195.5l-5.8-5.8l57.6-57.6l5.8,5.8L159.5,195.5z M197.1,236h-161V34.8h161v104.6L148.6,188
		c-0.3,0.3-0.5,0.8-0.6,1.2l0,0l-5.4,26.2l26.2-5.4l0,0c0.4-0.1,0.9-0.3,1.2-0.6l27.3-27.3V236z M234.1,138.2l-4.9,4.9l-14.5-14.5
		l4.9-4.9c1-1,2.8-1,3.8,0l10.7,10.7C235.2,135.4,235.2,137.1,234.1,138.2z"/>
	<rect x="49.5" y="170.7" class="st0" width="67.2" height="4.8"/>
	<rect x="49.5" y="190.9" class="st0" width="74" height="4.8"/>
	<rect x="49.5" y="211.1" class="st0" width="82.2" height="4.8"/>
</g>
</svg>
