<?xml version="1.0" encoding="utf-8"?>
<!-- Generator: Adobe Illustrator 25.2.3, SVG Export Plug-In . SVG Version: 6.00 Build 0)  -->
<svg version="1.1" id="Layer_1" xmlns="http://www.w3.org/2000/svg" xmlns:xlink="http://www.w3.org/1999/xlink" x="0px" y="0px"
	 viewBox="0 0 269.3 269.3" style="enable-background:new 0 0 269.3 269.3;" xml:space="preserve">
<style type="text/css">
	.st0{fill:none;stroke:#CF30BA;stroke-width:5;stroke-linecap:square;stroke-miterlimit:10;}
</style>
<g>
	<rect x="36.6" y="52" class="st0" width="196.2" height="128"/>
	<line class="st0" x1="32.3" y1="209.9" x2="62.2" y2="209.9"/>
	<line class="st0" x1="113.4" y1="209.9" x2="237.1" y2="209.9"/>
	<path class="st0" d="M104.9,209.9c0,9.4-7.6,17.1-17.1,17.1c-9.4,0-17.1-7.6-17.1-17.1c0-9.4,7.6-17.1,17.1-17.1
		C97.2,192.8,104.9,200.4,104.9,209.9z"/>
	<path class="st0" d="M72.9,128.8c8.5,0,14.9-6.4,14.9-15.2v-3.8c0-8.8-6.4-15.2-14.9-15.2c-8.5,0-14.9,6.4-14.9,15.2v3.8
		C57.9,122.4,64.3,128.8,72.9,128.8z"/>
	<path class="st0" d="M92.1,180v-21.3c0,0,18.7-8.8,25.6-12.8c8.8-6,8.5-16.3,8.5-21.3c0,0-21.2,7.7-32.9,12.8
		c-6.5,2.8-13.6,4.3-20.7,4.3c-2.7,0-5.1,0-6.2,0c-8.9,0-15.7,1.2-20.6,4.3"/>
	<polyline class="st0" points="139,127.1 164.6,111.8 121.9,86.2 121.9,111.8 	"/>
</g>
</svg>
