<?xml version="1.0" encoding="utf-8"?><svg xmlns="http://www.w3.org/2000/svg" xmlns:xlink="http://www.w3.org/1999/xlink" viewBox="0 0 130.39 35.46"><defs><clipPath id="clip-path" transform="translate(0 0)"><rect width="130.39" height="35.46" style="fill:none"/></clipPath></defs><title>arco</title><g id="Layer_2" data-name="Layer 2"><g id="Layer_1-2" data-name="Layer 1"><g style="clip-path:url(#clip-path)"><path d="M126.82.48a3,3,0,0,1,2.19.91,3,3,0,0,1,.9,2.18,3,3,0,0,1-.9,2.19,3.11,3.11,0,0,1-4.38,0,3,3,0,0,1-.9-2.19,3,3,0,0,1,.9-2.18,3,3,0,0,1,2.19-.91m3.57,3.08a3.43,3.43,0,0,0-1-2.52,3.6,3.6,0,0,0-5.06,0,3.43,3.43,0,0,0-1,2.52,3.44,3.44,0,0,0,1,2.54,3.4,3.4,0,0,0,2.52,1.05,3.47,3.47,0,0,0,2.54-1.05,3.46,3.46,0,0,0,1-2.54m-2.63-.77a.6.6,0,0,1-.41.61,1.89,1.89,0,0,1-.67.09H126V2.08h.6a1.79,1.79,0,0,1,.85.15.57.57,0,0,1,.27.56M125.37,1.6V5.51H126V4h.55a1.61,1.61,0,0,1,.78.13.94.94,0,0,1,.38.89v.44a.06.06,0,0,0,0,0s0,0,0,0h.65l0,0a.4.4,0,0,1,0-.2c0-.11,0-.2,0-.29V4.68a1,1,0,0,0-.21-.6,1,1,0,0,0-.67-.39,1.52,1.52,0,0,0,.57-.19.85.85,0,0,0,.38-.77,1,1,0,0,0-.61-1,2.86,2.86,0,0,0-1.07-.14Z" transform="translate(0 0)" style="fill:#222127"/><path d="M10.74,25.11c0-2.59,2-3.61,4.42-4.18s5.12-.81,6.64-1.76c.25,6.75-1.46,9.66-6.58,9.66-2.4,0-4.48-1.07-4.48-3.72m.63-13.27c.51-2.78,2.4-4.11,5.37-4.11,2.21,0,5.18.95,5.18,3.41,0,2-1,2.66-2.84,3C11.62,15.69,0,14.87,0,25.54c0,6.77,4.93,9.92,11.18,9.92,3.92,0,8-1.13,10.81-4a12.84,12.84,0,0,0,.62,3.09H33.42c-1.26-2.58-1.26-5.62-1.26-8.4V11.77c0-9.28-7.52-11-15.29-11A21.58,21.58,0,0,0,6.44,3.06a10.1,10.1,0,0,0-5.12,8.78Z" transform="translate(0 0)" style="fill:#222127"/><path d="M34.48,1.73H44.91V7.48H45c1.58-4.17,5.25-6.38,9.86-6.38a11.49,11.49,0,0,1,2.53.25v9.79a15.05,15.05,0,0,0-4.11-.63c-5.31,0-8.09,3.66-8.09,7.77V34.52H34.48Z" transform="translate(0 0)" style="fill:#222127"/><path d="M79.71,13.74A5.05,5.05,0,0,0,74.47,9c-6,0-7,5.11-7,9.66,0,4.23,1.83,8.59,6.38,8.59,3.73,0,5.62-2.14,6.13-5.62H90.45C89.51,30.41,82.68,35.46,74,35.46c-9.85,0-17.18-6.75-17.18-16.8C56.78,8.24,63.41.78,74,.78c8.16,0,15.42,4.3,16.18,13Z" transform="translate(0 0)" style="fill:#222127"/><path d="M101.69,18.16C101.69,14,103.2,9,108.2,9s6.57,5,6.57,9.16-1.58,9.09-6.57,9.09-6.51-4.92-6.51-9.09M91,18.16C91,28,98,35.46,108.2,35.46s17.3-7.45,17.3-17.3S118.36.78,108.2.78,91,8.3,91,18.16" transform="translate(0 0)" style="fill:#222127"/></g></g></g></svg>