<?xml version="1.0" encoding="utf-8"?>
<!-- Generator: Adobe Illustrator 25.2.3, SVG Export Plug-In . SVG Version: 6.00 Build 0)  -->
<svg version="1.1" id="Layer_1" xmlns="http://www.w3.org/2000/svg" xmlns:xlink="http://www.w3.org/1999/xlink" x="0px" y="0px"
	 viewBox="0 0 269.3 269.3" style="enable-background:new 0 0 269.3 269.3;" xml:space="preserve">
<style type="text/css">
	.st0{fill:#CF30BA;}
</style>
<g>
	<path class="st0" d="M209.7,156.8H57.6c-1.9,0-3.4-1.5-3.4-3.4V63.8c0-1.9,1.5-3.4,3.4-3.4h152.1c1.9,0,3.4,1.5,3.4,3.4v89.6
		C213,155.3,211.5,156.8,209.7,156.8z M61,150h145.3V67.1H61V150z"/>
	<path class="st0" d="M209.7,179.2H57.6c-1.9,0-3.4-1.5-3.4-3.4s1.5-3.4,3.4-3.4h152.1c1.9,0,3.4,1.5,3.4,3.4
		S211.5,179.2,209.7,179.2z"/>
	<path class="st0" d="M92.2,51.5H57.6c-1.9,0-3.4-1.5-3.4-3.4V29.8c0-1.9,1.5-3.4,3.4-3.4h34.6c1.9,0,3.4,1.5,3.4,3.4v18.3
		C95.6,50,94.1,51.5,92.2,51.5z M61,44.7h27.8V33.2H61V44.7z"/>
	<path class="st0" d="M150.9,51.5h-34.6c-1.9,0-3.4-1.5-3.4-3.4V29.8c0-1.9,1.5-3.4,3.4-3.4h34.6c1.9,0,3.4,1.5,3.4,3.4v18.3
		C154.3,50,152.8,51.5,150.9,51.5z M119.7,44.7h27.8V33.2h-27.8V44.7z"/>
	<path class="st0" d="M209.7,51.5H175c-1.9,0-3.4-1.5-3.4-3.4V29.8c0-1.9,1.5-3.4,3.4-3.4h34.6c1.9,0,3.4,1.5,3.4,3.4v18.3
		C213,50,211.5,51.5,209.7,51.5z M178.4,44.7h27.8V33.2h-27.8V44.7z"/>
	<path class="st0" d="M148,248.4h-28.9c-1.9,0-3.4-1.5-3.4-3.4v-54.3c0-1.9,1.5-3.4,3.4-3.4c1.9,0,3.4,1.5,3.4,3.4v50.9h22.1v-50.9
		c0-1.9,1.5-3.4,3.4-3.4c1.9,0,3.4,1.5,3.4,3.4V245C151.4,246.9,149.9,248.4,148,248.4z"/>
</g>
</svg>
