<?xml version="1.0" encoding="UTF-8"?><svg id="Layer_1" data-name="Layer 1" xmlns="http://www.w3.org/2000/svg" viewBox="0 0 269.3 269.3"><defs><style>.cls-1{fill:#cf30ba;}</style></defs><path class="cls-1" d="M260.07,79.44a5.27,5.27,0,0,0-2.5-3.42l-10.44-6A5.25,5.25,0,0,0,240,71.91l-36.53,63.22a2.71,2.71,0,0,0-.5,1.17l-3.88,24a2.64,2.64,0,0,0,4.28,2.48l18.83-15.34.06,0,.15-.14.06-.07.16-.18,0,0,.16-.25,36.68-63.5A5.25,5.25,0,0,0,260.07,79.44Zm-44.22,66.3-10.45,8.52,2.16-13.32Zm34.27-56.93-30.58,52.94-10.35-6,30.58-52.94ZM244.53,74.6l10.34,6-2.1,3.64-10.35-6Z"/><path class="cls-1" d="M222.35,154.69a3.08,3.08,0,0,0-3.08,3.09v18.88H36.17V77a1,1,0,0,1,1-1H56.07a3.09,3.09,0,1,0,0-6.17H37.2A7.21,7.21,0,0,0,30,77V197.87a7.21,7.21,0,0,0,7.2,7.2h181a7.21,7.21,0,0,0,7.2-7.2V157.78A3.09,3.09,0,0,0,222.35,154.69Zm-4.11,44.21H37.2a1,1,0,0,1-1-1v-15h183.1v15A1,1,0,0,1,218.24,198.9Z"/><path class="cls-1" d="M199.37,75.92h18.87a1,1,0,0,1,1,1v7.32a3.09,3.09,0,0,0,6.17,0V77a7.21,7.21,0,0,0-7.2-7.2H199.37a3.09,3.09,0,1,0,0,6.17Z"/><path class="cls-1" d="M157.81,225H147.55V213.23a3.09,3.09,0,0,0-6.18,0V225H114.06V213.23a3.09,3.09,0,1,0-6.17,0V225H97.63a3.09,3.09,0,1,0,0,6.17h60.18a3.09,3.09,0,1,0,0-6.17Z"/><path class="cls-1" d="M67.66,166.1A3.09,3.09,0,0,0,70.75,163V50.58H184.69V163a3.09,3.09,0,1,0,6.17,0V47.5a3.09,3.09,0,0,0-3.09-3.09H67.66a3.08,3.08,0,0,0-3.08,3.09V163A3.08,3.08,0,0,0,67.66,166.1Z"/><path class="cls-1" d="M126.09,186.66a4.27,4.27,0,1,0,4.27,4.26A4.26,4.26,0,0,0,126.09,186.66Z"/><path class="cls-1" d="M93.22,93.08h21.29A6.47,6.47,0,0,0,121,86.62V65.33a6.48,6.48,0,0,0-6.46-6.47H93.22a6.48,6.48,0,0,0-6.46,6.47V86.62A6.47,6.47,0,0,0,93.22,93.08Zm-.29-27.75a.29.29,0,0,1,.29-.29h21.29a.29.29,0,0,1,.29.29V86.62a.29.29,0,0,1-.29.29H93.22a.29.29,0,0,1-.29-.29Z"/><path class="cls-1" d="M167.1,68H133.64a3.09,3.09,0,1,0,0,6.17H167.1a3.09,3.09,0,1,0,0-6.17Z"/><path class="cls-1" d="M167.1,87.09H133.64a3.09,3.09,0,1,0,0,6.17H167.1a3.09,3.09,0,1,0,0-6.17Z"/><path class="cls-1" d="M166.44,106.54H89a3.09,3.09,0,0,0,0,6.18h77.45a3.09,3.09,0,1,0,0-6.18Z"/><path class="cls-1" d="M166.44,125.63H89a3.09,3.09,0,0,0,0,6.18h77.45a3.09,3.09,0,1,0,0-6.18Z"/><path class="cls-1" d="M166.44,144.72H89a3.09,3.09,0,0,0,0,6.18h77.45a3.09,3.09,0,0,0,0-6.18Z"/></svg>