<?xml version="1.0" encoding="utf-8"?>
<!-- Generator: Adobe Illustrator 25.2.3, SVG Export Plug-In . SVG Version: 6.00 Build 0)  -->
<svg version="1.1" id="Layer_1" xmlns="http://www.w3.org/2000/svg" xmlns:xlink="http://www.w3.org/1999/xlink" x="0px" y="0px"
	 viewBox="0 0 269.3 269.3" style="enable-background:new 0 0 269.3 269.3;" xml:space="preserve">
<style type="text/css">
	.st0{fill:#CF30BA;}
</style>
<g>
	<path class="st0" d="M135.8,203.3h-17.3c-1.5,0-2.7-1.2-2.7-2.7V109c0-0.9,0.5-1.8,1.3-2.3c0.8-0.5,1.8-0.5,2.6,0l17.3,9.7
		c0.8,0.5,1.4,1.4,1.4,2.3v82C138.5,202.2,137.3,203.3,135.8,203.3z M121.2,198h12v-77.8l-12-6.7V198z"/>
	<path class="st0" d="M153.1,203.3h-17.3c-1.5,0-2.7-1.2-2.7-2.7v-82c0-1,0.5-1.8,1.4-2.3l17.3-9.7c0.8-0.5,1.8-0.5,2.6,0
		c0.8,0.5,1.3,1.3,1.3,2.3v91.7C155.7,202.2,154.5,203.3,153.1,203.3z M138.5,198h12v-84.5l-12,6.7V198z"/>
	<path class="st0" d="M164,238.5h-56.3c-1.5,0-2.7-1.2-2.7-2.7v-35.2c0-1.5,1.2-2.7,2.7-2.7H164c1.5,0,2.7,1.2,2.7,2.7v35.2
		C166.7,237.3,165.5,238.5,164,238.5z M110.4,233.2h51v-29.8h-51V233.2z"/>
	<path class="st0" d="M164,203.3h-56.4c-0.7,0-1.4-0.3-1.9-0.8c-0.5-0.5-0.8-1.2-0.8-1.9c0.2-15.3-7.7-23.1-16.1-31.3
		c-3.3-3.3-6.8-6.6-9.6-10.5c-2.5-2.7-4.9-5.7-7-8.8c-8.7-12.8-13.3-27.7-13.3-43.2c0-42.4,34.5-76.9,76.9-76.9c0.1,0,0.2,0,0.3,0
		c42.2,0.2,76.6,34.6,76.6,76.9c0,15.4-4.6,30.4-13.2,43.2c-2.1,3.1-4.5,6.1-7,8.8c-2.9,3.8-6.3,7.2-9.6,10.5
		c-8.4,8.2-16.4,16-16.1,31.3c0,0.7-0.3,1.4-0.8,1.9C165.4,203.1,164.7,203.3,164,203.3z M110.2,198h51.2
		c0.6-15.8,9.3-24.3,17.7-32.5c3.4-3.3,6.5-6.4,9.2-10c0.1-0.1,0.1-0.1,0.2-0.2c2.4-2.6,4.7-5.4,6.6-8.3
		c8.1-11.9,12.3-25.8,12.3-40.2c0-39.4-32.1-71.5-71.5-71.6c-0.1,0-0.2,0-0.3,0c-39.4,0.1-71.4,32.2-71.4,71.6
		c0,14.4,4.3,28.3,12.3,40.2c2,3,4.2,5.7,6.6,8.3c0.1,0.1,0.1,0.1,0.2,0.2c2.6,3.6,5.8,6.7,9.2,9.9
		C100.9,173.8,109.6,182.2,110.2,198z"/>
	<path class="st0" d="M79.2,106.9h-5.3c0-19.7,9.6-38.5,25.6-50.1l3.1,4.3C87.9,71.7,79.2,88.9,79.2,106.9z"/>
	<path class="st0" d="M110.7,56.2l-2.4-4.8c2-1,4.1-1.9,6.1-2.6l1.8,5C114.4,54.4,112.5,55.3,110.7,56.2z"/>
	<rect x="101.9" y="211" class="st0" width="68" height="5.3"/>
	<rect x="101.9" y="221.7" class="st0" width="68" height="5.3"/>
	<path class="st0" d="M145.3,98.3h-18.7c-1,0-1.8-0.5-2.3-1.3c-0.5-0.8-0.5-1.8,0-2.7l9.4-15.9c0.5-0.8,1.3-1.3,2.3-1.3l0,0
		c0.9,0,1.8,0.5,2.3,1.3l9.4,15.9c0.5,0.8,0.5,1.8,0,2.7C147.1,97.8,146.2,98.3,145.3,98.3z M131.2,93h9.5l-4.7-8L131.2,93z"/>
	<path class="st0" d="M135.8,120.9c-0.4,0-0.9-0.1-1.3-0.3l-17.3-9.3c-0.6-0.3-1.1-0.9-1.3-1.6c-0.2-0.7-0.1-1.4,0.3-2.1l8-13.3
		c0.5-0.8,1.3-1.3,2.3-1.3h18.7c0.9,0,1.8,0.5,2.3,1.3l7.8,13.3c0.4,0.6,0.5,1.4,0.3,2.1c-0.2,0.7-0.7,1.3-1.3,1.6l-17.3,9.3
		C136.7,120.8,136.2,120.9,135.8,120.9z M122.2,107.9l13.6,7.3l13.6-7.3l-5.6-9.6H128L122.2,107.9z"/>
	<rect x="133.1" y="118.3" class="st0" width="5.3" height="82.4"/>
</g>
</svg>
