<?xml version="1.0" encoding="utf-8"?>
<!-- Generator: Adobe Illustrator 25.2.3, SVG Export Plug-In . SVG Version: 6.00 Build 0)  -->
<svg version="1.1" id="Layer_1" xmlns="http://www.w3.org/2000/svg" xmlns:xlink="http://www.w3.org/1999/xlink" x="0px" y="0px"
	 viewBox="0 0 269.3 269.3" style="enable-background:new 0 0 269.3 269.3;" xml:space="preserve">
<style type="text/css">
	.st0{fill:none;stroke:#CF30BA;stroke-width:5;stroke-linecap:round;stroke-linejoin:round;stroke-miterlimit:10;}
</style>
<g>
	<polyline class="st0" points="40.1,100.5 40.1,32.4 206.6,32.4 206.6,123.2 	"/>
	<rect x="206.6" y="40" class="st0" width="15.1" height="83.3"/>
	<path class="st0" d="M236.9,130.8v98.4c0,4.2-3.4,7.6-7.6,7.6H40.1c-4.2,0-7.6-3.4-7.6-7.6V108.1c0-4.2,3.4-7.6,7.6-7.6H85
		c5.1,0,9.8,2.5,12.6,6.7l6.2,9.2c2.8,4.2,7.5,6.7,12.6,6.7h113C233.5,123.2,236.9,126.6,236.9,130.8z"/>
	<rect x="138.5" y="47.5" class="st0" width="45.4" height="53"/>
	<line class="st0" x1="62.8" y1="55.1" x2="115.8" y2="55.1"/>
	<line class="st0" x1="62.8" y1="70.2" x2="115.8" y2="70.2"/>
	<line class="st0" x1="62.8" y1="85.4" x2="115.8" y2="85.4"/>
</g>
</svg>
