<?xml version="1.0" encoding="utf-8"?>
<!-- Generator: Adobe Illustrator 25.2.3, SVG Export Plug-In . SVG Version: 6.00 Build 0)  -->
<svg version="1.1" id="Layer_1" xmlns="http://www.w3.org/2000/svg" xmlns:xlink="http://www.w3.org/1999/xlink" x="0px" y="0px"
	 viewBox="0 0 269.3 269.3" style="enable-background:new 0 0 269.3 269.3;" xml:space="preserve">
<style type="text/css">
	.st0{fill:#CF30BA;}
</style>
<g id="PORTFOLIO">
	<path class="st0" d="M199.4,194.4H69.9c-1.1,0-2-0.9-2-2V46.6c0-10,8.2-18.2,18.2-18.2h129.6c1.1,0,2,0.9,2,2c0,1.1-0.9,2-2,2
		c-7.8,0-14.2,6.4-14.2,14.2v145.8C201.5,193.5,200.6,194.4,199.4,194.4z M71.9,190.3h125.5V46.6c0-5.7,2.6-10.8,6.8-14.2H86.1
		c-7.8,0-14.2,6.4-14.2,14.2V190.3z"/>
	<path class="st0" d="M69.9,194.4H37.5c-1.1,0-2-0.9-2-2v-81c0-10,8.2-18.2,18.2-18.2h16.2c1.1,0,2,0.9,2,2v97.2
		C71.9,193.5,71,194.4,69.9,194.4z M39.5,190.3h28.3V97.2H53.7c-7.8,0-14.2,6.4-14.2,14.2V190.3z"/>
	<path class="st0" d="M49.6,194.4c-1.1,0-2-0.9-2-2v-81c0-3.3,2.7-6.1,6.1-6.1h16.2c1.1,0,2,0.9,2,2s-0.9,2-2,2H53.7
		c-1.1,0-2,0.9-2,2v81C51.6,193.5,50.7,194.4,49.6,194.4z"/>
	<path class="st0" d="M231.8,194.4h-32.4c-1.1,0-2-0.9-2-2V95.2c0-1.1,0.9-2,2-2h16.2c10,0,18.2,8.2,18.2,18.2v81
		C233.9,193.5,233,194.4,231.8,194.4z M201.5,190.3h28.3v-79c0-7.8-6.4-14.2-14.2-14.2h-14.2V190.3z"/>
	<path class="st0" d="M219.7,194.4c-1.1,0-2-0.9-2-2v-81c0-1.1-0.9-2-2-2h-16.2c-1.1,0-2-0.9-2-2s0.9-2,2-2h16.2
		c3.3,0,6.1,2.7,6.1,6.1v81C221.7,193.5,220.8,194.4,219.7,194.4z"/>
	<path class="st0" d="M231.8,48.6h-32.4c-1.1,0-2-0.9-2-2c0-10,8.2-18.2,18.2-18.2c10,0,18.2,8.2,18.2,18.2
		C233.9,47.7,233,48.6,231.8,48.6z M201.6,44.6h28.1c-1-6.9-6.9-12.1-14-12.1C208.5,32.4,202.6,37.7,201.6,44.6z"/>
	<path class="st0" d="M150.8,243h-32.4c-10,0-18.2-8.2-18.2-18.2v-16.2c0-1.1,0.9-2,2-2h16.2c1.1,0,2,0.9,2,2v14.2h28.3v-14.2
		c0-1.1,0.9-2,2-2H167c1.1,0,2,0.9,2,2v16.2C169.1,234.8,160.9,243,150.8,243z M104.3,210.6v14.2c0,7.8,6.4,14.2,14.2,14.2h32.4
		c7.8,0,14.2-6.4,14.2-14.2v-14.2h-12.1v14.2c0,1.1-0.9,2-2,2h-32.4c-1.1,0-2-0.9-2-2v-14.2H104.3z"/>
	<path class="st0" d="M215.6,226.8H167c-1.1,0-2-0.9-2-2v-14.2h-12.1v14.2c0,1.1-0.9,2-2,2h-32.4c-1.1,0-2-0.9-2-2v-14.2h-12.1v14.2
		c0,1.1-0.9,2-2,2H53.7c-10,0-18.2-8.2-18.2-18.2v-16.2c0-1.1,0.9-2,2-2h194.4c1.1,0,2,0.9,2,2v16.2
		C233.9,218.6,225.7,226.8,215.6,226.8z M169.1,222.7h46.6c7.8,0,14.2-6.4,14.2-14.2v-14.2H39.5v14.2c0,7.8,6.4,14.2,14.2,14.2h46.6
		v-14.2c0-1.1,0.9-2,2-2h16.2c1.1,0,2,0.9,2,2v14.2h28.3v-14.2c0-1.1,0.9-2,2-2H167c1.1,0,2,0.9,2,2V222.7z"/>
	<rect x="144.8" y="206.5" class="st0" width="28.3" height="4"/>
	<rect x="96.2" y="206.5" class="st0" width="28.3" height="4"/>
	<path class="st0" d="M134.6,105.3H86.1c-1.1,0-2-0.9-2-2V46.6c0-1.1,0.9-2,2-2h48.6c1.1,0,2,0.9,2,2v56.7
		C136.7,104.4,135.8,105.3,134.6,105.3z M88.1,101.2h44.5V48.6H88.1V101.2z"/>
	<path class="st0" d="M183.2,178.2h-48.6c-1.1,0-2-0.9-2-2v-56.7c0-1.1,0.9-2,2-2h48.6c1.1,0,2,0.9,2,2v56.7
		C185.3,177.3,184.4,178.2,183.2,178.2z M136.7,174.1h44.5v-52.6h-44.5V174.1z"/>
	<path class="st0" d="M161,81c-10,0-18.2-8.2-18.2-18.2s8.2-18.2,18.2-18.2c10,0,18.2,8.2,18.2,18.2S171,81,161,81z M161,48.6
		c-7.8,0-14.2,6.4-14.2,14.2S153.2,77,161,77c7.8,0,14.2-6.4,14.2-14.2S168.8,48.6,161,48.6z"/>
	<rect x="144.8" y="87.1" class="st0" width="32.4" height="4"/>
	<rect x="144.8" y="97.2" class="st0" width="32.4" height="4"/>
	<rect x="90.1" y="164" class="st0" width="32.4" height="4"/>
	<rect x="90.1" y="174.1" class="st0" width="32.4" height="4"/>
	<path class="st0" d="M122.5,157.9H90.1c-0.7,0-1.4-0.4-1.7-1c-0.4-0.6-0.4-1.3-0.1-2l16.2-32.4c0.7-1.4,2.9-1.4,3.6,0l16.2,32.4
		c0.3,0.6,0.3,1.4-0.1,2C123.9,157.6,123.2,157.9,122.5,157.9z M93.4,153.9h25.8L106.3,128L93.4,153.9z"/>
</g>
</svg>
