<?xml version="1.0" encoding="utf-8"?>
<!-- Generator: Adobe Illustrator 25.2.3, SVG Export Plug-In . SVG Version: 6.00 Build 0)  -->
<svg version="1.1" id="Layer_1" xmlns="http://www.w3.org/2000/svg" xmlns:xlink="http://www.w3.org/1999/xlink" x="0px" y="0px"
	 viewBox="0 0 269.3 269.3" style="enable-background:new 0 0 269.3 269.3;" xml:space="preserve">
<style type="text/css">
	.st0{clip-path:url(#SVGID_2_);fill:none;stroke:#CF30BA;stroke-width:5;stroke-linecap:square;stroke-miterlimit:10;}
	.st1{clip-path:url(#SVGID_4_);fill:none;stroke:#CF30BA;stroke-width:5;stroke-miterlimit:10;}
	.st2{fill:none;stroke:#CF30BA;stroke-width:5;stroke-linecap:square;stroke-miterlimit:10;}
	.st3{fill:none;stroke:#CF30BA;stroke-width:5;stroke-linecap:square;stroke-linejoin:round;stroke-miterlimit:10;}
	.st4{clip-path:url(#SVGID_6_);fill:none;stroke:#CF30BA;stroke-width:5;stroke-linecap:square;stroke-miterlimit:10;}
	.st5{fill:none;stroke:#CF30BA;stroke-width:5;stroke-miterlimit:10;}
</style>
<g>
	<path class="st5" d="M217,193.1H34.6c-2.5,0-4.6-2-4.6-4.6V69.9c0-2.5,2-4.6,4.6-4.6h200.7c2.5,0,4.6,2,4.6,4.6v109.5"/>
	<line class="st5" x1="121.2" y1="215.9" x2="121.2" y2="193.1"/>
	<line class="st5" x1="148.6" y1="193.1" x2="148.6" y2="215.9"/>
	<line class="st5" x1="89.3" y1="215.9" x2="180.5" y2="215.9"/>
	<circle class="st5" cx="187.4" cy="140.6" r="34.2"/>
	<line class="st5" x1="207.9" y1="165.7" x2="239.9" y2="197.6"/>
	<polyline class="st5" points="157.7,106.4 157.7,88.1 134.9,88.1 134.9,179.4 	"/>
	<polyline class="st5" points="116.7,179.4 116.7,115.5 93.9,115.5 93.9,179.4 	"/>
	<polyline class="st5" points="75.6,179.4 75.6,138.3 52.8,138.3 52.8,179.4 	"/>
</g>
</svg>
