<?xml version="1.0" encoding="utf-8"?>
<!-- Generator: Adobe Illustrator 25.2.3, SVG Export Plug-In . SVG Version: 6.00 Build 0)  -->
<svg version="1.1" id="Layer_1" xmlns="http://www.w3.org/2000/svg" xmlns:xlink="http://www.w3.org/1999/xlink" x="0px" y="0px"
	 viewBox="0 0 269.3 269.3" style="enable-background:new 0 0 269.3 269.3;" xml:space="preserve">
<style type="text/css">
	.st0{fill:none;stroke:#CF30BA;stroke-width:5;stroke-linejoin:round;stroke-miterlimit:10;}
	.st1{fill:none;stroke:#CF30BA;stroke-width:5;stroke-miterlimit:10;}
	.st2{fill:none;stroke:#CF30BA;stroke-width:5;stroke-linecap:round;stroke-miterlimit:10;}
</style>
<g>
	<line class="st0" x1="134.7" y1="112.4" x2="134.7" y2="235.9"/>
	<polygon class="st0" points="31,72.9 134.7,33.4 238.4,72.9 238.4,196.4 134.7,235.9 31,196.4 	"/>
	<polyline class="st0" points="238.4,72.9 134.7,112.4 31,72.9 	"/>
	<line class="st0" x1="185.2" y1="93.2" x2="81.5" y2="53.7"/>
	<polygon class="st1" points="223.2,133.6 179.5,148.6 170.8,123.1 214.5,108.2 	"/>
	<polyline class="st1" points="200.6,155.2 209.4,157.8 200.6,187.7 149.5,172.5 158.4,142.6 165,144.6 	"/>
	<polyline class="st2" points="65.6,146 55.7,132.2 45.9,138.2 	"/>
	<line class="st2" x1="55.7" y1="137.1" x2="55.7" y2="161.8"/>
	<polyline class="st2" points="95.2,157.6 85.3,143.9 75.5,149.8 	"/>
	<line class="st2" x1="85.3" y1="147" x2="85.3" y2="171.7"/>
	<line class="st2" x1="45.8" y1="177.7" x2="95.1" y2="197.1"/>
</g>
</svg>
