<?xml version="1.0" encoding="utf-8"?>
<!-- Generator: Adobe Illustrator 25.2.3, SVG Export Plug-In . SVG Version: 6.00 Build 0)  -->
<svg version="1.1" id="Layer_1" xmlns="http://www.w3.org/2000/svg" xmlns:xlink="http://www.w3.org/1999/xlink" x="0px" y="0px"
	 viewBox="0 0 269.3 269.3" style="enable-background:new 0 0 269.3 269.3;" xml:space="preserve">
<style type="text/css">
	.st0{fill:#CF30BA;}
</style>
<g>
	<path class="st0" d="M177.4,142.4h-15.9c-0.8,0-1.6-0.4-2.2-1c-0.6-0.6-0.8-1.5-0.7-2.3l10.2-80.8c0.1-1.1,0.9-2,1.9-2.4
		c1-0.4,2.2-0.1,3,0.6l14.2,13.1c0.7,0.6,1,1.6,0.9,2.5l-8.6,67.7C180.1,141.3,178.9,142.4,177.4,142.4z M164.8,136.6h10l8.1-63.6
		l-9-8.3L164.8,136.6z"/>
	<path class="st0" d="M193.3,142.4h-15.9c-0.8,0-1.6-0.4-2.2-1c-0.6-0.6-0.8-1.5-0.7-2.3l8.6-67.7c0.1-0.9,0.7-1.7,1.5-2.2l17-9.2
		c1-0.5,2.1-0.4,3,0.2c0.9,0.6,1.4,1.7,1.2,2.8l-9.7,76.8C195.9,141.3,194.7,142.4,193.3,142.4z M180.7,136.6h10l8.7-68.7l-10.8,5.8
		L180.7,136.6z"/>
	<path class="st0" d="M76.9,88.5c-10.9,0-17.4-5.8-19.1-17.2C55.5,56.2,72,33.5,72.7,32.6c0.9-1.3,2.8-1.6,4-0.6
		c1,0.7,23.6,17.4,25.9,32.5c3.1,20.1-13.8,22.7-19.3,23.6C81,88.3,78.9,88.5,76.9,88.5z M75.7,38.4c-5,7.5-13.6,22.6-12.2,32
		c1.3,8.6,5.3,12.3,13.4,12.3c1.7,0,3.5-0.2,5.5-0.5c11.9-1.8,16.1-6.7,14.5-17C95.5,55.9,82.8,44,75.7,38.4z"/>
	
		<rect x="75.2" y="120" transform="matrix(0.9883 -0.1524 0.1524 0.9883 -17.6871 15.0949)" class="st0" width="28.8" height="5.8"/>
	<path class="st0" d="M186,74.7c-0.7,0-1.4-0.3-2-0.8l-14.2-13.1c-1.1-1-1.2-2.8-0.3-3.9l18.7-23.3c0.6-0.8,1.6-1.2,2.6-1.1
		c1,0.1,1.9,0.8,2.3,1.7l12.3,27.3c0.6,1.4,0.1,3-1.3,3.7l-16.9,9.2C186.9,74.6,186.4,74.7,186,74.7z M175.7,58.4l10.7,9.9l12.7-6.9
		l-9.3-20.5L175.7,58.4z"/>
	
		<rect x="185.8" y="40.9" transform="matrix(0.1257 -0.9921 0.9921 0.1257 115.1896 231.0921)" class="st0" width="5.8" height="18.5"/>
	<rect x="118.7" y="44.4" class="st0" width="11.1" height="5.8"/>
	<rect x="118.7" y="63" class="st0" width="11.1" height="5.8"/>
	<rect x="118.7" y="81.5" class="st0" width="11.1" height="5.8"/>
	<rect x="118.7" y="100.1" class="st0" width="11.1" height="5.8"/>
	<rect x="118.7" y="118.6" class="st0" width="11.1" height="5.8"/>
	<path class="st0" d="M105.9,142.4H76.7c-1.4,0-2.7-1.1-2.9-2.5c-5.5-38.6-2.9-55.8,8.6-57.6c0.6-0.1,1.1-0.1,1.7-0.1
		c7.8,0,16.7,6.8,24.6,56.9c0.1,0.8-0.1,1.7-0.7,2.3C107.5,142,106.7,142.4,105.9,142.4z M79.2,136.6h23.2
		c-6.6-40.1-13.6-48.6-18.3-48.6c-0.3,0-0.5,0-0.8,0.1C78.5,88.7,74,97.8,79.2,136.6z"/>
	<path class="st0" d="M151.1,142.4h-32.4c-1.6,0-2.9-1.3-2.9-2.9V28.8c0-1.6,1.3-2.9,2.9-2.9h32.4c1.6,0,2.9,1.3,2.9,2.9v110.7
		C154,141.1,152.7,142.4,151.1,142.4z M121.6,136.6h26.6V31.7h-26.6V136.6z"/>
	<path class="st0" d="M188.5,243.4H79.5c-1.5,0-2.8-1.2-2.9-2.7l-6.2-79.9c-0.1-0.8,0.2-1.6,0.8-2.2c0.5-0.6,1.3-0.9,2.1-0.9h121.4
		c0.8,0,1.6,0.3,2.1,0.9c0.5,0.6,0.8,1.4,0.8,2.2l-6.2,79.9C191.2,242.3,190,243.4,188.5,243.4z M82.2,237.6h103.5l5.8-74.1H76.4
		L82.2,237.6z"/>
	<path class="st0" d="M202.5,163.6H65.5c-4,0-7.2-3.3-7.2-7.4v-12.3c0-4.1,3.3-7.4,7.2-7.4h136.9c4,0,7.2,3.3,7.2,7.4v12.3
		C209.7,160.3,206.4,163.6,202.5,163.6z M65.5,142.3c-0.8,0-1.4,0.7-1.4,1.6v12.3c0,0.9,0.7,1.6,1.4,1.6h136.9
		c0.8,0,1.4-0.7,1.4-1.6v-12.3c0-0.9-0.6-1.6-1.4-1.6H65.5z"/>
</g>
</svg>
