<?xml version="1.0" encoding="utf-8"?><svg xmlns="http://www.w3.org/2000/svg" viewBox="0 0 111.34 62.45"><title>drmartens</title><g id="Layer_2" data-name="Layer 2"><g id="Layer_1-2" data-name="Layer 1"><path d="M62.24,44.79h0Z" style="fill:#222127"/><path d="M72.67,40.45c-.08-.13-.16-.26-.33-.26a.41.41,0,0,0-.22.43.48.48,0,0,0,.46.22c0-.13.18-.21.09-.39" style="fill:#222127"/><polyline points="51.51 52.4 51.51 52.39 51.51 52.4 51.51 52.4" style="fill:#222127"/><path d="M75.55,40.72s-.13,0-.17,0-.25-.09-.17-.21c-.08-.17,0-.27,0-.3a.29.29,0,0,1,.32-.06.28.28,0,0,1,.18.27.35.35,0,0,1-.19.32m-.89.52h-.1a.2.2,0,0,1-.24-.12.29.29,0,0,1,0-.31.25.25,0,0,1,.25-.09.24.24,0,0,1,.16.2v0a.24.24,0,0,1-.11.28m-.8.39c0,.07-.08.17-.19.18s-.14,0-.22-.09a.41.41,0,0,1,0-.19c0-.08.06-.14.19-.2a.28.28,0,0,1,.28.17.2.2,0,0,1,0,.13m-1.28.61a.23.23,0,0,1,0-.27.14.14,0,0,0,0,.07.25.25,0,0,0,0,.15s0,0,0,0a.62.62,0,0,1,0-.11s0,0,0,0h0a.11.11,0,0,1,0-.08s.06,0,.07,0l0,0s0,0,0,0h0s0,0,0,0a.08.08,0,0,1-.07,0h0s0,0,0,0h0s0,0,0,.07.1.09.14.08a.2.2,0,0,1-.24-.07m-1.06-.35a.21.21,0,0,1-.17.1.32.32,0,0,1-.4-.19s0-.11,0-.13a.38.38,0,0,1,.22-.4.46.46,0,0,1,.36.15.3.3,0,0,1,.06.18v.06s0,0,0,.06a.25.25,0,0,1-.06.17m-1,.61a.31.31,0,0,1-.28,0c-.07-.05-.11-.12-.1-.15a.25.25,0,0,1,.07-.3.27.27,0,0,1,.32,0,.21.21,0,0,1,.1.25v0c0,.21-.09.25-.11.24m-.93.56a.26.26,0,0,1-.23,0,.21.21,0,0,1-.11-.2.2.2,0,0,1,.11-.25.28.28,0,0,1,.33.12.3.3,0,0,1,0,.1.22.22,0,0,1-.12.24m-.78.39s0,.08-.07.09l-.22.09s-.06,0-.09,0a.3.3,0,0,1-.1-.25c0-.07.06-.13.19-.18a.25.25,0,0,1,.28.16.19.19,0,0,1,0,.13m-.94.61s0,0,0,0l-.16.06a.14.14,0,0,1-.15,0c-.15-.16-.08-.28,0-.31a.23.23,0,0,1,.3,0,.2.2,0,0,1,.08.28m-.73-.71a.41.41,0,0,1-.38-.27.41.41,0,0,1,.26-.54.35.35,0,0,1,.33.1s.12.1.12.13a.59.59,0,0,1-.08.47.31.31,0,0,1-.25.11m-.8.46c-.09,0-.23.06-.42-.15a.27.27,0,0,1,0-.31.35.35,0,0,1,.37-.07.27.27,0,0,1,.17.23s0,0,0,0a.09.09,0,0,1,0,.05h0c0,.14-.07.23-.16.3m-.89.53s0,0-.1,0a.33.33,0,0,1-.32-.16A.24.24,0,0,1,65,44a.32.32,0,0,1,.35-.09.22.22,0,0,1,.14.22l-.12.26m-1,.59a.3.3,0,0,1-.28-.2.22.22,0,0,1,.09-.3.27.27,0,0,1,.35.11.36.36,0,0,1,0,.11.24.24,0,0,1-.18.28m-.94-1.07a.78.78,0,0,1,0-.14c0-.17,0-.41.27-.48a.52.52,0,0,1,.39.15.41.41,0,0,1,.07.22.13.13,0,0,1,0,.06.28.28,0,0,1,0,.09.35.35,0,0,1-.26.34.42.42,0,0,1-.45-.24m.06,1.36h0a.07.07,0,0,1,0,.07H63.4s0,0,0,0v0s0,0,0,.06,0-.07,0-.1l0,0v-.07h.05c.07,0,.08,0,.08.09h0v0h0m-.24,0s0,0,0,0v0h0s0,0,0,.06,0,.16.07.18-.06-.11-.07-.18m-.15-.67s-.12.06-.15,0a.28.28,0,0,1-.27,0,.21.21,0,0,1-.1-.18.3.3,0,0,1,.19-.41c.17-.08.3.06.4.16a.14.14,0,0,1,0,.09.45.45,0,0,1-.1.35m-.9.43s-.11.09-.12.11a.24.24,0,0,1-.23,0,.26.26,0,0,1-.12-.2.23.23,0,0,1,.08-.25.28.28,0,0,1,.29,0,.21.21,0,0,1,.13.2.06.06,0,0,0,0,0,.06.06,0,0,1,0,0h0a.43.43,0,0,1,0,.05.22.22,0,0,1,0,.13m-1.11.46c0,.09-.09,0-.09-.09s.13,0,.09.09m-.21-.09c0,.06.09.23.15.24-.14,0-.15-.24-.15-.24m-.09-.69a.26.26,0,0,1-.2.11.29.29,0,0,1-.27,0,.33.33,0,0,1-.14-.26.3.3,0,0,1,.08-.3.39.39,0,0,1,.41-.06.31.31,0,0,1,.18.28h0s0,0,0,.07a.31.31,0,0,1-.07.2m-.94.51a.29.29,0,0,1-.23.12.22.22,0,0,1-.11-.05l-.17-.16a.25.25,0,0,1,0-.28.29.29,0,0,1,.32,0,.25.25,0,0,1,.16.24.09.09,0,0,0,0,0,.09.09,0,0,1,0,0s0,0,0,.05a.28.28,0,0,1,0,.13m-.91.38-.11.21a.11.11,0,0,1-.1,0c-.21,0-.25-.1-.25-.18s0-.22.08-.23l.19,0,.17.12c.06,0,0,0,0,.07m-.55-.69a.49.49,0,0,1-.18.08.39.39,0,0,1-.38-.16.34.34,0,0,1,0-.1v-.1c0-.1,0-.28.2-.33a.36.36,0,0,1,.33.06.27.27,0,0,1,.12.21h0v0a0,0,0,0,1,0,0,.33.33,0,0,1-.06.3Zm-.51,1.45a.25.25,0,0,1-.15,0,.22.22,0,0,1-.16-.16.28.28,0,0,1,.11-.24.22.22,0,0,1,.21,0,.26.26,0,0,1,.08.23s-.06.09-.09.12m-.39-1a.32.32,0,0,1-.23.15A.34.34,0,0,1,57,45.2a.23.23,0,0,1,.09-.24.32.32,0,0,1,.33,0,.21.21,0,0,1,.13.21.8.8,0,0,1,0,.15m-5.77,7.27v0s-.09.08-.14.09a.22.22,0,0,1-.17,0,.28.28,0,0,1,0-.25.27.27,0,0,1,.07-.13.2.2,0,0,1,.27.1s0,0,0,0,.09.12,0,.26m-1.42-.34a1.42,1.42,0,0,1-.21.06.21.21,0,0,1-.25-.13.39.39,0,0,1,.26-.47c.1,0,.29.09.28.26Zm-1.39-.6h0c0,.09,0,.2-.21.29s-.29,0-.28-.17a.26.26,0,0,1,.08-.31.29.29,0,0,1,.32,0,.23.23,0,0,1,.1.19s0,0,0,0h0m-1.59-.19s-.08,0-.13,0a.19.19,0,0,1-.14-.11.23.23,0,0,1,.09-.31.18.18,0,0,1,.17,0s.09.12.07.17ZM45.48,50l0,0a0,0,0,0,1,0,0,.28.28,0,0,1-.33.13.31.31,0,0,1-.1-.42.25.25,0,0,1,.22-.14.31.31,0,0,1,.25.19.3.3,0,0,1,0,.1.25.25,0,0,1-.06.14h0M41,46.46a.29.29,0,0,1-.24.12,1.33,1.33,0,0,1-.29-.17.41.41,0,0,1,.25-.47c.17,0,.34.1.34.26h0s0,0,0,.06a.29.29,0,0,1-.07.2m15.51-.58a.36.36,0,0,1-.18.07.2.2,0,0,1-.2-.11.37.37,0,0,1,0-.11.21.21,0,0,1,.11-.19.24.24,0,0,1,.26,0s0,.06.06.07a.21.21,0,0,1,0,.27m-.64-.81c-.16,0-.32,0-.41-.26a.37.37,0,0,1,.25-.38l.34.1.08.2a.43.43,0,0,1-.26.34m-.27,1.35a.27.27,0,0,1-.24.08.11.11,0,0,1-.09,0,.22.22,0,0,1,.2-.37s.1.11.11.15a.28.28,0,0,1,0,.18m-.44-1.13-.17.3s0,0-.09,0-.29-.11-.28-.22a.29.29,0,0,1,.19-.37.18.18,0,0,1,.17,0l.17.15s0,0,0,.06m-1.08.81s-.07.06-.11,0a1.21,1.21,0,0,1-.23-.16.21.21,0,0,1,0-.26.29.29,0,0,1,.32,0,.47.47,0,0,1,.07.12.19.19,0,0,1-.09.27m-.6-.83c-.17,0-.34-.11-.33-.26a.31.31,0,0,1,.09-.33.34.34,0,0,1,.36,0,.27.27,0,0,1,.13.25v0a.37.37,0,0,1-.25.34m-.29,5.11h0l0,.24a1.81,1.81,0,0,1-.25.19l-.38-.1a1.56,1.56,0,0,0-.08-.21.38.38,0,0,1,.07-.31.34.34,0,0,1,.26-.12.41.41,0,0,1,.42.31h0s0,0,0,0m-.89-4.78a.26.26,0,0,1,.15-.33.25.25,0,0,1,.29.15s0,0,0,0,0,0,0,0h0s0,0,0,.1a.28.28,0,0,1-.1.18.33.33,0,0,1-.13,0,.21.21,0,0,1-.25-.14m-.25-.74c-.16,0-.32,0-.42-.26a.43.43,0,0,1,.26-.47c.1,0,.3,0,.4.13a.26.26,0,0,1,.06.17v.11a.36.36,0,0,1-.06.2.35.35,0,0,1-.24.12m-.4,1.4a.29.29,0,0,1-.22-.07.22.22,0,0,1,0-.23c0-.05.18,0,.24,0s.17.12.15.18a.18.18,0,0,1-.15.13m0,4.09c-.07.08-.17.11-.36.07s-.37-.09-.32-.35a.44.44,0,0,1,.3-.43.42.42,0,0,1,.47.28v0a.45.45,0,0,1-.1.41m-.79-.85-.33-.11-.09-.23c0-.26.14-.43.3-.42l.26,0,.19.24h0s0,.07,0,.1c0,.2-.18.31-.35.4M50,48.22a.32.32,0,0,1,.12-.31.33.33,0,0,1,.33,0,.26.26,0,0,1,.14.24h0c0,.25-.14.34-.26.34a.36.36,0,0,1-.33-.24m-.07-.87a.18.18,0,0,1-.13.06h-.14a.3.3,0,0,1-.06-.35s.14,0,.2,0,.16.09.17.14v0a.39.39,0,0,1,0,.18m-.1,1.32-.16.37s-.23.1-.2.1a.46.46,0,0,1-.38-.08.49.49,0,0,1-.15-.35.48.48,0,0,1,.32-.43.48.48,0,0,1,.56.36s0,0,0,0m-1-.57L48.62,48s-.12-.09-.12-.14c0-.25.09-.41.25-.47a.33.33,0,0,1,.29.05.31.31,0,0,1,.13.24v0h0a.17.17,0,0,1,0,.07.32.32,0,0,1-.09.23.28.28,0,0,1-.26.09m-.78-1.18a.26.26,0,0,1,.12-.34.33.33,0,0,1,.4.1.1.1,0,0,1,0,.07c0,.23-.09.34-.2.33s-.26-.06-.34-.16m-.21-.79a.35.35,0,0,1-.33-.26.27.27,0,0,1,.25-.28.25.25,0,0,1,.29.16v0a.32.32,0,0,1-.21.34m-.86-1a.25.25,0,0,1-.07-.17.36.36,0,0,1,0-.1l0-.12.23-.2a.4.4,0,0,1,.34,0,.3.3,0,0,1,.12.25,0,0,0,0,0,0,0,0,0,0,0,1,0,0h0s0,0,0,.06a.35.35,0,0,1-.22.31.41.41,0,0,1-.41-.08m0,1.64h-.26l-.19-.25a.35.35,0,0,1,.25-.45.39.39,0,0,1,.42.16.12.12,0,0,1,0,.09c0,.13,0,.4-.26.46m-.62-.91a.39.39,0,0,1-.37-.36c-.07-.28.16-.36.34-.41s.41,0,.41.34h0s0,0,0,0h0l-.13.32Zm-1-1.27a.88.88,0,0,1,0-.16.46.46,0,0,1,.29-.39l.42.08.19.29s0,0,0,0a.6.6,0,0,1-.18.44.35.35,0,0,1-.29.07.49.49,0,0,1-.45-.35m2.72-.73a.2.2,0,0,1,.13,0,.52.52,0,0,1,.38.28h0s0,.34,0,.34a2.24,2.24,0,0,1-.32.26.41.41,0,0,1-.45-.39.53.53,0,0,1,.28-.5M48.83,45a.26.26,0,0,1,.15.25.07.07,0,0,0,0,0,.28.28,0,0,1-.11.35.1.1,0,0,1-.09,0,.35.35,0,0,1-.3-.12c0-.06,0-.14,0-.14a.24.24,0,0,1,0-.27.33.33,0,0,1,.33-.06m.23,1.16A.22.22,0,0,1,49.3,46s.1.11.11.15,0,.15,0,.18-.15.08-.23.08a.12.12,0,0,1-.09,0,.2.2,0,0,1,0-.27m.33-1.71a.39.39,0,0,1,.37-.08.32.32,0,0,1,.2.26s0,0,0,0v0h0a.45.45,0,0,1,0,.11.3.3,0,0,1-.17.28l-.14,0-.3-.07s-.07-.2-.07-.16a.34.34,0,0,1,.1-.36m.79,1.06a.19.19,0,0,1,.18.15.43.43,0,0,1,0,.16.26.26,0,0,1-.24.09.21.21,0,0,1-.1,0A.22.22,0,0,1,50,45.6a.31.31,0,0,1,.21-.11m.8-.64a.26.26,0,0,1,.35.13v0a.31.31,0,0,1,0,.27.23.23,0,0,1-.21.1.18.18,0,0,1-.12,0l-.17-.16a.26.26,0,0,1,.18-.31M78.11,39.2c-.21,0-.54-.27-.29-.53,0-.3-.41-.43-.54-.13-.26.56.58.26.41.79a.52.52,0,0,1-.51.34c-.46-.05-.08-.48-.33-.66a.36.36,0,0,0-.55,0c-.33.48.42.35.33.79,0,.13-.13.3-.29.26a.38.38,0,0,1-.25-.48.51.51,0,0,0-.46-.23.8.8,0,0,0-.43.48c-.12.13-.29,0-.42,0-.54,0-.47,1-1.1.56-.17.13-.21.3-.34.43s-.5,0-.76,0c0,.22,0,.44-.25.57-.51.17-.46-.36-.63-.62-.42-.35-.51.34-.76.47-.79-.53-.6.87-1.35.47-.42,0-.3.65-.76.56-.17-.09-.5-.23-.33-.48a.41.41,0,0,0-.34-.31c-.71.34.33.52.2,1a.52.52,0,0,1-.46.26.44.44,0,0,1-.25-.57.59.59,0,0,0-.46-.23c-.09.09-.26.18-.26.35s-.38.17-.59.13a.43.43,0,0,0-.34.25.42.42,0,0,1-.5.3c-.63,0,0-.56-.42-.74-.12-.18-.33,0-.42.08-.3.61.72.27.42.88a.44.44,0,0,1-.47.26.4.4,0,0,1-.25-.53c-.08-.13-.21-.31-.42-.26s-.3.43-.46.6c-.63-.57-.64.52-1.19.42-.25,0-.54-.22-.33-.48a.41.41,0,0,0-.37-.31c-.76.47.41.53.2,1a.37.37,0,0,1-.47.3c-.25,0-.25-.35-.2-.57a.54.54,0,0,0-.46-.22c-.22,0-.3.3-.39.48s-.5,0-.71,0c-.13.22-.26.56-.55.52s-.3-.35-.29-.61-.25-.27-.46-.22-.26.34-.39.51a.76.76,0,0,1-.75-.18c.08-.22.17-.47-.08-.61a.26.26,0,0,0-.38.13c-.34.52.58.31.41.83-.09.17-.25.35-.46.3A.46.46,0,0,1,56.4,44c-.5-.83-.72.39-1.26.25-.13,0-.38-.18-.25-.39,0-.22-.16-.44-.38-.44s-.29.3-.34.52c.13.13.34.13.46.26a.37.37,0,0,1-.13.48c-.88.25,0-.87-.7-.79-.63-.35-.39.69-1,.51s0-.65-.41-.83c-.63-.31-.39.74-1,.47-.63.08-.08-.61-.5-.79a.32.32,0,0,0-.41.13c-.35.65.66.27.45.87a.43.43,0,0,1-.42.26c-.42-.05-.21-.56-.33-.74-.63-.57-.51.56-1.14.42a.4.4,0,0,1-.25-.56c-.46-.84-.72.34-1.18.2-.25,0-.5-.22-.33-.52a.42.42,0,0,0-.42-.31c-.85.6.58.48.29,1a.45.45,0,0,1-.51.3c-.46-.13,0-.6-.33-.82-.67-.45-.47.64-1,.46s-.46.39-.68.61c-.16,0-.29,0-.46,0s-.25.21-.3.39a.54.54,0,0,0,.42.39.35.35,0,0,0,.3-.3.33.33,0,0,1,.46-.3.5.5,0,0,1,.25.53c0,.34-.46.25-.67.21-.13.13-.26.25-.22.47a.45.45,0,0,0,.42.31c.29,0,.26-.39.43-.56a.47.47,0,0,1,.54.22.56.56,0,0,1-.09.57c-.17,0-.29-.05-.46-.05a.29.29,0,0,0-.22.3,2.16,2.16,0,0,0,.3.31c.33.26.34-.26.46-.43.21,0,.42,0,.55.22s0,.35,0,.52.44.2.65.34c0,0,0,0,0-.05l0-.1c0-.21.09-.52.41-.52s.46.2.46.39a0,0,0,0,0,0,0,0,0,0,0,1,0,0,.49.49,0,0,1,0,.12.32.32,0,0,1-.08.24.28.28,0,0,1-.23.11l-.41-.07a.37.37,0,0,1-.14-.09c0,.17-.21.38,0,.55.62.83.47-.56,1.14-.29.21,0,.25.3.25.48,0,.39-.43.3-.64.25.25.66.55-.12,1,.23a.37.37,0,0,1,.16.48,1.14,1.14,0,0,0,.59.35s.12-.08.13-.17a.47.47,0,0,1,.46-.3.44.44,0,0,1,.25.48c-.3.61.58.36.79.75,0,.74.55,0,.88.09.3,0,.38.31.5.48.21.66.59-.12.89-.07s.41.44.66.66.51-.35.85-.26.37.4.54.62a.61.61,0,0,0,.55-.21,1,1,0,0,1,.8.18c0,.21-.13.39-.18.52-.25.12-.5,0-.75,0-.13.17-.26.51-.55.38s-.08-.48-.42-.61c-.5-.35-.55.56-1.05.34-.38,0-.08-.48-.38-.62-.5-.39-.55.48-1.05.3-.42,0-.12-.52-.46-.66-.5-.35-.46.48-.92.3-.38,0-.3-.44-.46-.62-.46-.48-.55.35-1,.21-.17,0-.38-.26-.29-.43-.25-.79-.8,0-1.18,0s-.17-.53-.42-.75c-.41-.48-.63.26-1,.3a.34.34,0,0,1-.24-.44c0-.26.25-.17.46-.13,0-.08.17,0,.13-.17-.29-.52-.55.21-1,0-.46-.05-.2-.61-.54-.74s-.46,0-.55.21c-.59.25-.46-.53-.75-.75-.59,0-.29-.65-.71-.88s-.46.44-.8.26,0-.52-.28-.7c-.55,0-.55-.57-.8-.92-.54,0-.41-.61-.83-.79-.12-.18-.25,0-.34.12a.32.32,0,0,1-.46,0,.46.46,0,0,1,.26-.65c-.21-.4-.68.17-.88-.31.09-.53-.21-.66-.58-.84,0-.65-.75-.74-1-1.31s-.42.17-.71,0a.53.53,0,0,1-.29-.61c0-.13-.17,0-.3-.09a.29.29,0,0,0-.17.3,19.5,19.5,0,0,0,1.91,3.49,25.51,25.51,0,0,0,2,2.46c.29.39.71.53.92.92a22.78,22.78,0,0,0,11,5.63c.63,0,1.17.44,1.76.19.63.44,1.56.1,2.23.37a1.75,1.75,0,0,1,1.06,0c.54-.21,1.26,0,1.76-.21a19.78,19.78,0,0,0,3.33-.53c.88-.17,1.73-.42,2.57-.67.47-.3,1.06-.34,1.48-.68a20.71,20.71,0,0,0,5.67-3.6,8.92,8.92,0,0,0,1.53-1.6,21.85,21.85,0,0,0,3.76-5.27c.25-1,.85-1.86,1-2.9,0-.26.26-.78-.29-.48" style="fill:#222127"/><path d="M51.51,52.39h0a.06.06,0,0,1,0,0h0s0,0,0,0" style="fill:#222127"/><path d="M44.67,43.76a.4.4,0,0,0,.25-.35.51.51,0,0,0-.46-.35c-.17,0-.25.26-.25.43a.42.42,0,0,0,.46.27" style="fill:#222127"/><path d="M44.05,42.62s.12-.09.08-.21-.25-.06-.29.08a.22.22,0,0,0,.21.13" style="fill:#222127"/><path d="M47.83,42.87a.15.15,0,0,0,.09-.21s0-.09-.09-.09-.17.26,0,.3" style="fill:#222127"/><path d="M45.56,43.11c0-.08.12-.13.12-.26s-.12-.22-.25-.26-.21.21-.21.34.17.22.34.18" style="fill:#222127"/><path d="M43.16,43.22s.17-.13.17-.22c-.08-.26-.42-.26-.42,0a.27.27,0,0,0,.25.18" style="fill:#222127"/><path d="M49.3,43.41c.08-.09.29-.17.25-.35s-.37-.35-.46-.09,0,.39.21.44" style="fill:#222127"/><path d="M46.92,47.63l0,0h0l0,0" style="fill:#222127"/><path d="M42.27,43.73a1.6,1.6,0,0,0,.13-.21c-.09-.13-.38-.22-.34,0,0,.09.08.17.21.17" style="fill:#222127"/><path d="M43.69,44.27c.17-.09.34-.22.3-.43a.37.37,0,0,0-.37-.23.39.39,0,0,0-.26.35c.08.13.16.31.33.31" style="fill:#222127"/><path d="M42.93,44.61a.24.24,0,0,0,0-.17c0-.09-.13-.22-.25-.18s0,.3.2.35" style="fill:#222127"/><path d="M69.22,41.38c.08,0,.12-.13.12-.22s-.12-.17-.2-.17-.26.12-.22.25.17.27.3.14" style="fill:#222127"/><path d="M70.06,40.82s.13-.09.13-.18a.29.29,0,0,0-.16-.13c-.26.09-.09.27,0,.31" style="fill:#222127"/><path d="M65.88,42.17c.09,0,.22-.17.17-.3a.25.25,0,0,0-.46.08.39.39,0,0,0,.29.22" style="fill:#222127"/><path d="M63.61,42.11s-.08-.09-.12-.09-.17.13,0,.21.08-.08.16-.12" style="fill:#222127"/><path d="M73.35,40.11c.08-.08.17-.13.17-.21-.08-.27-.38-.18-.42,0s.12.26.25.17" style="fill:#222127"/><path d="M51.66,43.13c0-.05.21-.09.17-.22a.24.24,0,0,0-.21-.13c-.09,0-.17.13-.13.21a.19.19,0,0,0,.17.14" style="fill:#222127"/><path d="M74.33,39.34c0-.18-.26-.09-.22.08a.21.21,0,0,0,.13.09s.13-.09.09-.17" style="fill:#222127"/><path d="M78.16,38.2a.4.4,0,0,0,.25.18c.13,0,.18-.18.18-.26-.09-.35-.46-.18-.43.08" style="fill:#222127"/><path d="M58,43c-.08,0-.13-.18-.21-.18s-.21.22-.09.31.26,0,.3-.13" style="fill:#222127"/><path d="M55.48,43.38a.24.24,0,0,0,.21-.26.24.24,0,0,0-.46,0c0,.09.12.22.25.22" style="fill:#222127"/><path d="M59.35,43.72a.48.48,0,0,0,.21-.43c-.08-.09-.21-.27-.37-.23s-.26.22-.21.39a.35.35,0,0,0,.37.27" style="fill:#222127"/><path d="M53.08,43.62a.3.3,0,0,0,.26-.35c0-.13-.17-.17-.3-.22a.3.3,0,0,0-.21.34c0,.09.17.23.25.23" style="fill:#222127"/><path d="M62.6,42.88c.08,0,.25-.13.21-.26s-.17-.26-.29-.17-.22.08-.17.21a.26.26,0,0,0,.25.22" style="fill:#222127"/><path d="M60.2,43a.25.25,0,0,0,.17-.22c-.09-.22-.34-.09-.34.09s.08.17.17.13" style="fill:#222127"/><path d="M62.24,44.78Z" style="fill:#222127"/><path d="M72.67,40.45c-.08-.13-.16-.26-.33-.26a.41.41,0,0,0-.22.43.48.48,0,0,0,.46.22c0-.13.18-.21.09-.39" style="fill:#222127"/><polyline points="51.51 52.4 51.51 52.39 51.51 52.4 51.51 52.4" style="fill:#222127"/><path d="M75.55,40.72s-.13,0-.17,0-.25-.09-.17-.21c-.08-.17,0-.27,0-.3a.29.29,0,0,1,.32-.06.28.28,0,0,1,.18.27.35.35,0,0,1-.19.32m-.89.52h-.1a.2.2,0,0,1-.24-.12.29.29,0,0,1,0-.31.25.25,0,0,1,.25-.09.24.24,0,0,1,.16.2v0a.24.24,0,0,1-.11.28m-.8.39c0,.07-.08.17-.19.18s-.14,0-.22-.09a.41.41,0,0,1,0-.19c0-.08.06-.14.19-.2a.28.28,0,0,1,.28.17.2.2,0,0,1,0,.13m-1.28.61a.23.23,0,0,1,0-.27.14.14,0,0,0,0,.07.25.25,0,0,0,0,.15s0,0,0,0a.62.62,0,0,1,0-.11s0,0,0,0h0a.11.11,0,0,1,0-.08s.06,0,.07,0l0,0s0,0,0,0h0s0,0,0,0a.08.08,0,0,1-.07,0h0s0,0,0,0h0s0,0,0,.07.1.09.14.08a.2.2,0,0,1-.24-.07m-1.06-.35a.21.21,0,0,1-.17.1.32.32,0,0,1-.4-.19s0-.11,0-.13a.38.38,0,0,1,.22-.4.46.46,0,0,1,.36.15.3.3,0,0,1,.06.18v.06s0,0,0,.06a.25.25,0,0,1-.06.17m-1,.61a.31.31,0,0,1-.28,0c-.07-.05-.11-.12-.1-.15a.25.25,0,0,1,.07-.3.27.27,0,0,1,.32,0,.21.21,0,0,1,.1.25v0c0,.21-.09.25-.11.24m-.93.56a.26.26,0,0,1-.23,0,.21.21,0,0,1-.11-.2.2.2,0,0,1,.11-.25.28.28,0,0,1,.33.12.3.3,0,0,1,0,.1.22.22,0,0,1-.12.24m-.78.39s0,.08-.07.09l-.22.09s-.06,0-.09,0a.3.3,0,0,1-.1-.25c0-.07.06-.13.19-.18a.25.25,0,0,1,.28.16.19.19,0,0,1,0,.13m-.94.61s0,0,0,0l-.16.06a.14.14,0,0,1-.15,0c-.15-.16-.08-.28,0-.31a.23.23,0,0,1,.3,0,.2.2,0,0,1,.08.28m-.73-.71a.41.41,0,0,1-.38-.27.41.41,0,0,1,.26-.54.35.35,0,0,1,.33.1s.12.1.12.13a.59.59,0,0,1-.08.47.31.31,0,0,1-.25.11m-.8.46c-.09,0-.23.06-.42-.15a.27.27,0,0,1,0-.31.35.35,0,0,1,.37-.07.27.27,0,0,1,.17.23s0,0,0,0a.09.09,0,0,1,0,.05h0c0,.14-.07.23-.16.3m-.89.53s0,0-.1,0a.33.33,0,0,1-.32-.16A.24.24,0,0,1,65,44a.32.32,0,0,1,.35-.09.22.22,0,0,1,.14.22l-.12.26m-1,.59a.3.3,0,0,1-.28-.2.22.22,0,0,1,.09-.3.27.27,0,0,1,.35.11.36.36,0,0,1,0,.11.24.24,0,0,1-.18.28m-.94-1.07a.78.78,0,0,1,0-.14c0-.17,0-.41.27-.48a.52.52,0,0,1,.39.15.41.41,0,0,1,.07.22.13.13,0,0,1,0,.06.28.28,0,0,1,0,.09.35.35,0,0,1-.26.34.42.42,0,0,1-.45-.24m.06,1.36h0a.07.07,0,0,1,0,.07H63.4s0,0,0,0v0s0,0,0,.06,0-.07,0-.1l0,0v-.07h.05c.07,0,.08,0,.08.09h0v0h0m-.24,0s0,0,0,0v0h0s0,0,0,.06,0,.16.07.18-.06-.11-.07-.18m-.15-.67s-.12.06-.15,0a.28.28,0,0,1-.27,0,.21.21,0,0,1-.1-.18.3.3,0,0,1,.19-.41c.17-.08.3.06.4.16a.14.14,0,0,1,0,.09.45.45,0,0,1-.1.35m-.9.43s-.11.09-.12.11a.24.24,0,0,1-.23,0,.26.26,0,0,1-.12-.2.23.23,0,0,1,.08-.25.28.28,0,0,1,.29,0,.21.21,0,0,1,.13.2.06.06,0,0,0,0,0,.06.06,0,0,1,0,0h0a.43.43,0,0,1,0,.05.22.22,0,0,1,0,.13m-1.11.46c0,.09-.09,0-.09-.09s.13,0,.09.09m-.21-.09c0,.06.09.23.15.24-.14,0-.15-.24-.15-.24m-.09-.69a.26.26,0,0,1-.2.11.29.29,0,0,1-.27,0,.33.33,0,0,1-.14-.26.3.3,0,0,1,.08-.3.39.39,0,0,1,.41-.06.31.31,0,0,1,.18.28h0s0,0,0,.07a.31.31,0,0,1-.07.2m-.94.51a.29.29,0,0,1-.23.12.22.22,0,0,1-.11-.05l-.17-.16a.25.25,0,0,1,0-.28.29.29,0,0,1,.32,0,.25.25,0,0,1,.16.24.09.09,0,0,0,0,0,.09.09,0,0,1,0,0s0,0,0,.05a.28.28,0,0,1,0,.13m-.91.38-.11.21a.11.11,0,0,1-.1,0c-.21,0-.25-.1-.25-.18s0-.22.08-.23l.19,0,.17.12c.06,0,0,0,0,.07m-.55-.69a.49.49,0,0,1-.18.08.39.39,0,0,1-.38-.16.34.34,0,0,1,0-.1v-.1c0-.1,0-.28.2-.33a.36.36,0,0,1,.33.06.27.27,0,0,1,.12.21h0v0a0,0,0,0,1,0,0,.33.33,0,0,1-.06.3Zm-.51,1.45a.25.25,0,0,1-.15,0,.22.22,0,0,1-.16-.16.28.28,0,0,1,.11-.24.22.22,0,0,1,.21,0,.26.26,0,0,1,.08.23s-.06.09-.09.12m-.39-1a.32.32,0,0,1-.23.15A.34.34,0,0,1,57,45.2a.23.23,0,0,1,.09-.24.32.32,0,0,1,.33,0,.21.21,0,0,1,.13.21.8.8,0,0,1,0,.15m-5.77,7.27v0s-.09.08-.14.09a.22.22,0,0,1-.17,0,.28.28,0,0,1,0-.25.27.27,0,0,1,.07-.13.2.2,0,0,1,.27.1s0,0,0,0,.09.12,0,.26m-1.42-.34a1.42,1.42,0,0,1-.21.06.21.21,0,0,1-.25-.13.39.39,0,0,1,.26-.47c.1,0,.29.09.28.26Zm-1.39-.6h0c0,.09,0,.2-.21.29s-.29,0-.28-.17a.26.26,0,0,1,.08-.31.29.29,0,0,1,.32,0,.23.23,0,0,1,.1.19s0,0,0,0h0m-1.59-.19s-.08,0-.13,0a.19.19,0,0,1-.14-.11.23.23,0,0,1,.09-.31.18.18,0,0,1,.17,0s.09.12.07.17ZM45.48,50l0,0a0,0,0,0,1,0,0,.28.28,0,0,1-.33.13.31.31,0,0,1-.1-.42.25.25,0,0,1,.22-.14.31.31,0,0,1,.25.19.3.3,0,0,1,0,.1.25.25,0,0,1-.06.14h0M41,46.46a.29.29,0,0,1-.24.12,1.33,1.33,0,0,1-.29-.17.41.41,0,0,1,.25-.47c.17,0,.34.1.34.26h0s0,0,0,.06a.29.29,0,0,1-.07.2m15.51-.58a.36.36,0,0,1-.18.07.2.2,0,0,1-.2-.11.37.37,0,0,1,0-.11.21.21,0,0,1,.11-.19.24.24,0,0,1,.26,0s0,.06.06.07a.21.21,0,0,1,0,.27m-.64-.81c-.16,0-.32,0-.41-.26a.37.37,0,0,1,.25-.38l.34.1.08.2a.43.43,0,0,1-.26.34m-.27,1.35a.27.27,0,0,1-.24.08.11.11,0,0,1-.09,0,.22.22,0,0,1,.2-.37s.1.11.11.15a.28.28,0,0,1,0,.18m-.44-1.13-.17.3s0,0-.09,0-.29-.11-.28-.22a.29.29,0,0,1,.19-.37.18.18,0,0,1,.17,0l.17.15s0,0,0,.06m-1.08.81s-.07.06-.11,0a1.21,1.21,0,0,1-.23-.16.21.21,0,0,1,0-.26.29.29,0,0,1,.32,0,.47.47,0,0,1,.07.12.19.19,0,0,1-.09.27m-.6-.83c-.17,0-.34-.11-.33-.26a.31.31,0,0,1,.09-.33.34.34,0,0,1,.36,0,.27.27,0,0,1,.13.25v0a.37.37,0,0,1-.25.34m-.29,5.11h0l0,.24a1.81,1.81,0,0,1-.25.19l-.38-.1a1.56,1.56,0,0,0-.08-.21.38.38,0,0,1,.07-.31.34.34,0,0,1,.26-.12.41.41,0,0,1,.42.31h0s0,0,0,0m-.89-4.78a.26.26,0,0,1,.15-.33.25.25,0,0,1,.29.15s0,0,0,0,0,0,0,0h0s0,0,0,.1a.28.28,0,0,1-.1.18.33.33,0,0,1-.13,0,.21.21,0,0,1-.25-.14m-.25-.74c-.16,0-.32,0-.42-.26a.43.43,0,0,1,.26-.47c.1,0,.3,0,.4.13a.26.26,0,0,1,.06.17v.11a.36.36,0,0,1-.06.2.35.35,0,0,1-.24.12m-.4,1.4a.29.29,0,0,1-.22-.07.22.22,0,0,1,0-.23c0-.05.18,0,.24,0s.17.12.15.18a.18.18,0,0,1-.15.13m0,4.09c-.07.08-.17.11-.36.07s-.37-.09-.32-.35a.44.44,0,0,1,.3-.43.42.42,0,0,1,.47.28v0a.45.45,0,0,1-.1.41m-.79-.85-.33-.11-.09-.23c0-.26.14-.43.3-.42l.26,0,.19.24h0s0,.07,0,.1c0,.2-.18.31-.35.4M50,48.22a.32.32,0,0,1,.12-.31.33.33,0,0,1,.33,0,.26.26,0,0,1,.14.24h0c0,.25-.14.34-.26.34a.36.36,0,0,1-.33-.24m-.07-.87a.18.18,0,0,1-.13.06h-.14a.3.3,0,0,1-.06-.35s.14,0,.2,0,.16.09.17.14v0a.39.39,0,0,1,0,.18m-.1,1.32-.16.37s-.23.1-.2.1a.46.46,0,0,1-.38-.08.49.49,0,0,1-.15-.35.48.48,0,0,1,.32-.43.48.48,0,0,1,.56.36s0,0,0,0m-1-.57L48.62,48s-.12-.09-.12-.14c0-.25.09-.41.25-.47a.33.33,0,0,1,.29.05.31.31,0,0,1,.13.24v0h0a.17.17,0,0,1,0,.07.32.32,0,0,1-.09.23.28.28,0,0,1-.26.09m-.78-1.18a.26.26,0,0,1,.12-.34.33.33,0,0,1,.4.1.1.1,0,0,1,0,.07c0,.23-.09.34-.2.33s-.26-.06-.34-.16m-.21-.79a.35.35,0,0,1-.33-.26.27.27,0,0,1,.25-.28.25.25,0,0,1,.29.16v0a.32.32,0,0,1-.21.34m-.86-1a.25.25,0,0,1-.07-.17.36.36,0,0,1,0-.1l0-.12.23-.2a.4.4,0,0,1,.34,0,.3.3,0,0,1,.12.25,0,0,0,0,0,0,0,0,0,0,0,1,0,0h0s0,0,0,.06a.35.35,0,0,1-.22.31.41.41,0,0,1-.41-.08m0,1.64h-.26l-.19-.25a.35.35,0,0,1,.25-.45.39.39,0,0,1,.42.16.12.12,0,0,1,0,.09c0,.13,0,.4-.26.46m-.62-.91a.39.39,0,0,1-.37-.36c-.07-.28.16-.36.34-.41s.41,0,.41.34h0s0,0,0,0h0l-.13.32Zm-1-1.27a.88.88,0,0,1,0-.16.46.46,0,0,1,.29-.39l.42.08.19.29s0,0,0,0a.6.6,0,0,1-.18.44.35.35,0,0,1-.29.07.49.49,0,0,1-.45-.35m2.72-.73a.2.2,0,0,1,.13,0,.52.52,0,0,1,.38.28h0s0,.34,0,.34a2.24,2.24,0,0,1-.32.26.41.41,0,0,1-.45-.39.53.53,0,0,1,.28-.5M48.83,45a.26.26,0,0,1,.15.25.07.07,0,0,0,0,0,.28.28,0,0,1-.11.35.1.1,0,0,1-.09,0,.35.35,0,0,1-.3-.12c0-.06,0-.14,0-.14a.24.24,0,0,1,0-.27.33.33,0,0,1,.33-.06m.23,1.16A.22.22,0,0,1,49.3,46s.1.11.11.15,0,.15,0,.18-.15.08-.23.08a.12.12,0,0,1-.09,0,.2.2,0,0,1,0-.27m.33-1.71a.39.39,0,0,1,.37-.08.32.32,0,0,1,.2.26s0,0,0,0v0h0a.45.45,0,0,1,0,.11.3.3,0,0,1-.17.28l-.14,0-.3-.07s-.07-.2-.07-.16a.34.34,0,0,1,.1-.36m.79,1.06a.19.19,0,0,1,.18.15.43.43,0,0,1,0,.16.26.26,0,0,1-.24.09.21.21,0,0,1-.1,0A.22.22,0,0,1,50,45.6a.31.31,0,0,1,.21-.11m.8-.64a.26.26,0,0,1,.35.13v0a.31.31,0,0,1,0,.27.23.23,0,0,1-.21.1.18.18,0,0,1-.12,0l-.17-.16a.26.26,0,0,1,.18-.31M78.11,39.2c-.21,0-.54-.27-.29-.53,0-.3-.41-.43-.54-.13-.26.56.58.26.41.79a.52.52,0,0,1-.51.34c-.46-.05-.08-.48-.33-.66a.36.36,0,0,0-.55,0c-.33.48.42.35.33.79,0,.13-.13.3-.29.26a.38.38,0,0,1-.25-.48.51.51,0,0,0-.46-.23.8.8,0,0,0-.43.48c-.12.13-.29,0-.42,0-.54,0-.47,1-1.1.56-.17.13-.21.3-.34.43s-.5,0-.76,0c0,.22,0,.44-.25.57-.51.17-.46-.36-.63-.62-.42-.35-.51.34-.76.47-.79-.53-.6.87-1.35.47-.42,0-.3.65-.76.56-.17-.09-.5-.23-.33-.48a.41.41,0,0,0-.34-.31c-.71.34.33.52.2,1a.52.52,0,0,1-.46.26.44.44,0,0,1-.25-.57.59.59,0,0,0-.46-.23c-.09.09-.26.18-.26.35s-.38.17-.59.13a.43.43,0,0,0-.34.25.42.42,0,0,1-.5.3c-.63,0,0-.56-.42-.74-.12-.18-.33,0-.42.08-.3.61.72.27.42.88a.44.44,0,0,1-.47.26.4.4,0,0,1-.25-.53c-.08-.13-.21-.31-.42-.26s-.3.43-.46.6c-.63-.57-.64.52-1.19.42-.25,0-.54-.22-.33-.48a.41.41,0,0,0-.37-.31c-.76.47.41.53.2,1a.37.37,0,0,1-.47.3c-.25,0-.25-.35-.2-.57a.54.54,0,0,0-.46-.22c-.22,0-.3.3-.39.48s-.5,0-.71,0c-.13.22-.26.56-.55.52s-.3-.35-.29-.61-.25-.27-.46-.22-.26.34-.39.51a.76.76,0,0,1-.75-.18c.08-.22.17-.47-.08-.61a.26.26,0,0,0-.38.13c-.34.52.58.31.41.83-.09.17-.25.35-.46.3A.46.46,0,0,1,56.4,44c-.5-.83-.72.39-1.26.25-.13,0-.38-.18-.25-.39,0-.22-.16-.44-.38-.44s-.29.3-.34.52c.13.13.34.13.46.26a.37.37,0,0,1-.13.48c-.88.25,0-.87-.7-.79-.63-.35-.39.69-1,.51s0-.65-.41-.83c-.63-.31-.39.74-1,.47-.63.08-.08-.61-.5-.79a.32.32,0,0,0-.41.13c-.35.65.66.27.45.87a.43.43,0,0,1-.42.26c-.42-.05-.21-.56-.33-.74-.63-.57-.51.56-1.14.42a.4.4,0,0,1-.25-.56c-.46-.84-.72.34-1.18.2-.25,0-.5-.22-.33-.52a.42.42,0,0,0-.42-.31c-.85.6.58.48.29,1a.45.45,0,0,1-.51.3c-.46-.13,0-.6-.33-.82-.67-.45-.47.64-1,.46s-.46.39-.68.61c-.16,0-.29,0-.46,0s-.25.21-.3.39a.54.54,0,0,0,.42.39.35.35,0,0,0,.3-.3.33.33,0,0,1,.46-.3.5.5,0,0,1,.25.53c0,.34-.46.25-.67.21-.13.13-.26.25-.22.47a.45.45,0,0,0,.42.31c.29,0,.26-.39.43-.56a.47.47,0,0,1,.54.22.56.56,0,0,1-.09.57c-.17,0-.29-.05-.46-.05a.29.29,0,0,0-.22.3,2.16,2.16,0,0,0,.3.31c.33.26.34-.26.46-.43.21,0,.42,0,.55.22s0,.35,0,.52.44.2.65.34c0,0,0,0,0-.05l0-.1c0-.21.09-.52.41-.52s.46.2.46.39a0,0,0,0,0,0,0,0,0,0,0,1,0,0,.49.49,0,0,1,0,.12.32.32,0,0,1-.08.24.28.28,0,0,1-.23.11l-.41-.07a.37.37,0,0,1-.14-.09c0,.17-.21.38,0,.55.62.83.47-.56,1.14-.29.21,0,.25.3.25.48,0,.39-.43.3-.64.25.25.66.55-.12,1,.23a.37.37,0,0,1,.16.48,1.14,1.14,0,0,0,.59.35s.12-.08.13-.17a.47.47,0,0,1,.46-.3.44.44,0,0,1,.25.48c-.3.61.58.36.79.75,0,.74.55,0,.88.09.3,0,.38.31.5.48.21.66.59-.12.89-.07s.41.44.66.66.51-.35.85-.26.37.4.54.62a.61.61,0,0,0,.55-.21,1,1,0,0,1,.8.18c0,.21-.13.39-.18.52-.25.12-.5,0-.75,0-.13.17-.26.51-.55.38s-.08-.48-.42-.61c-.5-.35-.55.56-1.05.34-.38,0-.08-.48-.38-.62-.5-.39-.55.48-1.05.3-.42,0-.12-.52-.46-.66-.5-.35-.46.48-.92.3-.38,0-.3-.44-.46-.62-.46-.48-.55.35-1,.21-.17,0-.38-.26-.29-.43-.25-.79-.8,0-1.18,0s-.17-.53-.42-.75c-.41-.48-.63.26-1,.3a.34.34,0,0,1-.24-.44c0-.26.25-.17.46-.13,0-.08.17,0,.13-.17-.29-.52-.55.21-1,0-.46-.05-.2-.61-.54-.74s-.46,0-.55.21c-.59.25-.46-.53-.75-.75-.59,0-.29-.65-.71-.88s-.46.44-.8.26,0-.52-.28-.7c-.55,0-.55-.57-.8-.92-.54,0-.41-.61-.83-.79-.12-.18-.25,0-.34.12a.32.32,0,0,1-.46,0,.46.46,0,0,1,.26-.65c-.21-.4-.68.17-.88-.31.09-.53-.21-.66-.58-.84,0-.65-.75-.74-1-1.31s-.42.17-.71,0a.53.53,0,0,1-.29-.61c0-.13-.17,0-.3-.09a.29.29,0,0,0-.17.3,19.5,19.5,0,0,0,1.91,3.49,25.51,25.51,0,0,0,2,2.46c.29.39.71.53.92.92a22.78,22.78,0,0,0,11,5.63c.63,0,1.17.44,1.76.19.63.44,1.56.1,2.23.37a1.75,1.75,0,0,1,1.06,0c.54-.21,1.26,0,1.76-.21a19.78,19.78,0,0,0,3.33-.53c.88-.17,1.73-.42,2.57-.67.47-.3,1.06-.34,1.48-.68a20.71,20.71,0,0,0,5.67-3.6,8.92,8.92,0,0,0,1.53-1.6,21.85,21.85,0,0,0,3.76-5.27c.25-1,.85-1.86,1-2.9,0-.26.26-.78-.29-.48" style="fill:#222127"/><path d="M51.51,52.39h0a.06.06,0,0,1,0,0h0s0,0,0,0" style="fill:#222127"/><path d="M44.67,43.76a.4.4,0,0,0,.25-.35.51.51,0,0,0-.46-.35c-.17,0-.25.26-.25.43a.42.42,0,0,0,.46.27" style="fill:#222127"/><path d="M44.05,42.62s.12-.09.08-.21-.25-.06-.29.08a.22.22,0,0,0,.21.13" style="fill:#222127"/><path d="M47.83,42.87a.15.15,0,0,0,.09-.21s0-.09-.09-.09-.17.26,0,.3" style="fill:#222127"/><path d="M45.56,43.11c0-.08.12-.13.12-.26s-.12-.22-.25-.26-.21.21-.21.34.17.22.34.18" style="fill:#222127"/><path d="M43.16,43.22s.17-.13.17-.22c-.08-.26-.42-.26-.42,0a.27.27,0,0,0,.25.18" style="fill:#222127"/><path d="M49.3,43.41c.08-.09.29-.17.25-.35s-.37-.35-.46-.09,0,.39.21.44" style="fill:#222127"/><path d="M46.92,47.63l0,0h0l0,0" style="fill:#222127"/><path d="M42.27,43.73a1.6,1.6,0,0,0,.13-.21c-.09-.13-.38-.22-.34,0,0,.09.08.17.21.17" style="fill:#222127"/><path d="M43.69,44.27c.17-.09.34-.22.3-.43a.37.37,0,0,0-.37-.23.39.39,0,0,0-.26.35c.08.13.16.31.33.31" style="fill:#222127"/><path d="M42.93,44.61a.24.24,0,0,0,0-.17c0-.09-.13-.22-.25-.18s0,.3.2.35" style="fill:#222127"/><path d="M69.22,41.38c.08,0,.12-.13.12-.22s-.12-.17-.2-.17-.26.12-.22.25.17.27.3.14" style="fill:#222127"/><path d="M70.06,40.82s.13-.09.13-.18a.29.29,0,0,0-.16-.13c-.26.09-.09.27,0,.31" style="fill:#222127"/><path d="M65.88,42.17c.09,0,.22-.17.17-.3a.25.25,0,0,0-.46.08.39.39,0,0,0,.29.22" style="fill:#222127"/><path d="M63.61,42.11s-.08-.09-.12-.09-.17.13,0,.21.08-.08.16-.12" style="fill:#222127"/><path d="M73.35,40.11c.08-.08.17-.13.17-.21-.08-.27-.38-.18-.42,0s.12.26.25.17" style="fill:#222127"/><path d="M51.66,43.13c0-.05.21-.09.17-.22a.24.24,0,0,0-.21-.13c-.09,0-.17.13-.13.21a.19.19,0,0,0,.17.14" style="fill:#222127"/><path d="M74.33,39.34c0-.18-.26-.09-.22.08a.21.21,0,0,0,.13.09s.13-.09.09-.17" style="fill:#222127"/><path d="M78.16,38.2a.4.4,0,0,0,.25.18c.13,0,.18-.18.18-.26-.09-.35-.46-.18-.43.08" style="fill:#222127"/><path d="M58,43c-.08,0-.13-.18-.21-.18s-.21.22-.09.31.26,0,.3-.13" style="fill:#222127"/><path d="M55.48,43.38a.24.24,0,0,0,.21-.26.24.24,0,0,0-.46,0c0,.09.12.22.25.22" style="fill:#222127"/><path d="M59.35,43.72a.48.48,0,0,0,.21-.43c-.08-.09-.21-.27-.37-.23s-.26.22-.21.39a.35.35,0,0,0,.37.27" style="fill:#222127"/><path d="M53.08,43.62a.3.3,0,0,0,.26-.35c0-.13-.17-.17-.3-.22a.3.3,0,0,0-.21.34c0,.09.17.23.25.23" style="fill:#222127"/><path d="M62.6,42.88c.08,0,.25-.13.21-.26s-.17-.26-.29-.17-.22.08-.17.21a.26.26,0,0,0,.25.22" style="fill:#222127"/><path d="M60.2,43a.25.25,0,0,0,.17-.22c-.09-.22-.34-.09-.34.09s.08.17.17.13" style="fill:#222127"/><path d="M52.48,12c-.21.17-.92.9-1.13.58s.19-.5.19-.5l-2.91-.38-.5,1.51.63.44L48,17.74l1.84,1.19,1.64-1.83-.68-.66s-.47.46-.65,0a5.57,5.57,0,0,1,.41-1.36c.19-.53.57-1.55.95-.95a7.14,7.14,0,0,1,.57,1.45l1.07-1.32-.19-2a6.39,6.39,0,0,1-.51-.39" style="fill:#222127"/><path d="M77.37,11.38c-.23.14-1,.79-1.19.46s.24-.48.24-.48l-2.5-.64-.65,1.43.58.49-1.13,4,1.71,1.33,1.82-1.63-.62-.71s-.51.41-.64,0a3.1,3.1,0,0,1,.33-1.29c.25-.5.63-1.23.89-.83a4.13,4.13,0,0,1,.42,1.47l1.2-1.18V11.81s-.29-.25-.46-.43" style="fill:#222127"/><path d="M45.74,16.86c-.25-.25.94-3.95.94-3.95l-3-.82-.38,1.45.63.63-.38,4.36s1.7,1,1.77,1,1.51-2.21,1.51-2.21l-.57-.63s-.24.41-.49.16m.18-8.67a1.25,1.25,0,1,0,1.34,1.25,1.3,1.3,0,0,0-1.34-1.25" style="fill:#222127"/><path d="M71.06,15.64c-.25-.25.94-3.83.94-3.83L69.22,11l-.38,1.41.63.61-.53,4.21s1.61,1.05,1.67,1.05,1.52-2.14,1.52-2.14l-.57-.61s-.25.4-.5.16m.18-8.53A1.3,1.3,0,0,0,69.9,8.36a1.34,1.34,0,0,0,2.68,0,1.3,1.3,0,0,0-1.34-1.25" style="fill:#222127"/><path d="M62.91,7.61l-3,5.66L59.64,13a42.2,42.2,0,0,1,.17-4.85l-3,1.8-.27,2.23a7,7,0,0,0-.51.72c0-.76-.14-6-.14-6L53.12,8.86l.06,1.21.63.06c.3,2.67.55,6.14.63,7.14a10.88,10.88,0,0,0,1.85,1c0-.06,1.51-3.44,1.51-3.44l.56,3.54,2-1S63.46,10.12,64,9.25a6.11,6.11,0,0,1,1.11-.17l.22-1.73Z" style="fill:#222127"/><path d="M64.9,16.14a13.52,13.52,0,0,1-1.46.57c-.14,0-.35.1-.35-.05,0-.6,2.06-1.94,2.06-1.94Zm1.81-.71a26.63,26.63,0,0,1,1.23-4l-2.64-.53-1.22,1.39.64.41a2.41,2.41,0,0,1,.33-.26c.32-.19.44.23.2.61a15.14,15.14,0,0,0-3.6,3.08l1,2.17,2.51-.8,1.17.94,1.51-1.84s-.3-.54-.45-.83c-.51.4-.71,0-.63-.29" style="fill:#222127"/><path d="M39.16,16.83l-.76-.19,1-2.64Zm2.37,2a91.16,91.16,0,0,1,.22-9.4l-2.84.82-3.22,8.52-.82-.12-.61,1.43,2.44,1.6L38,18.34l1.36.32c.12,1.32.41,2.78.41,2.78l2.78-1.39V18.72l-1,.12" style="fill:#222127"/><path d="M70.08,37.57a4.08,4.08,0,0,0,2.67.31c2-.34,6.68-1.54,8.76-2.15l-.23-.91c-3.67,1.08-7.42,2-11.2,2.75m10.54-5.32a123.12,123.12,0,0,1-12.76,3h0a5.19,5.19,0,0,0,.46.86h0a120.7,120.7,0,0,0,12.53-3Zm.34,1.3A123.38,123.38,0,0,1,68.6,36.49a3.52,3.52,0,0,0,.9.75v0c3.94-.75,7.85-1.72,11.67-2.84Zm-.68-2.65-4.92,1.22.27,1.05q2.46-.62,4.89-1.32Zm-8.1-1.45,2.37-.59s-.31-1.32-.46-1.74c-.43-1.26-2.59-.7-2.34.56.09.48.43,1.77.43,1.77m1.31,4.23c-1.91.43-3.84.83-5.78,1.17,0-.07,0-.15-.08-.22a49.11,49.11,0,0,1-1.23-5c-1.25-7.43,11.24-9.08,12.54-4.05l1,3.78-7.36,1.89.51,1.94h0a1,1,0,0,0,.34.48M83.88,34c2.54-.81,5.05-1.69,7.48-2.63l.3.78c-.69.27-6.76,2.49-7.44,2.7Zm14.46-7.37c-2,.94-4.17,1.83-6.35,2.69l-.33-.85q3.27-1.28,6.36-2.68Zm-.47-1.22q-3.09,1.39-6.36,2.67l-1.92-4.89c-.77-2.06-3.06-1.33-2.21.86.35.92.74,1.87,1.07,2.74a1.15,1.15,0,0,0,1.43.67l.42,1.09c-2.46.93-5,1.8-7.54,2.6l-.33-.84A1.38,1.38,0,0,0,83,28.79c-.29-.76-.86-2.23-1.19-3.06-.47-1.21-1.45-.82-1.45-.82l-1.42-3.67L85,18.88s.59,1.46.58,1.51a6.42,6.42,0,0,1,3.85-3c3.67-.89,4.68,1.75,6.64,6.41a1,1,0,0,0,1.39.59Zm-15,6.12C85.47,30.77,88,29.9,90.44,29l.33.85c-2.45.93-5,1.81-7.52,2.61Zm16-3.36.3.77c-1.09.56-5.24,2.29-6.32,2.74l-.31-.8q3.26-1.29,6.33-2.71m-.15-.38c-2.05.94-4.16,1.85-6.33,2.71l-.31-.8c2.17-.85,4.29-1.75,6.34-2.68ZM83.73,33.64q3.83-1.22,7.49-2.63l-.31-.8c-2.44.93-5,1.8-7.51,2.6ZM111,21.8a.3.3,0,0,0,0,.1,5.87,5.87,0,0,1-2.56,2.53c-.64.35-5.5,2.94-6.86,3.63l-.45-.85A108,108,0,0,0,111,21.8m0-3.35c-1.62,1-3.33,2-5.11,3a1.13,1.13,0,0,0-.12-.4c-.39-.69-.85-.88-3.74.07-.84.28-3.48.94-5.2-.84a5.81,5.81,0,0,1-.91-1.41c-1.17-2.61,1-4.79,2.33-5.61.63-.37,6.82-3.56,6.82-3.56l2.15,4s-3.73,2-4.33,2.28c-.13-.13-.27-.52-.55-.62-.63-.21-1.87.5-1.85,1.08a1,1,0,0,0,.23.57c.24.2.74.34,2.34-.26,5.72-2.16,7.28.15,7.94,1.7m-7.11,4.06q-2.06,1.06-4.23,2.1l-.49-.95s3.42-1.8,4-2.13a4.5,4.5,0,0,0,.56.87,1.1,1.1,0,0,0,.14.11m7.28-1.34a106.93,106.93,0,0,1-10.32,5.67l-.38-.71a110.43,110.43,0,0,0,10.87-5.94v.07a4.39,4.39,0,0,1-.17.91m0-2.19c0-.05,0-.09,0-.14A110.51,110.51,0,0,1,99.86,25l.41.79a107.82,107.82,0,0,0,11.06-6.05,3.27,3.27,0,0,0-.13-.73M49,36.4l-7.93,0v-.93a1.11,1.11,0,0,0,1.06-1.15V30.93a1.11,1.11,0,0,0-1.06-1.15V25.84h6.52v1.62c2.53-2.66,7.18-2.28,7.16,3,0,1.16,0,2.1,0,2.1H50.34l0-.88c0-2.5-2.36-2.43-2.37-.13v3A1.12,1.12,0,0,0,49,35.64Zm0,3.15v.92H41.09v-.89Zm0-.42-7.93,0v-1l7.93,0Zm0-2.31-7.93,0v.94l7.93,0ZM23.07,39.25l-9.92,0v-.94l9.91-.05Zm0,.42v1H13.15v-.94Zm0-1.79-9.91,0V37l9.91-.05ZM0,38.41l9.92,0v1L0,39.35ZM0,37l9.91,0v1L0,38Zm0,2.73,9.92-.05v.93H0Zm23.06-4.28s-2.72,0-2.75-1.66,0-5.58,0-6.87c.06-2.24,2.63-2.15,2.63-2.15v-4h-7.8l-3.6,6.64-3.6-6.64H.14v4S2.8,24.72,2.86,27c0,1.29,0,5.16,0,6.87S0,35.49,0,35.49v1.14l9.91-.05v-1s-1.32,0-1.32-1.16V32l2.93,3.73L14.47,32v2.41c0,1.13-1.32,1.16-1.32,1.16v1l9.91,0Zm8.46,0c-.9,0-1.63-1.34-1.63-3s.73-3,1.63-3,1.63,1.35,1.63,3-.73,3-1.63,3m6.64-1.15V25.85l-5.46,0v1.62c-.61-1.23-3.11-1.91-4.89-1.13-2.66,1.18-3.7,4.08-3.68,6.82a9.35,9.35,0,0,0,.55,3.33l14.54-.06v-.91a1.11,1.11,0,0,1-1.06-1.16m-11,5.27,4.9,0a4.61,4.61,0,0,1-4.21.39,5.64,5.64,0,0,1-.69-.36m12.1-.48-6.52,0v-.31a1.26,1.26,0,0,1-.22.31c-1.93,0-3.92,0-5.94,0a6.08,6.08,0,0,1-.89-.94l13.57-.06Zm0,.42v.92H32.7v-.89Zm0-2.73-14.37.07a7.25,7.25,0,0,0,.51,1l13.86-.07ZM8.89,4.07V15.15s3.3.37,3.36-1.68V5.75c-.06-2-3.36-1.68-3.36-1.68M25.46,19h2.72V16H25.46Zm-6.21-3.19V19h5.08V15.93a.71.71,0,0,1-.68-.73V13.31c0-1.48,1.52-1.52,1.52.08l0,.56H28V12.61c0-3.38-3-3.62-4.6-1.92v-1H19.25v2.53a.71.71,0,0,1,.68.74v2.19a.71.71,0,0,1-.68.74m-7-10.1c-.06-2-3.36-1.68-3.36-1.68V15.15s3.3.37,3.36-1.68Zm3,13.47H.17V15s2.53,0,2.64-2.12V6.31C2.7,4.2.17,4.19.17,4.19V0H15.24a3.11,3.11,0,0,1,3.09,3.15V16.07a3.12,3.12,0,0,1-3.09,3.15M65.82,35.16q-4.62.73-9.21,1l-.12-.91s1.68-.33,1.57-1.81c0-.22-.33-2.55-.38-2.91-.18-1.11-1.47-.76-1.47-.76s-.52-4.19-.49-4.2c.34,0,1.34-.14,1.2-1.23s-.42-3.17-.42-3.17l5.78-.68s.25,2.22.36,3.18,1.12.91,1.47.87c0,0,.55,4.19.55,4.19s-1.35,0-1.25,1.13c0,.36.31,2.69.34,2.91.26,1.47,2,1.34,2,1.34Zm.31,2.69c-3.06.49-6.13.85-9.19,1.06L56.83,38c3.05-.2,6.13-.55,9.2-1Zm.05.41.09.85c-1.52.36-6.92.94-9.17,1.08L57,39.32c3-.21,6.12-.57,9.19-1.06m-.31-2.68q-4.62.73-9.21,1l.12.94c3-.21,6.13-.56,9.2-1.05ZM12.25,5.75v7.71c-.06,2.06-3.36,1.69-3.36,1.69V4.07s3.3-.37,3.36,1.68" style="fill:#222127"/><path d="M65.33,57.48a.44.44,0,0,0,.31-.54.4.4,0,0,0-.56-.22.43.43,0,0,0-.32.54.41.41,0,0,0,.57.22m.38,1.07c-.34.17-.45.46-.31.71a.56.56,0,0,0,.79.16c.31-.16.46-.44.31-.71a.57.57,0,0,0-.79-.16m-15.52-.71c-.46-.13-.7.26-.78.56s-.07.77.4.9.7-.27.78-.58a.66.66,0,0,0-.4-.88m26.28-6.4a1,1,0,0,1-.29.55,1.25,1.25,0,0,1-.53.36.51.51,0,0,1-.48-.11,0,0,0,0,1,0,0s0,0,0,0l.26-.29h0l.15,0a.46.46,0,0,0,.28-.17l.13-.18c.06-.12,0-.17,0-.2a.09.09,0,0,0-.11,0l-.22.15-.17.12-.39.24a.39.39,0,0,1-.42-.1.44.44,0,0,1-.15-.41.89.89,0,0,1,.28-.53,1,1,0,0,1,.48-.32.53.53,0,0,1,.48.11v0a0,0,0,0,1,0,0l-.26.28a0,0,0,0,1-.06,0,.18.18,0,0,0-.21,0l-.18.14-.13.2a.13.13,0,0,0,0,.13s0,0,.11,0l.21-.14.28-.21.33-.17a.41.41,0,0,1,.39.1.48.48,0,0,1,.14.43M75.18,53l-1.06,1h-.06L73,52.8a0,0,0,0,1,0-.06l1-1h.06l.2.21v0h0a0,0,0,0,1,0,0l-.7.65a1.54,1.54,0,0,1,.17.19l.64-.6h.06l.19.21s0,0,0,0v0l-.64.6.22.24.74-.68s0,0,.06,0l.19.21v0s0,0,0,0m-1.5,1.36-1.07.85a0,0,0,0,1-.06,0l-1-1.24s0-.05,0-.06l.31-.25h0a0,0,0,0,1,0,0s.75.92.79,1l.72-.57s0,0,.06,0l.18.22a0,0,0,0,1,0,0s0,0,0,0m-1.86,1.24a1,1,0,0,1-.44.53,1,1,0,0,1-.66.2.8.8,0,0,1-.63-.39.84.84,0,0,1-.13-.75,1,1,0,0,1,.44-.53,1,1,0,0,1,.65-.2.8.8,0,0,1,.64.4.88.88,0,0,1,.17.5,1,1,0,0,1,0,.24m-1.89,1.27a1,1,0,0,1-.45.42,1.06,1.06,0,0,1-.62.17.45.45,0,0,1-.41-.25s0-.05,0-.06L68.8,57h0l.12.1a.48.48,0,0,0,.32-.08l.19-.13a.16.16,0,0,0,0-.2s0,0-.09,0l-.26.06-.2.07-.45.1a.4.4,0,0,1-.37-.23.49.49,0,0,1,0-.44,1.22,1.22,0,0,1,1-.56.51.51,0,0,1,.42.25,0,0,0,0,1,0,0l0,0-.34.19a0,0,0,0,1-.06,0A.19.19,0,0,0,69,56l-.22.08-.18.15a.12.12,0,0,0,0,.13.09.09,0,0,0,.1,0l.25-.06.33-.11.36-.06a.4.4,0,0,1,.34.23.45.45,0,0,1,0,.45m-2.81,2.36a1.15,1.15,0,0,1-.64.62c-.6.28-1.24.24-1.5-.19a.7.7,0,0,1-.07-.57.43.43,0,0,1-.43-.28c-.15-.43.35-.67.32-.77s-.41-.13-.55-.52.1-.92.7-1.14a1.63,1.63,0,0,1,.29-.07c.21-.08.22-.46.39-.53a.73.73,0,0,1,.49.19c0,.11-.42.15-.36.34s.3.1.43.5a.92.92,0,0,1-.7,1.15c-.25.09-.5.33-.47.43a.13.13,0,0,0,.13.08c.1,0,.19-.16.4-.27a1.09,1.09,0,0,1,1.51.32.92.92,0,0,1,.06.71m-3.36.68-.4.1c-.06,0-.16,0-.18,0a3.64,3.64,0,0,0-.06-1.38c-.06-.27-.16-.6-.48-.52s-.52.22-.35,1a7,7,0,0,0,.38,1c0,.06-.07.07-.11.08l-.4.1c-.17,0-.22.12-.45-.88-.39-1.73-.2-1.66.15-1.75.17,0,.33-.1.35,0s0,.09,0,.15a.07.07,0,0,0,.09.05,2,2,0,0,1,.55-.3c.13,0,.68-.14.9.86.34,1.49.18,1.45,0,1.49m-2.86.61-.32.05c-.24,0-.25.11-.44-1.25s-.09-1.2.07-1.23l.26,0c.2,0,.2,0,.21,0a6.6,6.6,0,0,0,0,.72,7.41,7.41,0,0,0,.41,1.58c0,.12-.12.12-.23.14m-.95-3c0-.17.14-.29.33-.32s.38,0,.4.21-.14.28-.33.31-.38,0-.4-.2m-1.27,3.27a1.09,1.09,0,0,1-1.2-1.1,1.36,1.36,0,0,1,1.26-1.53c.42,0,.73.13.75.35s-.09.35-.26.37-.11-.28-.5-.26-.63.58-.61.91a.62.62,0,0,0,.71.64.82.82,0,0,0,.66-.43s.08.07.09.23c0,.46-.33.78-.9.82M56.86,59.4c-.06,1.53-.2,1.45-.36,1.44l-.42,0c-.06,0-.16,0-.16-.06a3.9,3.9,0,0,0,.29-1.35c0-.28,0-.62-.33-.64s-.55.08-.58.85a9.14,9.14,0,0,0,.09,1.13s-.08,0-.13,0l-.4,0c-.18,0-.26.06-.22-1,.07-1.77.24-1.65.6-1.64.17,0,.34,0,.34.09s0,.08,0,.13a.07.07,0,0,0,.07.08,2.08,2.08,0,0,1,.61-.14c.14,0,.69,0,.65,1.08m-3,0c-.21,1.42-.32,1.34-.66,1.29-.5-.08-.09-.24-.36-.28a.76.76,0,0,0-.25.09.84.84,0,0,1-.37,0c-.39-.06-.72-.32-.56-1.42,0-.07.21-1.23.41-1.19l.44.07c.06,0,.19,0,.18.08a3.31,3.31,0,0,0-.39,1.14c0,.22-.13.81.28.87.16,0,.52,0,.64-.79a5.91,5.91,0,0,0,0-1.15s.12,0,.17,0l.44.07c.2,0,.09.85,0,1.21M51.14,59a1.2,1.2,0,0,1-1.49,1,1.24,1.24,0,0,1-.83-1.59,1.18,1.18,0,0,1,1.49-1A1.24,1.24,0,0,1,51.14,59m-2.59-2.1c-.16.4-.75.42-.79.54s.55.71.3,1.34c-.14.35-.53.59-1.26.29l-1.33-.56c-.12,0-.27,0,.25-1.39.7-1.79.91-1.63,1-1.6l1.15.48c.79.32.79.67.7.9m-4.2-1.48-.87,1.34,0,0h0l-.33-.21a.08.08,0,0,1,0,0s0,0,0,0l.36-.56-.56-.37-.37.56a0,0,0,0,1,0,0l-.34-.22s0,0,0,0a0,0,0,0,1,0,0L43,54.51H43l.34.22,0,0v0l-.31.47c.06,0,.51.32.57.37l.3-.48,0,0h0l.34.21a0,0,0,0,1,0,.06m-3.22-.27a0,0,0,0,1-.06,0l-.32-.25s0,0,0,0h0s0,0,0,0,.73-.94.77-1l-.42-.33,0,0h0v0l.17-.22a0,0,0,0,1,.06,0l1.24,1s0,0,0,.06l-.18.22h-.06l-.42-.32-.78,1M39.8,54.08h0l-.3-.26s0,0,0-.06l1.05-1.19,0,0h0l.3.26a0,0,0,0,1,0,.07l-1.05,1.19h0M38.56,53l-.26-.28a0,0,0,0,1,0,0v0l.51-.82.07-.1-.11.07-.83.47a0,0,0,0,1,0,0L37.62,52s0,0,0-.05l.77-1.5,0,0a0,0,0,0,1,0,0l.3.31s0,0,0,0v0l-.48.81a.29.29,0,0,1,0,.06l.87-.51s0,0,0,0l.29.31a0,0,0,0,1,0,0s0,0,0,0l-.5.79,0,.07.06,0,.84-.45s0,0,0,0l.29.29s0,0,0,0,0,0,0,0L38.61,53h0M80.78,37.38c-1.87,10.8-11.86,19-23.91,19-10.32,0-19.12-6-22.62-14.57H30.64C34,53.76,44.45,62.45,56.87,62.45c14.29,0,26-11.43,27.24-26.11ZM47.13,57.48a.49.49,0,0,0-.21,0h-.33c-.15,0-.22,0-.27.12-.22.55-.07.69.29.84s.68.16.79-.12a1,1,0,0,0-.27-.83M71,54.87a.51.51,0,0,0-.37.09.46.46,0,0,0-.22.31.48.48,0,0,0,.11.38.5.5,0,0,0,.32.25.48.48,0,0,0,.37-.09.44.44,0,0,0,.21-.3.17.17,0,0,0,0-.07.62.62,0,0,0-.11-.32.57.57,0,0,0-.32-.25M47.52,56.33c-.44-.18-.7-.1-.92.46,0,.07-.08.16,0,.22a.74.74,0,0,0,.27,0l.4-.06c.15,0,.41-.12.47-.27s-.1-.29-.27-.37" style="fill:#222127"/></g></g></svg>