<?xml version="1.0" encoding="utf-8"?><svg xmlns="http://www.w3.org/2000/svg" viewBox="0 0 194.33 53.33"><title>extracare</title><g id="Layer_2" data-name="Layer 2"><g id="Layer_1-2" data-name="Layer 1"><polygon points="0 38.49 0 4.85 17.2 4.85 15.72 8.89 4.54 8.89 4.54 19.3 15.62 19.3 15.62 23.28 4.54 23.28 4.54 34.46 17.31 34.46 17.31 38.49 0 38.49" style="fill:#222127"/><polygon points="37.98 38.49 31.55 28.9 25.12 38.49 20.22 38.49 28.9 26.04 20.88 14.35 26.04 14.35 32.06 23.43 38.19 14.35 42.99 14.35 34.77 26.24 43.04 38.49 37.98 38.49" style="fill:#222127"/><path d="M53.76,39C50,39,48.3,36.86,48.3,33.7V18h-4V14.35h4V8.94l4.54-1.43v6.84h7.45L58.81,18h-6V32.16c0,2,.77,2.91,2.35,2.91a7.52,7.52,0,0,0,4.19-1.58l1.32,3.06A12.6,12.6,0,0,1,53.76,39" style="fill:#222127"/><path d="M76.78,18.74a5.28,5.28,0,0,0-2.5-.56,8.18,8.18,0,0,0-5,2.65V38.49H64.68V14.35h3.78l.56,2.7c3-2.75,4.9-3.32,6.79-3.32a5.16,5.16,0,0,1,2.76.82Z" style="fill:#222127"/><path d="M93.84,27.06l-4.4.15c-4,.16-5.61,1.48-5.61,3.93,0,2.3,1.48,4.09,4.44,4.09a7.61,7.61,0,0,0,5.57-2.35Zm1.27,11.43-1-2.29a10.27,10.27,0,0,1-7.3,2.8,7.27,7.27,0,0,1-7.55-7.5c0-4.85,3.52-7.71,9.85-7.91l4.7-.16v-.91c0-3.73-2.15-5.06-5-5.06a10.61,10.61,0,0,0-6.33,2.09l-1.68-3.06a14.1,14.1,0,0,1,8.83-2.75c5,0,8.73,2.14,8.73,8.37v8.11c0,5.72.15,7.41.51,8.27Z" style="fill:#222127"/><path d="M120.26,38.69c-10.21,0-16.39-7.25-16.39-16.95s6.95-17.46,17.26-17.46a17.65,17.65,0,0,1,8.63,1.94l-.06,4.49a15.1,15.1,0,0,0-8.62-2.5c-7.61,0-12.31,5.87-12.31,13.22,0,7.61,4.55,13.17,12.1,13.17a16.88,16.88,0,0,0,8-2.14L130.22,36a19.93,19.93,0,0,1-10,2.71" style="fill:#222127"/><path d="M148.34,26.74,144,26.9c-4,.15-5.62,1.48-5.62,3.93,0,2.29,1.48,4.08,4.45,4.08a7.54,7.54,0,0,0,5.56-2.35Zm1.28,11.44-1-2.3a10.28,10.28,0,0,1-7.3,2.81,7.28,7.28,0,0,1-7.56-7.5c0-4.86,3.52-7.71,9.85-7.92l4.7-.15V22.2c0-3.73-2.14-5.05-5-5.05A10.52,10.52,0,0,0,137,19.24l-1.69-3.06a14.07,14.07,0,0,1,8.83-2.76c5.06,0,8.73,2.14,8.73,8.37v8.12c0,5.71.16,7.4.51,8.27Z" style="fill:#222127"/><path d="M171.16,18.42a5.28,5.28,0,0,0-2.5-.56,8.15,8.15,0,0,0-5,2.66V38.18h-4.55V14h3.78l.56,2.71c3-2.76,4.9-3.32,6.79-3.32a5.25,5.25,0,0,1,2.76.81Z" style="fill:#222127"/><path d="M184.27,17.09c-3.37,0-5.46,3-5.46,6.44h10.72c0-3.12-1.74-6.44-5.26-6.44m-5.41,10c0,4.29,2.76,7.81,7.61,7.81a12,12,0,0,0,5.87-1.68l1.27,3a14,14,0,0,1-8,2.5c-7.86,0-11.49-6.18-11.49-12.92,0-6.94,4-12.35,10.21-12.35,6.33,0,10,5,10,12.45v1.18Z" style="fill:#222127"/><polygon points="27.75 1.93 25.43 1.93 25.43 9.1 23.86 9.1 23.86 1.93 21.41 1.93 21.41 0.63 28.12 0.63 27.75 1.93" style="fill:#222127"/><path d="M32.65,9.1V5.55c0-.68-.1-1.32-.92-1.32a2.42,2.42,0,0,0-1.48.64V9.1H28.7V0h1.55V3.68a3.11,3.11,0,0,1,2-.8c.93,0,1.94.45,1.94,2.24v4Z" style="fill:#222127"/><path d="M38.05,4a1.26,1.26,0,0,0-1.2,1.33h2.37A1.24,1.24,0,0,0,38.05,4M36.89,6.47A1.61,1.61,0,0,0,38.6,8a3.21,3.21,0,0,0,1.58-.43l.37,1a3.86,3.86,0,0,1-2.21.67,2.9,2.9,0,0,1-3-3.18c0-1.73,1-3.17,2.77-3.17S40.81,4.13,40.81,6v.45Z" style="fill:#222127"/><path d="M110.73,53.33a4,4,0,0,1-4.27-4.28,4.34,4.34,0,0,1,4.59-4.4,4.76,4.76,0,0,1,2.2.47l0,1.41a4,4,0,0,0-2.14-.6,3,3,0,0,0-.12,6,4.24,4.24,0,0,0,2.08-.57l.43,1.12a5.16,5.16,0,0,1-2.75.8" style="fill:#222127"/><path d="M118.48,53.2V49.65c0-.68-.11-1.32-.93-1.32a2.48,2.48,0,0,0-1.48.64V53.2h-1.54V44.1h1.54v3.68a3.13,3.13,0,0,1,2-.8c.94,0,1.94.45,1.94,2.24v4Z" style="fill:#222127"/><path d="M124.76,50.41l-.88,0c-.83,0-1.21.31-1.21.82s.35.85,1,.85a1.64,1.64,0,0,0,1.1-.39Zm.38,2.79-.25-.54a2.52,2.52,0,0,1-1.76.67,1.9,1.9,0,0,1-2-1.95c0-1.26,1-1.94,2.55-2l1.08,0v-.15c0-.73-.52-1-1.16-1a3,3,0,0,0-1.57.45l-.5-1a4,4,0,0,1,2.38-.67c1.5,0,2.42.62,2.42,2.21v2.4a6.17,6.17,0,0,0,.11,1.61Z" style="fill:#222127"/><path d="M131.2,48.55a1.36,1.36,0,0,0-.72-.19,1.75,1.75,0,0,0-1.17.54v4.3h-1.55V47.12h1.3l.17.64a2.46,2.46,0,0,1,1.68-.78,1.47,1.47,0,0,1,.85.26Z" style="fill:#222127"/><path d="M132.48,47.12H134V53.2h-1.54Zm.77-.94a.93.93,0,1,1,1-.94,1,1,0,0,1-1,.94" style="fill:#222127"/><path d="M137.7,53.33a1.32,1.32,0,0,1-1.51-1.43V48.28h-1.08V47.12h1.08v-1.4l1.55-.46v1.86h1.88l-.45,1.16h-1.43v3.06c0,.47.17.69.57.69a2,2,0,0,0,1-.33l.41,1a3.73,3.73,0,0,1-2,.65" style="fill:#222127"/><path d="M143.93,50.41l-.87,0c-.84,0-1.21.31-1.21.82s.34.85,1,.85a1.61,1.61,0,0,0,1.09-.39Zm.39,2.79-.26-.54a2.52,2.52,0,0,1-1.76.67,1.9,1.9,0,0,1-2-1.95c0-1.26,1-1.94,2.55-2l1.08,0v-.15c0-.73-.52-1-1.16-1a3,3,0,0,0-1.56.45l-.51-1a4,4,0,0,1,2.38-.67c1.51,0,2.42.62,2.42,2.21v2.4a6.17,6.17,0,0,0,.11,1.61Z" style="fill:#222127"/><path d="M149.34,48.28a2.07,2.07,0,0,0-.86.19V52a2.44,2.44,0,0,0,.76.11,1.86,1.86,0,0,0,1.78-2,1.68,1.68,0,0,0-1.68-1.78m-.4,5a4,4,0,0,1-2-.44V44.1h1.54v3.06a4.24,4.24,0,0,1,1.18-.18,2.78,2.78,0,0,1,2.9,3,3.37,3.37,0,0,1-3.62,3.39" style="fill:#222127"/><path d="M155.12,53.33a1.23,1.23,0,0,1-1.4-1.34V44.1h1.54v7.21c0,.45.09.63.41.63a1.84,1.84,0,0,0,.45-.06l.2,1.14a2.38,2.38,0,0,1-1.2.31" style="fill:#222127"/><path d="M159.64,48.14a1.26,1.26,0,0,0-1.19,1.33h2.36a1.23,1.23,0,0,0-1.17-1.33m-1.15,2.43a1.61,1.61,0,0,0,1.71,1.53,3.11,3.11,0,0,0,1.58-.43l.37,1a3.86,3.86,0,0,1-2.21.67,2.9,2.9,0,0,1-3-3.18c0-1.73,1-3.17,2.76-3.17s2.73,1.25,2.73,3.14v.45Z" style="fill:#222127"/><polygon points="171.68 46.03 169.37 46.03 169.37 53.2 167.8 53.2 167.8 46.03 165.35 46.03 165.35 44.73 172.06 44.73 171.68 46.03" style="fill:#222127"/><path d="M175.34,48.55a1.31,1.31,0,0,0-.71-.19,1.77,1.77,0,0,0-1.18.54v4.3h-1.54V47.12h1.3l.17.64a2.46,2.46,0,0,1,1.68-.78,1.47,1.47,0,0,1,.85.26Z" style="fill:#222127"/><path d="M180.64,53.2l-.27-.6a2.8,2.8,0,0,1-1.87.73c-.79,0-2.05-.41-2.05-2.37V47.12H178v3.76c0,.75.35,1.23,1.09,1.23a1.79,1.79,0,0,0,1.17-.5V47.12h1.54v4.4a6.07,6.07,0,0,0,.12,1.68Z" style="fill:#222127"/><path d="M185.08,53.33a4.15,4.15,0,0,1-2.25-.57l.51-1.13a2.92,2.92,0,0,0,1.63.54c.63,0,1-.23,1-.64,0-1.09-2.8-.68-2.8-2.75,0-1.05.83-1.8,2.3-1.8a4.68,4.68,0,0,1,1.79.31v1.28a4.82,4.82,0,0,0-1.73-.4c-.54,0-.86.17-.86.53,0,1,2.85.65,2.85,2.74,0,1.36-1.19,1.89-2.48,1.89" style="fill:#222127"/><path d="M190.74,53.33a1.32,1.32,0,0,1-1.51-1.43V48.28h-1.08V47.12h1.08v-1.4l1.55-.46v1.86h1.89l-.46,1.16h-1.43v3.06c0,.47.18.69.57.69a2,2,0,0,0,1-.33l.41,1a3.73,3.73,0,0,1-2,.65" style="fill:#222127"/></g></g></svg>