<?xml version="1.0" encoding="utf-8"?>
<!-- Generator: Adobe Illustrator 25.2.3, SVG Export Plug-In . SVG Version: 6.00 Build 0)  -->
<svg version="1.1" id="Layer_1" xmlns="http://www.w3.org/2000/svg" xmlns:xlink="http://www.w3.org/1999/xlink" x="0px" y="0px"
	 viewBox="0 0 269.3 269.3" style="enable-background:new 0 0 269.3 269.3;" xml:space="preserve">
<style type="text/css">
	.st0{fill:none;stroke:#CF30BA;stroke-width:5;stroke-miterlimit:10;}
	.st1{fill:none;stroke:#CF30BA;stroke-width:5;stroke-linejoin:round;stroke-miterlimit:10;}
</style>
<g>
	<path class="st0" d="M70,165.6c0,0,4.6-4.6,7.1-7.1c2.4-2.4,3-6.2,0.7-16.3c-2.3-10,1.4-22.9,7.1-28.5l9.5-9.5"/>
	<path class="st0" d="M193.8,147c-8.5,8.5-42.6,42.6-42.6,42.6c-14.2,14.2-23.7,4.7-33.2,14.2c-3.5,3.5-4.7,4.7-4.7,4.7"/>
	
		<rect x="55.3" y="158.9" transform="matrix(0.7071 -0.7071 0.7071 0.7071 -118.6992 111.6067)" class="st0" width="40.2" height="80.4"/>
	<line class="st0" x1="56.4" y1="180.1" x2="65.9" y2="189.6"/>
	<line class="st0" x1="155.9" y1="94.8" x2="146.5" y2="104.3"/>
	<line class="st0" x1="170.1" y1="109.1" x2="160.7" y2="118.5"/>
	<line class="st0" x1="184.4" y1="123.3" x2="174.9" y2="132.7"/>
	<polyline class="st1" points="103.8,113.8 61.2,71.1 42.2,28.5 84.8,47.4 127.5,90.1 	"/>
	<line class="st1" x1="84.8" y1="47.4" x2="61.2" y2="71.1"/>
	<path class="st1" d="M189.1,151.7l45.4,45.4c3.7,3.7,3.7,9.7,0,13.4l-10.3,10.3c-3.7,3.7-9.7,3.7-13.4,0l-45.4-45.4"/>
	<line class="st1" x1="222.3" y1="184.9" x2="198.6" y2="208.6"/>
	<path class="st0" d="M193.8,147c7.7-7.7,1.6-21.3-9.5-23.7c2.3-5.2-4.5-15.7-14.2-14.2c2.4-7.1-6.7-15.4-14.2-14.2
		c0-10.7-14.2-19-23.7-9.5l-33.2,33.2"/>
</g>
</svg>
