<?xml version="1.0" encoding="utf-8"?>
<!-- Generator: Adobe Illustrator 25.2.3, SVG Export Plug-In . SVG Version: 6.00 Build 0)  -->
<svg version="1.1" id="Layer_1" xmlns="http://www.w3.org/2000/svg" xmlns:xlink="http://www.w3.org/1999/xlink" x="0px" y="0px"
	 viewBox="0 0 269.3 269.3" style="enable-background:new 0 0 269.3 269.3;" xml:space="preserve">
<style type="text/css">
	.st0{fill:none;stroke:#CF30BA;stroke-width:5;stroke-linecap:round;stroke-linejoin:round;stroke-miterlimit:10;}
</style>
<g id="booklet_6_">
	<g>
		<path class="st0" d="M235.9,217.2L169,239.1l-69.5-22.7L35,237.4c-2.5,0.8-5-1-5-3.6V58.6c0-1.6,1.1-3.1,2.6-3.6l66.9-21.9
			L169,55.8l64.5-21.1c2.5-0.8,5,1,5,3.6v175.3C238.5,215.2,237.5,216.6,235.9,217.2z"/>
		<line class="st0" x1="99.5" y1="33.1" x2="99.5" y2="216.3"/>
		<line class="st0" x1="169" y1="55.8" x2="169" y2="239.1"/>
	</g>
	<g>
		<g>
			<path class="st0" d="M77.4,89.2l-24,7.9c-2.5,0.8-5-1-5-3.6V76.9c0-3.3,2.1-6.2,5.2-7.2l24-7.9c2.5-0.8,5,1,5,3.6V82
				C82.6,85.2,80.5,88.1,77.4,89.2z"/>
			<g>
				<line class="st0" x1="48.4" y1="116.6" x2="82.6" y2="105.5"/>
				<line class="st0" x1="60.8" y1="131.8" x2="82.6" y2="124.7"/>
				<line class="st0" x1="48.4" y1="155.1" x2="71.7" y2="147.5"/>
				<line class="st0" x1="60.1" y1="170.5" x2="82.6" y2="163.1"/>
				<line class="st0" x1="48.4" y1="193.6" x2="82.6" y2="182.4"/>
				<line class="st0" x1="48.4" y1="212.8" x2="71.7" y2="205.2"/>
			</g>
		</g>
		<g>
			<path class="st0" d="M145.5,153.5l-26.6-8.7c-1.6-0.5-2.6-2-2.6-3.6v-11.3c0-2.6,2.5-4.4,5-3.6l24,7.9c3.1,1,5.2,3.9,5.2,7.2v8.5
				C150.5,152.4,148,154.3,145.5,153.5z"/>
			<g>
				<line class="st0" x1="150.5" y1="97.1" x2="127.6" y2="89.6"/>
				<line class="st0" x1="138.1" y1="112.2" x2="116.3" y2="105.1"/>
				<line class="st0" x1="150.5" y1="77.5" x2="116.3" y2="66.3"/>
				<line class="st0" x1="150.5" y1="174.3" x2="116.3" y2="163.1"/>
				<line class="st0" x1="142.5" y1="191" x2="116.3" y2="182.4"/>
				<line class="st0" x1="150.5" y1="212.8" x2="116.3" y2="201.6"/>
			</g>
		</g>
		<g>
			<path class="st0" d="M194.9,182.8l24-7.9c2.5-0.8,5,1,5,3.6V195c0,3.3-2.1,6.2-5.2,7.2l-24,7.9c-2.5,0.8-5-1-5-3.6V190
				C189.7,186.7,191.8,183.8,194.9,182.8z"/>
			<g>
				<line class="st0" x1="223.9" y1="155.3" x2="189.7" y2="166.5"/>
				<line class="st0" x1="223.9" y1="136.1" x2="198.8" y2="144.3"/>
				<line class="st0" x1="213.4" y1="120.3" x2="189.7" y2="128"/>
				<line class="st0" x1="223.9" y1="97.6" x2="198.8" y2="105.8"/>
				<line class="st0" x1="212.3" y1="82.2" x2="189.7" y2="89.6"/>
				<line class="st0" x1="223.9" y1="59.1" x2="189.7" y2="70.3"/>
			</g>
		</g>
	</g>
</g>
</svg>
