<?xml version="1.0" encoding="utf-8"?>
<!-- Generator: Adobe Illustrator 25.2.3, SVG Export Plug-In . SVG Version: 6.00 Build 0)  -->
<svg version="1.1" id="Layer_1" xmlns="http://www.w3.org/2000/svg" xmlns:xlink="http://www.w3.org/1999/xlink" x="0px" y="0px"
	 viewBox="0 0 269.3 269.3" style="enable-background:new 0 0 269.3 269.3;" xml:space="preserve">
<style type="text/css">
	.st0{fill:#CF30BA;}
</style>
<g>
	<path class="st0" d="M192.6,222.7h-38.9c-1.3,0-2.4-0.8-2.8-2l-12.2-35.9H79.3l-12.6,35.9c-0.4,1.2-1.5,2-2.8,2H26.1
		c-1,0-1.9-0.5-2.5-1.3c-0.6-0.8-0.7-1.8-0.3-2.7L87.7,48.5c0.4-1.2,1.5-1.9,2.8-1.9h38.4c1.2,0,2.4,0.8,2.8,1.9l63.7,170.2
		c0.3,0.9,0.2,1.9-0.3,2.7C194.5,222.3,193.5,222.7,192.6,222.7z M155.8,216.8h32.4L126.8,52.5H92.6L30.5,216.8h31.3l12.6-35.9
		c0.4-1.2,1.5-2,2.8-2h63.7c1.3,0,2.4,0.8,2.8,2L155.8,216.8z M131,156.9H86.9c-1,0-1.9-0.5-2.4-1.3c-0.6-0.8-0.7-1.8-0.4-2.7
		l22.2-62.5c0.4-1.2,1.5-2,2.8-2h0.5c1.3,0,2.4,0.8,2.8,2l21.5,62.5c0.3,0.9,0.2,1.9-0.4,2.7C132.9,156.5,132,156.9,131,156.9z
		 M91.2,151h35.7l-17.6-51.1L91.2,151z"/>
	<rect x="222.7" y="52.2" class="st0" width="6" height="164.5"/>
	<rect x="205.3" y="213.7" class="st0" width="40.9" height="6"/>
	<rect x="205.3" y="49.3" class="st0" width="40.9" height="6"/>
</g>
</svg>
