<?xml version="1.0" encoding="utf-8"?>
<!-- Generator: Adobe Illustrator 25.2.3, SVG Export Plug-In . SVG Version: 6.00 Build 0)  -->
<svg version="1.1" id="Layer_1" xmlns="http://www.w3.org/2000/svg" xmlns:xlink="http://www.w3.org/1999/xlink" x="0px" y="0px"
	 viewBox="0 0 269.3 269.3" style="enable-background:new 0 0 269.3 269.3;" xml:space="preserve">
<style type="text/css">
	.st0{fill-rule:evenodd;clip-rule:evenodd;fill:#CF30BA;}
</style>
<path class="st0" d="M43.6,64.2c-2.1,0-4,0.8-5.4,2.3c-1.4,1.4-2.2,3.4-2.2,5.4v112c0,0.2,0,0.4,0,0.6h-6c-1.3,0-2.6,0.5-3.5,1.5
	c-1,0.9-1.5,2.2-1.5,3.5v11.2c0,1.3,0.5,2.6,1.5,3.5c0.9,0.9,2.2,1.5,3.5,1.5h209.3c1.3,0,2.6-0.5,3.5-1.5c1-0.9,1.5-2.2,1.5-3.5
	v-11.2c0-1.3-0.5-2.6-1.5-3.5c-0.9-0.9-2.2-1.5-3.5-1.5h-6c0-0.2,0-0.4,0-0.6v-112c0-2-0.8-4-2.2-5.4c-1.4-1.5-3.4-2.3-5.4-2.3H43.6
	z M43.6,71.2h182c0.2,0,0.3,0.1,0.4,0.2c0.1,0.1,0.2,0.3,0.2,0.4v112c0,0.1-0.1,0.3-0.2,0.4c-0.1,0.1-0.2,0.2-0.4,0.2h-182
	c-0.2,0-0.3-0.1-0.4-0.2c-0.1-0.1-0.2-0.3-0.2-0.4v-112c0-0.1,0.1-0.3,0.2-0.4C43.2,71.3,43.4,71.2,43.6,71.2z M178,122.9
	c-0.3-0.2-0.7-0.3-1.1-0.3l-78,0c-0.8,0-1.5,0.5-2,1.3c-0.5,0.9-0.8,2-0.8,3.2c0,1.2,0.3,2.3,0.8,3.2c0.5,0.8,1.2,1.3,2,1.3l78,0
	c0.8,0,1.5-0.5,2-1.3c0.5-0.9,0.8-2,0.8-3.2c0-1.2-0.3-2.3-0.8-3.2C178.6,123.5,178.3,123.1,178,122.9z M169.4,148
	c-0.3-0.2-0.6-0.3-0.9-0.3h-61.8c-0.6,0-1.2,0.4-1.6,1c-0.4,0.7-0.7,1.6-0.7,2.5c0,1,0.3,1.8,0.7,2.5c0.4,0.6,1,1,1.6,1l61.8,0
	c0.6,0,1.2-0.4,1.6-1c0.4-0.7,0.7-1.6,0.6-2.5c0-1-0.2-1.8-0.6-2.5C169.9,148.5,169.7,148.2,169.4,148z M32,191.5h69.4
	c0,1,0.2,1.8,0.7,2.5c0.4,0.6,1,1,1.6,1h61.8c0.6,0,1.2-0.4,1.6-1c0.4-0.7,0.7-1.6,0.7-2.5h69.4v7.1H32V191.5z M169.4,98.7
	c-0.3-0.2-0.6-0.3-0.9-0.3l-61.8,0c-0.6,0-1.2,0.4-1.6,1c-0.4,0.7-0.7,1.6-0.7,2.5c0,1,0.3,1.8,0.7,2.5c0.4,0.6,1,1,1.6,1h61.8
	c0.6,0,1.2-0.4,1.6-1c0.4-0.7,0.7-1.6,0.7-2.5c0-1-0.2-1.8-0.6-2.5C169.9,99.2,169.7,98.9,169.4,98.7z"/>
</svg>
