<?xml version="1.0" encoding="utf-8"?>
<!-- Generator: Adobe Illustrator 25.2.3, SVG Export Plug-In . SVG Version: 6.00 Build 0)  -->
<svg version="1.1" id="Layer_1" xmlns="http://www.w3.org/2000/svg" xmlns:xlink="http://www.w3.org/1999/xlink" x="0px" y="0px"
	 viewBox="0 0 269.3 269.3" style="enable-background:new 0 0 269.3 269.3;" xml:space="preserve">
<style type="text/css">
	.st0{fill:#CF30BA;}
</style>
<g>
	<g>
		<path class="st0" d="M189.6,178c-1.8,0-3.3-1.5-3.3-3.3V34.6H83v140.1c0,1.8-1.5,3.3-3.3,3.3c-1.8,0-3.3-1.5-3.3-3.3V31.3
			c0-1.8,1.5-3.3,3.3-3.3h109.8c1.8,0,3.3,1.5,3.3,3.3v143.4C192.9,176.5,191.4,178,189.6,178z"/>
		<path class="st0" d="M112.3,243.3H63.3c-1.8,0-3.3-1.5-3.3-3.3s1.5-3.3,3.3-3.3h45.8v-28.5c0-8.3-5.6-15.8-14-18.6l-10-3.4
			c-5.1-1.7-8.5-6.4-8.5-11.6c0-1.8,1.5-3.3,3.3-3.3c1.8,0,3.3,1.5,3.3,3.3v0c0,2.4,1.6,4.5,4.1,5.4l10,3.4
			c11,3.7,18.4,13.7,18.4,24.8V240C115.6,241.8,114.1,243.3,112.3,243.3z"/>
		<path class="st0" d="M206,243.3H157c-1.8,0-3.3-1.5-3.3-3.3v-31.7c0-11.2,7.4-21.1,18.5-24.8l10.1-3.4c2.4-0.8,4.1-3,4.1-5.4
			c0-1.8,1.5-3.3,3.3-3.3c1.8,0,3.3,1.5,3.3,3.3c0,5.2-3.4,9.8-8.5,11.6l-10.1,3.4c-8.4,2.8-14,10.3-14,18.7v28.4H206
			c1.8,0,3.3,1.5,3.3,3.3S207.8,243.3,206,243.3z"/>
		<path class="st0" d="M157,243.3h-44.7c-1.8,0-3.3-1.5-3.3-3.3s1.5-3.3,3.3-3.3H157c1.8,0,3.3,1.5,3.3,3.3S158.8,243.3,157,243.3z"
			/>
		<path class="st0" d="M177.7,171.4H92.3c-1.8,0-3.3-1.5-3.3-3.3V43.4c0-1.8,1.5-3.3,3.3-3.3h85.4c1.8,0,3.3,1.5,3.3,3.3v124.7
			C180.9,170,179.5,171.4,177.7,171.4z M95.6,164.9h78.8V46.7H95.6V164.9z"/>
		<path class="st0" d="M144,187.9h-18.1c-1.8,0-3.3-1.5-3.3-3.3c0-1.8,1.5-3.3,3.3-3.3H144c1.8,0,3.3,1.5,3.3,3.3
			C147.3,186.5,145.9,187.9,144,187.9z"/>
		<path class="st0" d="M138.1,201.5h-6.2c-1.8,0-3.3-1.5-3.3-3.3c0-1.8,1.5-3.3,3.3-3.3h6.2c1.8,0,3.3,1.5,3.3,3.3
			C141.3,200,139.9,201.5,138.1,201.5z"/>
	</g>
</g>
</svg>
