<?xml version="1.0" encoding="utf-8"?>
<!-- Generator: Adobe Illustrator 25.2.3, SVG Export Plug-In . SVG Version: 6.00 Build 0)  -->
<svg version="1.1" id="Layer_1" xmlns="http://www.w3.org/2000/svg" xmlns:xlink="http://www.w3.org/1999/xlink" x="0px" y="0px"
	 viewBox="0 0 269.3 269.3" style="enable-background:new 0 0 269.3 269.3;" xml:space="preserve">
<style type="text/css">
	.st0{clip-path:url(#SVGID_2_);fill:none;stroke:#CF30BA;stroke-width:5;stroke-linecap:square;stroke-miterlimit:10;}
	.st1{clip-path:url(#SVGID_4_);fill:none;stroke:#CF30BA;stroke-width:5;stroke-miterlimit:10;}
	.st2{fill:none;stroke:#CF30BA;stroke-width:5;stroke-linecap:square;stroke-miterlimit:10;}
	.st3{fill:none;stroke:#CF30BA;stroke-width:5;stroke-linecap:square;stroke-linejoin:round;stroke-miterlimit:10;}
	.st4{clip-path:url(#SVGID_6_);fill:none;stroke:#CF30BA;stroke-width:5;stroke-linecap:square;stroke-miterlimit:10;}
	.st5{fill:#CF30BA;}
</style>
<path class="st5" d="M81.4,60.3h19.4c2,0,3.6-1.6,3.6-3.6c0-2-1.6-3.6-3.6-3.6H81.4c-9.6,0-17.4,7.8-17.4,17.4v27.7
	c0,9.6,7.8,17.4,17.4,17.4h19.4c2,0,3.6-1.6,3.6-3.6s-1.6-3.6-3.6-3.6H81.4c-5.6,0-10.1-4.5-10.1-10.1V70.4
	C71.3,64.8,75.9,60.3,81.4,60.3z"/>
<path class="st5" d="M201.7,154c-2,0-3.6,1.6-3.6,3.6v9.9c0,7.7-6.3,14-14,14h-11.8v-23.9c0-2-1.6-3.6-3.6-3.6c-2,0-3.6,1.6-3.6,3.6
	v55.2c0,2,1.6,3.6,3.6,3.6c2,0,3.6-1.6,3.6-3.6v-23.9h11.8c7.7,0,14,6.3,14,14v9.9c0,2,1.6,3.6,3.6,3.6c2,0,3.6-1.6,3.6-3.6v-9.9
	c0-7.4-3.7-13.8-9.4-17.7c5.7-3.8,9.4-10.3,9.4-17.7v-9.9C205.4,155.6,203.8,154,201.7,154z"/>
<path class="st5" d="M168.6,115.5c2,0,3.6-1.6,3.6-3.6v-42l9.8,16.3c0.7,1.1,1.8,1.8,3.1,1.8c1.3,0,2.5-0.7,3.1-1.8l9.8-16.3v42
	c0,2,1.6,3.6,3.6,3.6c2,0,3.6-1.6,3.6-3.6V56.7c0-1.6-1.1-3.1-2.7-3.5c-1.6-0.4-3.2,0.2-4.1,1.6l-13.4,22.4l-13.4-22.4
	c-0.8-1.4-2.5-2.1-4.1-1.6c-1.6,0.4-2.7,1.9-2.7,3.5v55.2C165,113.8,166.6,115.5,168.6,115.5z"/>
<path class="st5" d="M100.8,154c-2,0-3.6,1.6-3.6,3.6v22c0,5.6-4.5,10.1-10.1,10.1h-5.6c-5.6,0-10.1-4.5-10.1-10.1v-22
	c0-2-1.6-3.6-3.6-3.6s-3.6,1.6-3.6,3.6v22c0,9.3,7.4,16.9,16.5,17.3v15.8c0,2,1.6,3.6,3.6,3.6s3.6-1.6,3.6-3.6V197
	c9.2-0.4,16.5-8,16.5-17.3v-22C104.4,155.6,102.8,154,100.8,154z"/>
<path class="st5" d="M204.7,134.7c20.2-7.8,34.6-27.5,34.6-50.5c0-29.8-24.3-54.1-54.1-54.1c-23,0-42.6,14.4-50.5,34.6
	c-7.8-20.2-27.5-34.6-50.5-34.6c-29.8,0-54.1,24.3-54.1,54.1c0,23,14.4,42.6,34.6,50.5c-20.2,7.8-34.6,27.5-34.6,50.5
	c0,29.8,24.3,54.1,54.1,54.1c23,0,42.6-14.4,50.5-34.6c7.8,20.2,27.5,34.6,50.5,34.6c29.8,0,54.1-24.3,54.1-54.1
	C239.3,162.2,224.9,142.6,204.7,134.7z M185.2,37.4c25.8,0,46.8,21,46.8,46.8s-21,46.8-46.8,46.8s-46.8-21-46.8-46.8
	S159.4,37.4,185.2,37.4z M165.7,134.7c-14.2,5.5-25.5,16.8-31,31c-5.5-14.2-16.8-25.5-31-31c14.2-5.5,25.5-16.8,31-31
	C140.2,117.9,151.5,129.2,165.7,134.7z M37.4,84.3c0-25.8,21-46.8,46.8-46.8s46.8,21,46.8,46.8s-21,46.8-46.8,46.8
	S37.4,110.1,37.4,84.3z M84.3,232c-25.8,0-46.8-21-46.8-46.8s21-46.8,46.8-46.8s46.8,21,46.8,46.8S110.1,232,84.3,232z M185.2,232
	c-25.8,0-46.8-21-46.8-46.8s21-46.8,46.8-46.8s46.8,21,46.8,46.8S211,232,185.2,232z"/>
</svg>
