<?xml version="1.0" encoding="utf-8"?>
<!-- Generator: Adobe Illustrator 25.2.3, SVG Export Plug-In . SVG Version: 6.00 Build 0)  -->
<svg version="1.1" id="Layer_1" xmlns="http://www.w3.org/2000/svg" xmlns:xlink="http://www.w3.org/1999/xlink" x="0px" y="0px"
	 viewBox="0 0 269.3 269.3" style="enable-background:new 0 0 269.3 269.3;" xml:space="preserve">
<style type="text/css">
	.st0{fill:#CF30BA;}
</style>
<g>
	<path class="st0" d="M64.5,67.3H32.8c-1.1,0-2.2-0.7-2.6-1.7c-0.4-1.1-0.2-2.3,0.6-3.1l31.7-31.7c0.8-0.8,2-1.1,3.1-0.6
		c1.1,0.4,1.7,1.5,1.7,2.6v31.7C67.3,66.1,66.1,67.3,64.5,67.3z M39.7,61.7h22v-22L39.7,61.7z"/>
	<path class="st0" d="M235.6,214.9H77.9c-1.6,0-2.8-1.3-2.8-2.8v-78.8c0-1.6,1.3-2.8,2.8-2.8h157.7c1.6,0,2.8,1.3,2.8,2.8V212
		C238.4,213.6,237.2,214.9,235.6,214.9z M80.8,209.2h152V136h-152V209.2z"/>
	<path class="st0" d="M156.8,186.3c-0.5,0-1.1-0.2-1.5-0.5l-77.6-50.3c-1.1-0.7-1.5-2-1.2-3.2c0.4-1.2,1.5-2,2.7-2h155.2
		c1.3,0,2.4,0.8,2.7,2c0.4,1.2-0.1,2.5-1.2,3.2l-77.6,50.3C157.8,186.2,157.3,186.3,156.8,186.3z M88.7,136l68,44.1l68-44.1H88.7z"
		/>
	<rect x="156.4" y="80.5" class="st0" width="40.9" height="5.7"/>
	<rect x="146" y="92.1" class="st0" width="61.7" height="5.7"/>
	<path class="st0" d="M235.6,214.9H77.9c-1.6,0-2.8-1.3-2.8-2.8v-78.8c0-1.6,1.3-2.8,2.8-2.8h157.7c1.6,0,2.8,1.3,2.8,2.8V212
		C238.4,213.6,237.2,214.9,235.6,214.9z M80.8,209.2h152V136h-152V209.2z"/>
	<path class="st0" d="M221,115.6h-88.2c-1.6,0-2.8-1.3-2.8-2.8V68.7c0-1.6,1.3-2.8,2.8-2.8H221c1.6,0,2.8,1.3,2.8,2.8v44.1
		C223.8,114.3,222.5,115.6,221,115.6z M135.6,109.9h82.5V71.5h-82.5V109.9z"/>
	<path class="st0" d="M181.9,239.7H32.8c-1.6,0-2.8-1.3-2.8-2.8V64.5c0-0.8,0.3-1.5,0.8-2l31.7-31.7c0.5-0.5,1.2-0.8,2-0.8h117.4
		c1.6,0,2.8,1.3,2.8,2.8v35.8c0,1.6-1.3,2.8-2.8,2.8h-46.3v38.4h46.3c1.6,0,2.8,1.3,2.8,2.8v20.4c0,1.6-1.3,2.8-2.8,2.8H80.8v73.2
		h101.2c1.6,0,2.8,1.3,2.8,2.8v24.9C184.7,238.5,183.5,239.7,181.9,239.7z M35.7,234.1h143.4v-19.2H77.9c-1.6,0-2.8-1.3-2.8-2.8
		v-78.8c0-1.6,1.3-2.8,2.8-2.8h101.2v-14.8h-46.3c-1.6,0-2.8-1.3-2.8-2.8V68.7c0-1.6,1.3-2.8,2.8-2.8h46.3V35.7H65.7l-30,30V234.1z"
		/>
</g>
</svg>
