<?xml version="1.0" encoding="utf-8"?>
<!-- Generator: Adobe Illustrator 25.2.3, SVG Export Plug-In . SVG Version: 6.00 Build 0)  -->
<svg version="1.1" id="Layer_1" xmlns="http://www.w3.org/2000/svg" xmlns:xlink="http://www.w3.org/1999/xlink" x="0px" y="0px"
	 viewBox="0 0 269.3 269.3" style="enable-background:new 0 0 269.3 269.3;" xml:space="preserve">
<style type="text/css">
	.st0{fill:#CF30BA;}
</style>
<g>
	<path class="st0" d="M21.8,31.2v206.8h227.9V31.2H21.8z M244.5,232.8H27V36.5h217.4V232.8z"/>
	<path class="st0" d="M98,49.6H35.9V98H98V49.6z M92.8,92.8H41.1V54.9h51.7V92.8z"/>
	<rect x="36.8" y="107.7" class="st0" width="60.4" height="5.2"/>
	<rect x="36.8" y="120.5" class="st0" width="60.4" height="5.2"/>
	<path class="st0" d="M166.8,49.6h-62.2V98h62.2V49.6z M161.6,92.8h-51.7V54.9h51.7V92.8z"/>
	<rect x="105.6" y="107.7" class="st0" width="60.4" height="5.2"/>
	<rect x="105.6" y="120.5" class="st0" width="60.4" height="5.2"/>
	<path class="st0" d="M235.6,49.6h-62.2V98h62.2V49.6z M230.4,92.8h-51.7V54.9h51.7V92.8z"/>
	<rect x="174.4" y="107.7" class="st0" width="60.4" height="5.2"/>
	<rect x="174.4" y="120.5" class="st0" width="60.4" height="5.2"/>
	<path class="st0" d="M98,143.6H35.9V192H98V143.6z M92.8,186.8H41.1v-37.9h51.7V186.8z"/>
	<rect x="36.8" y="201.6" class="st0" width="60.4" height="5.2"/>
	<rect x="36.8" y="214.4" class="st0" width="60.4" height="5.2"/>
	<path class="st0" d="M166.8,143.6h-62.2V192h62.2V143.6z M161.6,186.8h-51.7v-37.9h51.7V186.8z"/>
	<rect x="105.6" y="201.6" class="st0" width="60.4" height="5.2"/>
	<rect x="105.6" y="214.4" class="st0" width="60.4" height="5.2"/>
	<path class="st0" d="M235.6,143.6h-62.2V192h62.2V143.6z M230.4,186.8h-51.7v-37.9h51.7V186.8z"/>
	<rect x="174.4" y="201.6" class="st0" width="60.4" height="5.2"/>
	<rect x="174.4" y="214.4" class="st0" width="60.4" height="5.2"/>
	<rect x="193.7" y="71.2" class="st0" width="21.7" height="5.2"/>
	<rect x="124.9" y="71.2" class="st0" width="21.8" height="5.2"/>
	<rect x="56.2" y="71.2" class="st0" width="21.7" height="5.2"/>
	<rect x="193.7" y="165.2" class="st0" width="21.7" height="5.2"/>
	<rect x="124.9" y="165.2" class="st0" width="21.8" height="5.2"/>
	<rect x="56.2" y="165.2" class="st0" width="21.7" height="5.2"/>
</g>
</svg>
