<?xml version="1.0" encoding="utf-8"?>
<!-- Generator: Adobe Illustrator 25.2.3, SVG Export Plug-In . SVG Version: 6.00 Build 0)  -->
<svg version="1.1" id="Layer_1" xmlns="http://www.w3.org/2000/svg" xmlns:xlink="http://www.w3.org/1999/xlink" x="0px" y="0px"
	 viewBox="0 0 269.3 269.3" style="enable-background:new 0 0 269.3 269.3;" xml:space="preserve">
<style type="text/css">
	.st0{fill:none;stroke:#CF30BA;stroke-width:5;stroke-linecap:round;stroke-linejoin:round;stroke-miterlimit:10;}
	.st1{fill:#CF30BA;}
</style>
<g>
	<path class="st1" d="M75.3,145.7c-1.1-0.8-2.6-0.6-3.4,0.4c-5.4,7-8.3,15.5-8.3,24.4c0,8.8,2.8,17.1,8,24c0.5,0.6,1.2,1,1.9,1
		c0.5,0,1-0.2,1.5-0.5c1.1-0.8,1.3-2.3,0.5-3.4c-4.6-6.1-7.1-13.4-7.1-21.1c0-7.8,2.5-15.2,7.3-21.4C76.6,148,76.4,146.5,75.3,145.7
		z"/>
	<path class="st1" d="M52.3,170.5c0-11.2,3.6-21.9,10.3-30.8c0.8-1.1,0.6-2.6-0.5-3.4c-1.1-0.8-2.6-0.6-3.4,0.5
		c-7.4,9.8-11.3,21.4-11.3,33.7c0,12.3,3.9,24,11.3,33.8c0.5,0.6,1.2,1,1.9,1c0.5,0,1-0.2,1.5-0.5c1.1-0.8,1.3-2.3,0.5-3.4
		C55.9,192.4,52.3,181.7,52.3,170.5z"/>
	<path class="st1" d="M36.7,170.5c0-14.8,4.8-28.9,13.8-40.6c0.8-1.1,0.6-2.6-0.4-3.4c-1.1-0.8-2.6-0.6-3.4,0.4
		c-9.7,12.6-14.8,27.7-14.8,43.6c0,15.5,4.8,30.2,14,42.6c0.5,0.6,1.2,1,2,1c0.5,0,1-0.2,1.4-0.5c1.1-0.8,1.3-2.3,0.5-3.4
		C41.2,198.6,36.7,184.9,36.7,170.5z"/>
	<path class="st1" d="M210,63.5c-11.7-8.6-25.2-13-40.2-13c-7.3,0-14.8,1.1-22.4,3.1c-1.1,0.3-2.3,0.6-3.4,0.9
		c-6.2,1.6-12.7,3.3-18.4,6.8c-8.2,5.1-14.3,12.8-18.1,22.9c-0.5,1.4-1,2.7-1.6,4.1c-2.1,5.5-4.3,11.2-5,17.1
		c-0.4,3.3-0.3,6.6,0.1,9.8c0.1,0.8,0.3,1.6,0.5,2.3c0.3,1.2,0.7,2.6,0.4,3.4c-0.3,0.9-1.2,1.9-2,2.9c-0.4,0.5-0.8,0.9-1.1,1.4
		l-11,14.6c-1.8,2.4-2.6,6.9-0.6,9.9c1.5,2.1,3.8,2.9,5.7,3.5c1.1,0.3,2.1,0.6,2.7,1.1c0.3,0.2,0.2,0.8-0.3,2.6
		c-0.5,1.8-1.5,5,1.4,6.8c1,0.6,2.8,1.3,5.5,2.3c1.9,0.7,5.6,2,7.3,3c-1.1,0.9-2.9,2.2-4.2,3.1c-2.3,1.6-4.5,3.1-5.6,4.4
		c-2.4,2.8-0.3,5.6,0.7,6.9c0.6,0.8,1.3,1.7,1.2,2.2c-1,6.7,0.5,12.1,4.5,16.1c2.1,2.1,4.7,3.1,8,3.1c2.5,0,5.1-0.6,7.6-1.1
		c2.2-0.5,4.4-1,6.2-1c2.3,0,3.6,0.7,4.5,2.5c0.9,1.6,1.5,3.9,2.1,6c0.4,1.4,0.8,2.8,1.2,4.1c1.9,5.3,6.9,8.8,12.5,8.8h64.3
		c4.1,0,7.9-1.8,10.4-5c2.5-3.2,3.4-7.3,2.5-11.3c-0.7-3-1.2-5.2-1.7-6.8c-3.5-13-5.9-23.9-1.3-35.8c1.6-4.1,3.5-8.2,5.3-12.1
		c3.8-8,7.6-16.2,9-25.6C240.3,103.2,229.8,78.2,210,63.5z M231.9,126.7c-1.3,8.7-4.8,16.2-8.6,24.2c-1.9,4-3.8,8.1-5.5,12.4
		c-5.1,13.3-2.5,25.5,1.1,38.9c0.4,1.6,1,3.7,1.7,6.7c0.6,2.5,0,5.1-1.6,7.1c-1.6,2-4,3.2-6.6,3.2h-64.3c-3.5,0-6.7-2.2-7.9-5.6
		c-0.4-1.1-0.7-2.4-1.1-3.7c-0.7-2.4-1.3-4.9-2.5-7c-1.8-3.4-4.8-5.1-8.8-5.1c-2.3,0-4.8,0.5-7.2,1.1c-2.2,0.5-4.6,1-6.6,1
		c-2,0-3.4-0.5-4.6-1.6c-2.9-2.9-3.9-6.7-3.1-12c0.4-2.6-1.1-4.5-2.1-5.9c-0.2-0.3-0.5-0.7-0.7-1c0.8-0.8,2.8-2.2,4.5-3.4
		c4.5-3.1,6.8-4.8,6.9-7c0.3-3.5-4.7-5.4-11-7.7c-1.6-0.6-3.4-1.2-4.2-1.7c0.1-0.4,0.3-1,0.4-1.4c0.6-2,1.7-5.4-1.3-7.8
		c-1.3-1-2.9-1.5-4.3-1.9c-1.4-0.4-2.6-0.8-3.1-1.5c-0.6-0.9-0.4-3.1,0.4-4.2l11-14.6c0.3-0.4,0.6-0.8,1-1.2
		c1.1-1.3,2.3-2.7,2.9-4.4c0.8-2.1,0.2-4.4-0.3-6.2c-0.2-0.7-0.3-1.3-0.4-1.8c-0.4-2.9-0.4-5.8-0.1-8.7c0.6-5.4,2.7-10.7,4.7-15.9
		c0.5-1.4,1.1-2.8,1.6-4.2c3.3-9.1,8.7-15.9,16-20.4c5.1-3.2,10.9-4.7,17.1-6.3c1.2-0.3,2.3-0.6,3.5-0.9c7.2-2,14.3-3,21.1-3
		c14,0,26.5,4.1,37.3,12.1C225.5,81,235.2,104.3,231.9,126.7z"/>
</g>
</svg>
