<?xml version="1.0" encoding="utf-8"?>
<!-- Generator: Adobe Illustrator 25.2.3, SVG Export Plug-In . SVG Version: 6.00 Build 0)  -->
<svg version="1.1" id="Layer_1" xmlns="http://www.w3.org/2000/svg" xmlns:xlink="http://www.w3.org/1999/xlink" x="0px" y="0px"
	 viewBox="0 0 269.3 269.3" style="enable-background:new 0 0 269.3 269.3;" xml:space="preserve">
<style type="text/css">
	.st0{fill:#CF30BA;}
</style>
<g>
	<g>
		<g>
			<path class="st0" d="M27.3,174.6c-0.4,0-0.8-0.1-1.3-0.2l-5.1-2c-1.3-0.5-2.2-1.8-2.2-3.3c0.5-32.7,4.3-35.4,5.5-36.2
				c3.9-2.8,12.4-5.1,20.6-7.4c4.6-1.3,9-2.5,11.2-3.4c2-0.9,7.3-5.9,11.9-10.3c8.2-7.7,16.6-15.8,22.5-17.3c15-4,151-0.3,152-0.2
				c2.8,0.4,6.7,0.9,6.1,41.7l2.1,22.4c0,0.2,0,0.4,0,0.5c-0.9,13.6-2.4,15.8-5.7,15.8h-25.2c-1.9,0-3.4-1.5-3.4-3.4
				s1.5-3.4,3.4-3.4h23c0.4-2.1,0.8-5.8,1-9l-2.1-22.3c0-0.1,0-0.3,0-0.4c0.2-13.9-0.3-30.3-1.6-35c-16-0.9-136.5-2.9-147.9,0.1
				c-4.2,1.1-13.1,9.5-19.6,15.7c-6.7,6.3-10.9,10.3-13.9,11.6c-2.6,1.2-7,2.4-12.1,3.8c-6.7,1.8-14.9,4.1-18.1,6.1
				c-1.4,2.9-2.5,16.4-2.8,28.5l2.9,1.1c1.8,0.7,2.6,2.7,2,4.5C29.9,173.8,28.6,174.6,27.3,174.6z"/>
		</g>
		<g>
			<path class="st0" d="M170,174.6H77.6c-1.9,0-3.4-1.5-3.4-3.4s1.5-3.4,3.4-3.4H170c1.9,0,3.4,1.5,3.4,3.4S171.9,174.6,170,174.6z"
				/>
		</g>
		<g>
			<path class="st0" d="M52.6,187.6c-9.3,0-16.9-7.6-16.9-16.9c0-9.3,7.6-16.9,16.9-16.9s16.9,7.6,16.9,16.9
				C69.4,180,61.9,187.6,52.6,187.6z M52.6,160.7c-5.5,0-10,4.5-10,10c0,5.5,4.5,10,10,10c5.5,0,10-4.5,10-10
				C62.5,165.2,58.1,160.7,52.6,160.7z"/>
		</g>
		<g>
			<path class="st0" d="M195.3,187.6c-9.3,0-16.9-7.6-16.9-16.9c0-9.3,7.6-16.9,16.9-16.9c9.3,0,16.9,7.6,16.9,16.9
				C212.1,180,204.6,187.6,195.3,187.6z M195.3,160.7c-5.5,0-10,4.5-10,10c0,5.5,4.5,10,10,10c5.5,0,10-4.5,10-10
				C205.2,165.2,200.8,160.7,195.3,160.7z"/>
		</g>
	</g>
	<g>
		<path class="st0" d="M74.7,133.7c-1,0-1.9-0.4-2.6-1.2c-1.3-1.4-1.1-3.6,0.3-4.9l5.8-5.1c1.4-1.3,3.6-1.1,4.9,0.3
			c1.3,1.4,1.1,3.6-0.3,4.9l-5.8,5.1C76.3,133.5,75.5,133.7,74.7,133.7z"/>
	</g>
	<g>
		<path class="st0" d="M81.4,128.7c-0.6,0-0.9,0-1,0c-1.9,0-3.4-1.6-3.4-3.5c0-1.9,1.7-3.6,3.5-3.4c0.1,0,13.2,0.3,23.6-3.2
			c9.2-3.1,11.1-18.7,11.1-18.9c0.2-1.9,1.9-3.3,3.8-3.1c1.9,0.2,3.3,1.9,3.1,3.8c-0.1,0.8-2.3,20.1-15.8,24.7
			C96.4,128.4,84.8,128.7,81.4,128.7z"/>
	</g>
</g>
</svg>
